<ttFont>
    <TTGlyph name="A" xMin="-23" yMin="-61" xMax="1092" yMax="1507">
      <contour>
        <pt x="1092" y="57" on="1"/>
        <pt x="1092" y="39" on="0"/>
        <pt x="1082" y="12" on="0"/>
        <pt x="1068" y="-10" on="0"/>
        <pt x="1051" y="-32" on="0"/>
        <pt x="1044" y="-47" on="1"/>
        <pt x="1030" y="-45" on="1"/>
        <pt x="1010" y="-45" on="0"/>
        <pt x="970" y="-51" on="0"/>
        <pt x="950" y="-51" on="1"/>
        <pt x="932" y="-51" on="0"/>
        <pt x="901" y="-39" on="0"/>
        <pt x="893" y="-20" on="1"/>
        <pt x="879" y="-12" on="0"/>
        <pt x="851" y="-5" on="0"/>
        <pt x="840" y="6" on="1"/>
        <pt x="840" y="16" on="1"/>
        <pt x="840" y="30" on="0"/>
        <pt x="822" y="52" on="0"/>
        <pt x="819" y="66" on="1"/>
        <pt x="813" y="93" on="0"/>
        <pt x="815" y="152" on="0"/>
        <pt x="815" y="180" on="1"/>
        <pt x="815" y="205" on="0"/>
        <pt x="805" y="253" on="0"/>
        <pt x="793" y="300" on="0"/>
        <pt x="784" y="347" on="0"/>
        <pt x="786" y="371" on="1"/>
        <pt x="743" y="376" on="0"/>
        <pt x="660" y="383" on="0"/>
        <pt x="616" y="383" on="1"/>
        <pt x="579" y="383" on="0"/>
        <pt x="504" y="376" on="0"/>
        <pt x="469" y="362" on="1"/>
        <pt x="450" y="373" on="0"/>
        <pt x="407" y="383" on="0"/>
        <pt x="385" y="383" on="1"/>
        <pt x="362" y="383" on="0"/>
        <pt x="344" y="377" on="1"/>
        <pt x="336" y="357" on="0"/>
        <pt x="336" y="317" on="0"/>
        <pt x="330" y="297" on="1"/>
        <pt x="328" y="288" on="0"/>
        <pt x="319" y="281" on="0"/>
        <pt x="317" y="276" on="1"/>
        <pt x="315" y="271" on="0"/>
        <pt x="317" y="260" on="0"/>
        <pt x="317" y="254" on="1"/>
        <pt x="317" y="248" on="0"/>
        <pt x="300" y="222" on="0"/>
        <pt x="297" y="211" on="1"/>
        <pt x="292" y="185" on="0"/>
        <pt x="291" y="126" on="0"/>
        <pt x="291" y="98" on="1"/>
        <pt x="291" y="92" on="0"/>
        <pt x="299" y="83" on="0"/>
        <pt x="299" y="78" on="1"/>
        <pt x="299" y="73" on="0"/>
        <pt x="269" y="30" on="0"/>
        <pt x="232" y="-19" on="0"/>
        <pt x="200" y="-58" on="0"/>
        <pt x="199" y="-59" on="1"/>
        <pt x="192" y="-61" on="0"/>
        <pt x="180" y="-61" on="0"/>
        <pt x="174" y="-61" on="1"/>
        <pt x="139" y="-61" on="0"/>
        <pt x="73" y="-28" on="0"/>
        <pt x="47" y="-6" on="1"/>
        <pt x="47" y="8" on="1"/>
        <pt x="47" y="34" on="0"/>
        <pt x="39" y="87" on="0"/>
        <pt x="33" y="113" on="1"/>
        <pt x="47" y="131" on="0"/>
        <pt x="55" y="169" on="0"/>
        <pt x="53" y="190" on="1"/>
        <pt x="62" y="200" on="0"/>
        <pt x="75" y="212" on="0"/>
        <pt x="83" y="224" on="0"/>
        <pt x="86" y="240" on="0"/>
        <pt x="86" y="254" on="1"/>
        <pt x="86" y="258" on="1"/>
        <pt x="100" y="270" on="1"/>
        <pt x="102" y="281" on="0"/>
        <pt x="98" y="300" on="0"/>
        <pt x="98" y="311" on="1"/>
        <pt x="98" y="319" on="0"/>
        <pt x="100" y="324" on="1"/>
        <pt x="113" y="336" on="1"/>
        <pt x="115" y="342" on="0"/>
        <pt x="113" y="353" on="0"/>
        <pt x="113" y="358" on="1"/>
        <pt x="113" y="363" on="0"/>
        <pt x="119" y="370" on="0"/>
        <pt x="127" y="378" on="0"/>
        <pt x="133" y="386" on="0"/>
        <pt x="133" y="391" on="1"/>
        <pt x="133" y="395" on="1"/>
        <pt x="92" y="401" on="0"/>
        <pt x="53" y="395" on="1"/>
        <pt x="40" y="404" on="0"/>
        <pt x="13" y="424" on="0"/>
        <pt x="-9" y="446" on="0"/>
        <pt x="-23" y="474" on="0"/>
        <pt x="-23" y="492" on="1"/>
        <pt x="-23" y="525" on="0"/>
        <pt x="3" y="559" on="0"/>
        <pt x="40" y="582" on="0"/>
        <pt x="83" y="602" on="0"/>
        <pt x="100" y="621" on="1"/>
        <pt x="152" y="621" on="1"/>
        <pt x="170" y="639" on="0"/>
        <pt x="197" y="682" on="0"/>
        <pt x="205" y="707" on="1"/>
        <pt x="208" y="716" on="0"/>
        <pt x="208" y="736" on="0"/>
        <pt x="211" y="745" on="1"/>
        <pt x="220" y="765" on="0"/>
        <pt x="250" y="798" on="0"/>
        <pt x="258" y="819" on="1"/>
        <pt x="263" y="835" on="0"/>
        <pt x="259" y="869" on="0"/>
        <pt x="264" y="885" on="1"/>
        <pt x="273" y="912" on="0"/>
        <pt x="295" y="954" on="0"/>
        <pt x="316" y="997" on="0"/>
        <pt x="330" y="1051" on="0"/>
        <pt x="330" y="1090" on="1"/>
        <pt x="330" y="1096" on="0"/>
        <pt x="324" y="1104" on="0"/>
        <pt x="324" y="1110" on="1"/>
        <pt x="324" y="1116" on="0"/>
        <pt x="341" y="1140" on="0"/>
        <pt x="344" y="1149" on="1"/>
        <pt x="347" y="1160" on="0"/>
        <pt x="342" y="1181" on="0"/>
        <pt x="342" y="1192" on="1"/>
        <pt x="342" y="1199" on="0"/>
        <pt x="364" y="1248" on="0"/>
        <pt x="394" y="1303" on="0"/>
        <pt x="426" y="1352" on="0"/>
        <pt x="436" y="1360" on="1"/>
        <pt x="437" y="1382" on="0"/>
        <pt x="451" y="1415" on="0"/>
        <pt x="469" y="1445" on="0"/>
        <pt x="489" y="1475" on="0"/>
        <pt x="496" y="1493" on="1"/>
        <pt x="510" y="1493" on="0"/>
        <pt x="516" y="1505" on="1"/>
        <pt x="518" y="1507" on="0"/>
        <pt x="522" y="1507" on="1"/>
        <pt x="538" y="1507" on="0"/>
        <pt x="578" y="1501" on="0"/>
        <pt x="604" y="1501" on="1"/>
        <pt x="627" y="1501" on="0"/>
        <pt x="670" y="1480" on="0"/>
        <pt x="688" y="1466" on="1"/>
        <pt x="705" y="1453" on="0"/>
        <pt x="736" y="1391" on="0"/>
        <pt x="764" y="1310" on="0"/>
        <pt x="789" y="1218" on="0"/>
        <pt x="811" y="1131" on="0"/>
        <pt x="831" y="1058" on="0"/>
        <pt x="840" y="1036" on="1"/>
        <pt x="845" y="1022" on="0"/>
        <pt x="861" y="999" on="0"/>
        <pt x="866" y="983" on="1"/>
        <pt x="869" y="969" on="0"/>
        <pt x="867" y="939" on="0"/>
        <pt x="872" y="924" on="1"/>
        <pt x="876" y="911" on="0"/>
        <pt x="888" y="891" on="0"/>
        <pt x="893" y="879" on="1"/>
        <pt x="901" y="848" on="0"/>
        <pt x="905" y="783" on="0"/>
        <pt x="918" y="754" on="1"/>
        <pt x="944" y="695" on="0"/>
        <pt x="977" y="573" on="0"/>
        <pt x="977" y="510" on="1"/>
        <pt x="977" y="496" on="0"/>
        <pt x="985" y="481" on="1"/>
        <pt x="985" y="473" on="0"/>
        <pt x="995" y="455" on="0"/>
        <pt x="1008" y="436" on="0"/>
        <pt x="1021" y="418" on="0"/>
        <pt x="1024" y="410" on="1"/>
        <pt x="1026" y="404" on="0"/>
        <pt x="1038" y="351" on="0"/>
        <pt x="1053" y="277" on="0"/>
        <pt x="1069" y="192" on="0"/>
        <pt x="1083" y="117" on="0"/>
        <pt x="1092" y="63" on="0"/>
      </contour>
      <contour>
        <pt x="727" y="600" on="1"/>
        <pt x="726" y="620" on="0"/>
        <pt x="714" y="658" on="0"/>
        <pt x="699" y="695" on="0"/>
        <pt x="684" y="734" on="0"/>
        <pt x="680" y="754" on="1"/>
        <pt x="677" y="775" on="0"/>
        <pt x="680" y="823" on="0"/>
        <pt x="674" y="846" on="1"/>
        <pt x="671" y="858" on="0"/>
        <pt x="664" y="868" on="0"/>
        <pt x="659" y="877" on="0"/>
        <pt x="655" y="892" on="0"/>
        <pt x="655" y="909" on="1"/>
        <pt x="655" y="918" on="0"/>
        <pt x="646" y="934" on="0"/>
        <pt x="636" y="950" on="0"/>
        <pt x="627" y="972" on="0"/>
        <pt x="627" y="987" on="1"/>
        <pt x="627" y="996" on="0"/>
        <pt x="633" y="1015" on="0"/>
        <pt x="635" y="1024" on="1"/>
        <pt x="616" y="1041" on="0"/>
        <pt x="591" y="1083" on="0"/>
        <pt x="575" y="1102" on="1"/>
        <pt x="568" y="1098" on="0"/>
        <pt x="564" y="1080" on="0"/>
        <pt x="564" y="1059" on="0"/>
        <pt x="564" y="1037" on="0"/>
        <pt x="561" y="1030" on="1"/>
        <pt x="558" y="1021" on="0"/>
        <pt x="541" y="1012" on="0"/>
        <pt x="535" y="1004" on="1"/>
        <pt x="530" y="996" on="0"/>
        <pt x="525" y="976" on="0"/>
        <pt x="516" y="971" on="1"/>
        <pt x="516" y="911" on="1"/>
        <pt x="493" y="884" on="0"/>
        <pt x="464" y="812" on="0"/>
        <pt x="445" y="734" on="0"/>
        <pt x="434" y="655" on="0"/>
        <pt x="430" y="621" on="1"/>
        <pt x="433" y="619" on="0"/>
        <pt x="441" y="618" on="0"/>
        <pt x="444" y="618" on="1"/>
        <pt x="461" y="618" on="0"/>
        <pt x="493" y="627" on="0"/>
        <pt x="510" y="627" on="1"/>
        <pt x="553" y="627" on="0"/>
        <pt x="594" y="621" on="1"/>
        <pt x="605" y="619" on="0"/>
        <pt x="622" y="608" on="0"/>
        <pt x="633" y="608" on="1"/>
        <pt x="638" y="608" on="0"/>
        <pt x="645" y="614" on="0"/>
        <pt x="653" y="614" on="1"/>
        <pt x="669" y="614" on="0"/>
        <pt x="697" y="596" on="0"/>
        <pt x="713" y="596" on="1"/>
        <pt x="719" y="596" on="0"/>
      </contour>
    </TTGlyph>
    <TTGlyph name="AE" xMin="0" yMin="-61" xMax="1724" yMax="1507">
      <contour>
        <pt x="1718" y="217" on="1"/>
        <pt x="1724" y="196" on="0"/>
        <pt x="1724" y="176" on="1"/>
        <pt x="1724" y="137" on="0"/>
        <pt x="1692" y="83" on="0"/>
        <pt x="1644" y="48" on="0"/>
        <pt x="1590" y="33" on="0"/>
        <pt x="1569" y="33" on="1"/>
        <pt x="1558" y="33" on="0"/>
        <pt x="1532" y="35" on="0"/>
        <pt x="1513" y="35" on="1"/>
        <pt x="1476" y="35" on="0"/>
        <pt x="1415" y="18" on="0"/>
        <pt x="1389" y="18" on="1"/>
        <pt x="1363" y="18" on="0"/>
        <pt x="1306" y="27" on="0"/>
        <pt x="1278" y="27" on="1"/>
        <pt x="1261" y="27" on="0"/>
        <pt x="1230" y="20" on="0"/>
        <pt x="1214" y="12" on="1"/>
        <pt x="1199" y="12" on="0"/>
        <pt x="1174" y="31" on="0"/>
        <pt x="1157" y="31" on="1"/>
        <pt x="1148" y="31" on="0"/>
        <pt x="1134" y="25" on="0"/>
        <pt x="1124" y="25" on="1"/>
        <pt x="1107" y="25" on="0"/>
        <pt x="1078" y="39" on="0"/>
        <pt x="1061" y="39" on="1"/>
        <pt x="1051" y="39" on="1"/>
        <pt x="1046" y="25" on="0"/>
        <pt x="1031" y="5" on="0"/>
        <pt x="1014" y="-14" on="0"/>
        <pt x="996" y="-34" on="0"/>
        <pt x="987" y="-47" on="1"/>
        <pt x="973" y="-45" on="1"/>
        <pt x="953" y="-45" on="0"/>
        <pt x="913" y="-51" on="0"/>
        <pt x="893" y="-51" on="1"/>
        <pt x="874" y="-51" on="0"/>
        <pt x="845" y="-39" on="0"/>
        <pt x="842" y="-20" on="1"/>
        <pt x="829" y="-12" on="0"/>
        <pt x="804" y="-5" on="0"/>
        <pt x="795" y="6" on="1"/>
        <pt x="797" y="10" on="0"/>
        <pt x="797" y="23" on="1"/>
        <pt x="797" y="34" on="0"/>
        <pt x="786" y="53" on="0"/>
        <pt x="786" y="66" on="1"/>
        <pt x="786" y="87" on="0"/>
        <pt x="793" y="129" on="0"/>
        <pt x="802" y="171" on="0"/>
        <pt x="809" y="214" on="0"/>
        <pt x="809" y="236" on="1"/>
        <pt x="809" y="254" on="0"/>
        <pt x="807" y="291" on="0"/>
        <pt x="807" y="311" on="1"/>
        <pt x="807" y="321" on="0"/>
        <pt x="807" y="339" on="0"/>
        <pt x="809" y="348" on="1"/>
        <pt x="809" y="371" on="1"/>
        <pt x="767" y="376" on="0"/>
        <pt x="689" y="383" on="0"/>
        <pt x="647" y="383" on="1"/>
        <pt x="610" y="383" on="0"/>
        <pt x="534" y="376" on="0"/>
        <pt x="496" y="362" on="1"/>
        <pt x="479" y="373" on="0"/>
        <pt x="437" y="383" on="0"/>
        <pt x="416" y="383" on="1"/>
        <pt x="391" y="383" on="0"/>
        <pt x="367" y="367" on="0"/>
        <pt x="355" y="341" on="0"/>
        <pt x="350" y="311" on="0"/>
        <pt x="344" y="297" on="1"/>
        <pt x="339" y="288" on="0"/>
        <pt x="333" y="279" on="0"/>
        <pt x="328" y="272" on="0"/>
        <pt x="324" y="263" on="0"/>
        <pt x="322" y="254" on="1"/>
        <pt x="322" y="249" on="0"/>
        <pt x="304" y="218" on="0"/>
        <pt x="282" y="174" on="0"/>
        <pt x="264" y="122" on="0"/>
        <pt x="264" y="96" on="1"/>
        <pt x="264" y="91" on="0"/>
        <pt x="268" y="83" on="0"/>
        <pt x="268" y="80" on="1"/>
        <pt x="268" y="79" on="0"/>
        <pt x="251" y="58" on="0"/>
        <pt x="225" y="29" on="0"/>
        <pt x="194" y="-6" on="0"/>
        <pt x="166" y="-36" on="0"/>
        <pt x="144" y="-58" on="0"/>
        <pt x="141" y="-59" on="1"/>
        <pt x="135" y="-61" on="0"/>
        <pt x="123" y="-61" on="0"/>
        <pt x="117" y="-61" on="1"/>
        <pt x="82" y="-61" on="0"/>
        <pt x="22" y="-28" on="0"/>
        <pt x="0" y="-6" on="1"/>
        <pt x="4" y="8" on="1"/>
        <pt x="9" y="34" on="0"/>
        <pt x="10" y="87" on="0"/>
        <pt x="10" y="113" on="1"/>
        <pt x="27" y="131" on="0"/>
        <pt x="42" y="169" on="0"/>
        <pt x="45" y="190" on="1"/>
        <pt x="57" y="200" on="0"/>
        <pt x="72" y="212" on="0"/>
        <pt x="82" y="224" on="0"/>
        <pt x="88" y="240" on="0"/>
        <pt x="90" y="254" on="1"/>
        <pt x="109" y="270" on="1"/>
        <pt x="112" y="284" on="0"/>
        <pt x="113" y="311" on="0"/>
        <pt x="119" y="324" on="1"/>
        <pt x="133" y="336" on="1"/>
        <pt x="136" y="342" on="0"/>
        <pt x="137" y="353" on="0"/>
        <pt x="137" y="358" on="1"/>
        <pt x="140" y="368" on="0"/>
        <pt x="163" y="380" on="0"/>
        <pt x="166" y="391" on="1"/>
        <pt x="166" y="395" on="1"/>
        <pt x="155" y="397" on="0"/>
        <pt x="134" y="397" on="0"/>
        <pt x="125" y="397" on="1"/>
        <pt x="114" y="397" on="0"/>
        <pt x="95" y="397" on="0"/>
        <pt x="86" y="395" on="1"/>
        <pt x="64" y="412" on="0"/>
        <pt x="27" y="448" on="0"/>
        <pt x="27" y="477" on="1"/>
        <pt x="27" y="514" on="0"/>
        <pt x="60" y="555" on="0"/>
        <pt x="107" y="582" on="0"/>
        <pt x="159" y="604" on="0"/>
        <pt x="178" y="621" on="1"/>
        <pt x="229" y="621" on="1"/>
        <pt x="246" y="634" on="0"/>
        <pt x="268" y="661" on="0"/>
        <pt x="285" y="690" on="0"/>
        <pt x="302" y="724" on="0"/>
        <pt x="313" y="745" on="1"/>
        <pt x="324" y="765" on="0"/>
        <pt x="362" y="798" on="0"/>
        <pt x="375" y="819" on="1"/>
        <pt x="383" y="835" on="0"/>
        <pt x="385" y="869" on="0"/>
        <pt x="393" y="885" on="1"/>
        <pt x="408" y="912" on="0"/>
        <pt x="439" y="954" on="0"/>
        <pt x="468" y="997" on="0"/>
        <pt x="492" y="1051" on="0"/>
        <pt x="500" y="1090" on="1"/>
        <pt x="500" y="1094" on="1"/>
        <pt x="500" y="1097" on="0"/>
        <pt x="498" y="1103" on="0"/>
        <pt x="498" y="1106" on="1"/>
        <pt x="498" y="1114" on="0"/>
        <pt x="520" y="1137" on="0"/>
        <pt x="526" y="1149" on="1"/>
        <pt x="531" y="1160" on="0"/>
        <pt x="530" y="1181" on="0"/>
        <pt x="532" y="1192" on="1"/>
        <pt x="534" y="1199" on="0"/>
        <pt x="566" y="1248" on="0"/>
        <pt x="607" y="1303" on="0"/>
        <pt x="648" y="1352" on="0"/>
        <pt x="659" y="1360" on="1"/>
        <pt x="665" y="1382" on="0"/>
        <pt x="698" y="1434" on="0"/>
        <pt x="735" y="1478" on="0"/>
        <pt x="768" y="1507" on="0"/>
        <pt x="776" y="1507" on="1"/>
        <pt x="789" y="1507" on="0"/>
        <pt x="839" y="1505" on="0"/>
        <pt x="893" y="1493" on="0"/>
        <pt x="939" y="1465" on="0"/>
        <pt x="948" y="1438" on="1"/>
        <pt x="961" y="1436" on="0"/>
        <pt x="984" y="1434" on="0"/>
        <pt x="995" y="1434" on="1"/>
        <pt x="1009" y="1434" on="0"/>
        <pt x="1031" y="1440" on="0"/>
        <pt x="1055" y="1446" on="0"/>
        <pt x="1085" y="1452" on="0"/>
        <pt x="1106" y="1452" on="1"/>
        <pt x="1186" y="1452" on="0"/>
        <pt x="1351" y="1467" on="0"/>
        <pt x="1432" y="1481" on="1"/>
        <pt x="1437" y="1481" on="0"/>
        <pt x="1446" y="1485" on="0"/>
        <pt x="1452" y="1485" on="1"/>
        <pt x="1455" y="1485" on="0"/>
        <pt x="1462" y="1476" on="0"/>
        <pt x="1464" y="1473" on="1"/>
        <pt x="1471" y="1476" on="0"/>
        <pt x="1487" y="1477" on="0"/>
        <pt x="1495" y="1477" on="1"/>
        <pt x="1524" y="1477" on="0"/>
        <pt x="1582" y="1460" on="0"/>
        <pt x="1610" y="1454" on="1"/>
        <pt x="1615" y="1434" on="0"/>
        <pt x="1624" y="1396" on="0"/>
        <pt x="1624" y="1376" on="1"/>
        <pt x="1624" y="1342" on="0"/>
        <pt x="1604" y="1309" on="0"/>
        <pt x="1574" y="1290" on="0"/>
        <pt x="1540" y="1273" on="0"/>
        <pt x="1526" y="1255" on="1"/>
        <pt x="1511" y="1255" on="1"/>
        <pt x="1487" y="1255" on="1"/>
        <pt x="1456" y="1255" on="0"/>
        <pt x="1394" y="1249" on="0"/>
        <pt x="1362" y="1249" on="1"/>
        <pt x="1347" y="1249" on="0"/>
        <pt x="1324" y="1244" on="0"/>
        <pt x="1305" y="1236" on="0"/>
        <pt x="1285" y="1227" on="0"/>
        <pt x="1272" y="1223" on="1"/>
        <pt x="1256" y="1226" on="0"/>
        <pt x="1228" y="1229" on="0"/>
        <pt x="1212" y="1229" on="1"/>
        <pt x="1160" y="1229" on="0"/>
        <pt x="1062" y="1205" on="0"/>
        <pt x="1012" y="1202" on="1"/>
        <pt x="1004" y="1191" on="0"/>
        <pt x="1004" y="1176" on="1"/>
        <pt x="1004" y="1151" on="0"/>
        <pt x="1018" y="1105" on="0"/>
        <pt x="1018" y="1077" on="1"/>
        <pt x="1018" y="1040" on="1"/>
        <pt x="1018" y="1026" on="0"/>
        <pt x="1019" y="996" on="0"/>
        <pt x="1027" y="971" on="0"/>
        <pt x="1047" y="954" on="0"/>
        <pt x="1065" y="954" on="1"/>
        <pt x="1090" y="954" on="0"/>
        <pt x="1141" y="965" on="0"/>
        <pt x="1165" y="965" on="1"/>
        <pt x="1205" y="965" on="0"/>
        <pt x="1282" y="944" on="0"/>
        <pt x="1323" y="944" on="1"/>
        <pt x="1332" y="944" on="0"/>
        <pt x="1351" y="952" on="0"/>
        <pt x="1362" y="952" on="1"/>
        <pt x="1367" y="952" on="0"/>
        <pt x="1377" y="944" on="0"/>
        <pt x="1386" y="944" on="1"/>
        <pt x="1400" y="944" on="0"/>
        <pt x="1424" y="958" on="0"/>
        <pt x="1440" y="958" on="1"/>
        <pt x="1453" y="958" on="0"/>
        <pt x="1476" y="947" on="0"/>
        <pt x="1498" y="932" on="0"/>
        <pt x="1520" y="919" on="0"/>
        <pt x="1532" y="918" on="1"/>
        <pt x="1532" y="898" on="0"/>
        <pt x="1552" y="862" on="0"/>
        <pt x="1552" y="842" on="1"/>
        <pt x="1552" y="824" on="0"/>
        <pt x="1523" y="785" on="0"/>
        <pt x="1484" y="752" on="0"/>
        <pt x="1444" y="731" on="0"/>
        <pt x="1434" y="731" on="1"/>
        <pt x="1429" y="731" on="0"/>
        <pt x="1420" y="733" on="0"/>
        <pt x="1415" y="733" on="1"/>
        <pt x="1402" y="733" on="0"/>
        <pt x="1376" y="725" on="0"/>
        <pt x="1351" y="715" on="0"/>
        <pt x="1324" y="707" on="0"/>
        <pt x="1309" y="707" on="1"/>
        <pt x="1287" y="707" on="0"/>
        <pt x="1244" y="713" on="0"/>
        <pt x="1221" y="713" on="1"/>
        <pt x="1208" y="713" on="0"/>
        <pt x="1186" y="707" on="0"/>
        <pt x="1174" y="707" on="1"/>
        <pt x="1163" y="707" on="0"/>
        <pt x="1133" y="717" on="0"/>
        <pt x="1102" y="729" on="0"/>
        <pt x="1076" y="739" on="0"/>
        <pt x="1069" y="739" on="1"/>
        <pt x="1061" y="739" on="0"/>
        <pt x="1055" y="727" on="0"/>
        <pt x="1047" y="727" on="1"/>
        <pt x="1042" y="727" on="1"/>
        <pt x="1037" y="718" on="0"/>
        <pt x="1034" y="699" on="0"/>
        <pt x="1034" y="690" on="1"/>
        <pt x="1034" y="666" on="1"/>
        <pt x="1036" y="652" on="0"/>
        <pt x="1042" y="627" on="0"/>
        <pt x="1042" y="614" on="1"/>
        <pt x="1042" y="597" on="0"/>
        <pt x="1037" y="561" on="0"/>
        <pt x="1034" y="541" on="1"/>
        <pt x="1036" y="525" on="0"/>
        <pt x="1045" y="481" on="0"/>
        <pt x="1054" y="434" on="0"/>
        <pt x="1061" y="390" on="0"/>
        <pt x="1061" y="373" on="1"/>
        <pt x="1061" y="362" on="0"/>
        <pt x="1061" y="341" on="0"/>
        <pt x="1059" y="330" on="1"/>
        <pt x="1059" y="248" on="1"/>
        <pt x="1085" y="240" on="0"/>
        <pt x="1139" y="238" on="0"/>
        <pt x="1165" y="238" on="1"/>
        <pt x="1231" y="238" on="0"/>
        <pt x="1365" y="256" on="0"/>
        <pt x="1432" y="256" on="1"/>
        <pt x="1453" y="256" on="0"/>
        <pt x="1494" y="254" on="0"/>
        <pt x="1516" y="254" on="1"/>
        <pt x="1540" y="254" on="0"/>
        <pt x="1584" y="276" on="0"/>
        <pt x="1606" y="276" on="1"/>
        <pt x="1644" y="276" on="0"/>
        <pt x="1661" y="242" on="1"/>
        <pt x="1669" y="244" on="1"/>
        <pt x="1686" y="244" on="0"/>
        <pt x="1703" y="225" on="0"/>
      </contour>
      <contour>
        <pt x="784" y="596" on="1"/>
        <pt x="792" y="596" on="0"/>
        <pt x="799" y="608" on="0"/>
        <pt x="800" y="625" on="0"/>
        <pt x="799" y="643" on="0"/>
        <pt x="799" y="649" on="1"/>
        <pt x="796" y="675" on="0"/>
        <pt x="784" y="726" on="0"/>
        <pt x="784" y="754" on="1"/>
        <pt x="784" y="774" on="0"/>
        <pt x="797" y="818" on="0"/>
        <pt x="797" y="840" on="1"/>
        <pt x="797" y="850" on="0"/>
        <pt x="794" y="862" on="0"/>
        <pt x="789" y="870" on="0"/>
        <pt x="786" y="878" on="0"/>
        <pt x="786" y="885" on="1"/>
        <pt x="786" y="890" on="0"/>
        <pt x="791" y="902" on="0"/>
        <pt x="791" y="913" on="1"/>
        <pt x="791" y="920" on="0"/>
        <pt x="786" y="932" on="0"/>
        <pt x="779" y="946" on="0"/>
        <pt x="774" y="962" on="0"/>
        <pt x="774" y="973" on="1"/>
        <pt x="774" y="988" on="0"/>
        <pt x="788" y="1010" on="0"/>
        <pt x="793" y="1024" on="1"/>
        <pt x="777" y="1041" on="0"/>
        <pt x="760" y="1083" on="0"/>
        <pt x="748" y="1102" on="1"/>
        <pt x="736" y="1096" on="0"/>
        <pt x="726" y="1063" on="0"/>
        <pt x="714" y="1024" on="0"/>
        <pt x="691" y="984" on="0"/>
        <pt x="664" y="971" on="1"/>
        <pt x="651" y="911" on="1"/>
        <pt x="622" y="884" on="0"/>
        <pt x="579" y="812" on="0"/>
        <pt x="546" y="734" on="0"/>
        <pt x="520" y="655" on="0"/>
        <pt x="508" y="621" on="1"/>
        <pt x="511" y="619" on="0"/>
        <pt x="519" y="618" on="0"/>
        <pt x="522" y="618" on="1"/>
        <pt x="539" y="618" on="0"/>
        <pt x="571" y="627" on="0"/>
        <pt x="588" y="627" on="1"/>
        <pt x="631" y="627" on="0"/>
        <pt x="672" y="621" on="1"/>
        <pt x="683" y="619" on="0"/>
        <pt x="698" y="608" on="0"/>
        <pt x="709" y="608" on="1"/>
        <pt x="714" y="608" on="0"/>
        <pt x="721" y="614" on="0"/>
        <pt x="729" y="614" on="1"/>
        <pt x="745" y="614" on="0"/>
        <pt x="769" y="596" on="0"/>
      </contour>
    </TTGlyph>
    <TTGlyph name="AEacute" xMin="0" yMin="-61" xMax="1724" yMax="1977">
      <component glyphName="AE" x="0" y="0" flags="0x204"/>
      <component glyphName="acute" x="885" y="240" flags="0x4"/>
    </TTGlyph>
    <TTGlyph name="Aacute" xMin="-23" yMin="-61" xMax="1092" yMax="1997">
      <component glyphName="A" x="0" y="0" flags="0x204"/>
      <component glyphName="acute" x="537" y="260" flags="0x4"/>
    </TTGlyph>
    <TTGlyph name="Abreve" xMin="-23" yMin="-61" xMax="1092" yMax="1973">
      <component glyphName="A" x="0" y="0" flags="0x204"/>
      <component glyphName="breve" x="276" y="285" flags="0x4"/>
    </TTGlyph>
    <TTGlyph name="Acircumflex" xMin="-23" yMin="-61" xMax="1092" yMax="1927">
      <component glyphName="A" x="0" y="0" flags="0x204"/>
      <component glyphName="circumflex" x="291" y="215" flags="0x4"/>
    </TTGlyph>
    <TTGlyph name="Adieresis" xMin="-23" yMin="-61" xMax="1092" yMax="1790">
      <component glyphName="A" x="0" y="0" flags="0x204"/>
      <component glyphName="dieresis" x="270" y="215" flags="0x4"/>
    </TTGlyph>
    <TTGlyph name="Agrave" xMin="-23" yMin="-61" xMax="1092" yMax="1999">
      <component glyphName="A" x="0" y="0" flags="0x204"/>
      <component glyphName="grave" x="176" y="262" flags="0x4"/>
    </TTGlyph>
    <TTGlyph name="Amacron" xMin="-23" yMin="-61" xMax="1092" yMax="1782">
      <component glyphName="A" x="0" y="0" flags="0x204"/>
      <component glyphName="macron" x="217" y="254" flags="0x4"/>
    </TTGlyph>
    <TTGlyph name="Aogonek" xMin="-23" yMin="-330" xMax="1100" yMax="1507">
      <contour>
        <pt x="1100" y="-225" on="1"/>
        <pt x="1100" y="-260" on="0"/>
        <pt x="1074" y="-299" on="0"/>
        <pt x="1057" y="-305" on="1"/>
        <pt x="1024" y="-317" on="1"/>
        <pt x="1016" y="-322" on="0"/>
        <pt x="1002" y="-330" on="0"/>
        <pt x="985" y="-330" on="1"/>
        <pt x="979" y="-330" on="0"/>
        <pt x="972" y="-329" on="0"/>
        <pt x="967" y="-326" on="1"/>
        <pt x="962" y="-326" on="0"/>
        <pt x="953" y="-328" on="0"/>
        <pt x="950" y="-328" on="1"/>
        <pt x="936" y="-328" on="1"/>
        <pt x="922" y="-328" on="0"/>
        <pt x="911" y="-322" on="0"/>
        <pt x="909" y="-317" on="1"/>
        <pt x="907" y="-315" on="1"/>
        <pt x="905" y="-311" on="0"/>
        <pt x="889" y="-306" on="0"/>
        <pt x="868" y="-296" on="0"/>
        <pt x="846" y="-279" on="0"/>
        <pt x="838" y="-264" on="1"/>
        <pt x="832" y="-250" on="0"/>
        <pt x="819" y="-240" on="1"/>
        <pt x="819" y="-213" on="1"/>
        <pt x="819" y="-208" on="0"/>
        <pt x="811" y="-196" on="0"/>
        <pt x="811" y="-186" on="1"/>
        <pt x="811" y="-177" on="0"/>
        <pt x="815" y="-161" on="0"/>
        <pt x="815" y="-150" on="1"/>
        <pt x="815" y="-146" on="0"/>
        <pt x="814" y="-137" on="0"/>
        <pt x="809" y="-131" on="1"/>
        <pt x="815" y="-124" on="0"/>
        <pt x="833" y="-97" on="0"/>
        <pt x="852" y="-64" on="0"/>
        <pt x="872" y="-29" on="0"/>
        <pt x="881" y="-14" on="1"/>
        <pt x="870" y="-9" on="0"/>
        <pt x="848" y="-2" on="0"/>
        <pt x="840" y="6" on="1"/>
        <pt x="840" y="16" on="1"/>
        <pt x="840" y="30" on="0"/>
        <pt x="822" y="52" on="0"/>
        <pt x="819" y="66" on="1"/>
        <pt x="813" y="93" on="0"/>
        <pt x="815" y="152" on="0"/>
        <pt x="815" y="180" on="1"/>
        <pt x="815" y="205" on="0"/>
        <pt x="805" y="253" on="0"/>
        <pt x="793" y="300" on="0"/>
        <pt x="784" y="347" on="0"/>
        <pt x="786" y="371" on="1"/>
        <pt x="743" y="376" on="0"/>
        <pt x="660" y="383" on="0"/>
        <pt x="616" y="383" on="1"/>
        <pt x="579" y="383" on="0"/>
        <pt x="504" y="376" on="0"/>
        <pt x="469" y="362" on="1"/>
        <pt x="450" y="373" on="0"/>
        <pt x="407" y="383" on="0"/>
        <pt x="385" y="383" on="1"/>
        <pt x="362" y="383" on="0"/>
        <pt x="344" y="377" on="1"/>
        <pt x="336" y="357" on="0"/>
        <pt x="336" y="317" on="0"/>
        <pt x="330" y="297" on="1"/>
        <pt x="328" y="288" on="0"/>
        <pt x="319" y="281" on="0"/>
        <pt x="317" y="276" on="1"/>
        <pt x="315" y="271" on="0"/>
        <pt x="317" y="260" on="0"/>
        <pt x="317" y="254" on="1"/>
        <pt x="317" y="248" on="0"/>
        <pt x="300" y="222" on="0"/>
        <pt x="297" y="211" on="1"/>
        <pt x="292" y="185" on="0"/>
        <pt x="291" y="126" on="0"/>
        <pt x="291" y="98" on="1"/>
        <pt x="291" y="92" on="0"/>
        <pt x="299" y="83" on="0"/>
        <pt x="299" y="78" on="1"/>
        <pt x="299" y="73" on="0"/>
        <pt x="269" y="30" on="0"/>
        <pt x="232" y="-19" on="0"/>
        <pt x="200" y="-58" on="0"/>
        <pt x="199" y="-59" on="1"/>
        <pt x="192" y="-61" on="0"/>
        <pt x="180" y="-61" on="0"/>
        <pt x="174" y="-61" on="1"/>
        <pt x="139" y="-61" on="0"/>
        <pt x="73" y="-28" on="0"/>
        <pt x="47" y="-6" on="1"/>
        <pt x="47" y="8" on="1"/>
        <pt x="47" y="34" on="0"/>
        <pt x="39" y="87" on="0"/>
        <pt x="33" y="113" on="1"/>
        <pt x="47" y="131" on="0"/>
        <pt x="55" y="169" on="0"/>
        <pt x="53" y="190" on="1"/>
        <pt x="62" y="200" on="0"/>
        <pt x="75" y="212" on="0"/>
        <pt x="83" y="224" on="0"/>
        <pt x="86" y="240" on="0"/>
        <pt x="86" y="254" on="1"/>
        <pt x="86" y="258" on="1"/>
        <pt x="100" y="270" on="1"/>
        <pt x="102" y="281" on="0"/>
        <pt x="98" y="300" on="0"/>
        <pt x="98" y="311" on="1"/>
        <pt x="98" y="319" on="0"/>
        <pt x="100" y="324" on="1"/>
        <pt x="113" y="336" on="1"/>
        <pt x="115" y="342" on="0"/>
        <pt x="113" y="353" on="0"/>
        <pt x="113" y="358" on="1"/>
        <pt x="113" y="363" on="0"/>
        <pt x="119" y="370" on="0"/>
        <pt x="127" y="378" on="0"/>
        <pt x="133" y="386" on="0"/>
        <pt x="133" y="391" on="1"/>
        <pt x="133" y="395" on="1"/>
        <pt x="92" y="401" on="0"/>
        <pt x="53" y="395" on="1"/>
        <pt x="40" y="404" on="0"/>
        <pt x="13" y="424" on="0"/>
        <pt x="-9" y="446" on="0"/>
        <pt x="-23" y="474" on="0"/>
        <pt x="-23" y="492" on="1"/>
        <pt x="-23" y="525" on="0"/>
        <pt x="3" y="559" on="0"/>
        <pt x="40" y="582" on="0"/>
        <pt x="83" y="602" on="0"/>
        <pt x="100" y="621" on="1"/>
        <pt x="152" y="621" on="1"/>
        <pt x="170" y="639" on="0"/>
        <pt x="197" y="682" on="0"/>
        <pt x="205" y="707" on="1"/>
        <pt x="208" y="716" on="0"/>
        <pt x="208" y="736" on="0"/>
        <pt x="211" y="745" on="1"/>
        <pt x="220" y="765" on="0"/>
        <pt x="250" y="798" on="0"/>
        <pt x="258" y="819" on="1"/>
        <pt x="263" y="835" on="0"/>
        <pt x="259" y="869" on="0"/>
        <pt x="264" y="885" on="1"/>
        <pt x="273" y="912" on="0"/>
        <pt x="295" y="954" on="0"/>
        <pt x="316" y="997" on="0"/>
        <pt x="330" y="1051" on="0"/>
        <pt x="330" y="1090" on="1"/>
        <pt x="330" y="1096" on="0"/>
        <pt x="324" y="1104" on="0"/>
        <pt x="324" y="1110" on="1"/>
        <pt x="324" y="1116" on="0"/>
        <pt x="341" y="1140" on="0"/>
        <pt x="344" y="1149" on="1"/>
        <pt x="347" y="1160" on="0"/>
        <pt x="342" y="1181" on="0"/>
        <pt x="342" y="1192" on="1"/>
        <pt x="342" y="1199" on="0"/>
        <pt x="364" y="1248" on="0"/>
        <pt x="394" y="1303" on="0"/>
        <pt x="426" y="1352" on="0"/>
        <pt x="436" y="1360" on="1"/>
        <pt x="437" y="1382" on="0"/>
        <pt x="451" y="1415" on="0"/>
        <pt x="469" y="1445" on="0"/>
        <pt x="489" y="1475" on="0"/>
        <pt x="496" y="1493" on="1"/>
        <pt x="510" y="1493" on="0"/>
        <pt x="516" y="1505" on="1"/>
        <pt x="518" y="1507" on="0"/>
        <pt x="522" y="1507" on="1"/>
        <pt x="538" y="1507" on="0"/>
        <pt x="578" y="1501" on="0"/>
        <pt x="604" y="1501" on="1"/>
        <pt x="627" y="1501" on="0"/>
        <pt x="670" y="1480" on="0"/>
        <pt x="688" y="1466" on="1"/>
        <pt x="705" y="1453" on="0"/>
        <pt x="736" y="1391" on="0"/>
        <pt x="764" y="1310" on="0"/>
        <pt x="789" y="1218" on="0"/>
        <pt x="811" y="1131" on="0"/>
        <pt x="831" y="1058" on="0"/>
        <pt x="840" y="1036" on="1"/>
        <pt x="845" y="1022" on="0"/>
        <pt x="861" y="999" on="0"/>
        <pt x="866" y="983" on="1"/>
        <pt x="869" y="969" on="0"/>
        <pt x="867" y="939" on="0"/>
        <pt x="872" y="924" on="1"/>
        <pt x="876" y="911" on="0"/>
        <pt x="888" y="891" on="0"/>
        <pt x="893" y="879" on="1"/>
        <pt x="901" y="848" on="0"/>
        <pt x="905" y="783" on="0"/>
        <pt x="918" y="754" on="1"/>
        <pt x="944" y="695" on="0"/>
        <pt x="977" y="573" on="0"/>
        <pt x="977" y="510" on="1"/>
        <pt x="977" y="496" on="0"/>
        <pt x="985" y="481" on="1"/>
        <pt x="985" y="473" on="0"/>
        <pt x="995" y="455" on="0"/>
        <pt x="1008" y="436" on="0"/>
        <pt x="1021" y="418" on="0"/>
        <pt x="1024" y="410" on="1"/>
        <pt x="1026" y="404" on="0"/>
        <pt x="1038" y="351" on="0"/>
        <pt x="1053" y="277" on="0"/>
        <pt x="1069" y="192" on="0"/>
        <pt x="1083" y="117" on="0"/>
        <pt x="1092" y="63" on="0"/>
        <pt x="1092" y="57" on="1"/>
        <pt x="1092" y="39" on="0"/>
        <pt x="1082" y="12" on="0"/>
        <pt x="1068" y="-10" on="0"/>
        <pt x="1051" y="-32" on="0"/>
        <pt x="1044" y="-47" on="1"/>
        <pt x="1030" y="-45" on="1"/>
        <pt x="1016" y="-45" on="1"/>
        <pt x="1004" y="-52" on="0"/>
        <pt x="979" y="-84" on="0"/>
        <pt x="960" y="-123" on="0"/>
        <pt x="948" y="-162" on="0"/>
        <pt x="948" y="-174" on="1"/>
        <pt x="948" y="-186" on="0"/>
        <pt x="961" y="-205" on="0"/>
        <pt x="975" y="-205" on="1"/>
        <pt x="983" y="-205" on="0"/>
        <pt x="1001" y="-193" on="0"/>
        <pt x="1008" y="-188" on="1"/>
        <pt x="1014" y="-182" on="1"/>
        <pt x="1031" y="-182" on="0"/>
        <pt x="1034" y="-176" on="1"/>
        <pt x="1049" y="-172" on="1"/>
        <pt x="1059" y="-172" on="0"/>
        <pt x="1078" y="-182" on="0"/>
        <pt x="1092" y="-198" on="0"/>
        <pt x="1100" y="-217" on="0"/>
      </contour>
      <contour>
        <pt x="727" y="600" on="1"/>
        <pt x="726" y="620" on="0"/>
        <pt x="714" y="658" on="0"/>
        <pt x="699" y="695" on="0"/>
        <pt x="684" y="734" on="0"/>
        <pt x="680" y="754" on="1"/>
        <pt x="677" y="775" on="0"/>
        <pt x="680" y="823" on="0"/>
        <pt x="674" y="846" on="1"/>
        <pt x="671" y="858" on="0"/>
        <pt x="664" y="868" on="0"/>
        <pt x="659" y="877" on="0"/>
        <pt x="655" y="892" on="0"/>
        <pt x="655" y="909" on="1"/>
        <pt x="655" y="918" on="0"/>
        <pt x="646" y="934" on="0"/>
        <pt x="636" y="950" on="0"/>
        <pt x="627" y="972" on="0"/>
        <pt x="627" y="987" on="1"/>
        <pt x="627" y="996" on="0"/>
        <pt x="633" y="1015" on="0"/>
        <pt x="635" y="1024" on="1"/>
        <pt x="616" y="1041" on="0"/>
        <pt x="591" y="1083" on="0"/>
        <pt x="575" y="1102" on="1"/>
        <pt x="568" y="1098" on="0"/>
        <pt x="564" y="1080" on="0"/>
        <pt x="564" y="1059" on="0"/>
        <pt x="564" y="1037" on="0"/>
        <pt x="561" y="1030" on="1"/>
        <pt x="558" y="1021" on="0"/>
        <pt x="541" y="1012" on="0"/>
        <pt x="535" y="1004" on="1"/>
        <pt x="530" y="996" on="0"/>
        <pt x="525" y="976" on="0"/>
        <pt x="516" y="971" on="1"/>
        <pt x="516" y="911" on="1"/>
        <pt x="493" y="884" on="0"/>
        <pt x="464" y="812" on="0"/>
        <pt x="445" y="734" on="0"/>
        <pt x="434" y="655" on="0"/>
        <pt x="430" y="621" on="1"/>
        <pt x="433" y="619" on="0"/>
        <pt x="441" y="618" on="0"/>
        <pt x="444" y="618" on="1"/>
        <pt x="461" y="618" on="0"/>
        <pt x="493" y="627" on="0"/>
        <pt x="510" y="627" on="1"/>
        <pt x="553" y="627" on="0"/>
        <pt x="594" y="621" on="1"/>
        <pt x="605" y="619" on="0"/>
        <pt x="622" y="608" on="0"/>
        <pt x="633" y="608" on="1"/>
        <pt x="638" y="608" on="0"/>
        <pt x="645" y="614" on="0"/>
        <pt x="653" y="614" on="1"/>
        <pt x="669" y="614" on="0"/>
        <pt x="697" y="596" on="0"/>
        <pt x="713" y="596" on="1"/>
        <pt x="719" y="596" on="0"/>
      </contour>
    </TTGlyph>
    <TTGlyph name="Aring" xMin="-23" yMin="-61" xMax="1092" yMax="1864">
      <contour>
        <pt x="831" y="1634" on="1"/>
        <pt x="831" y="1586" on="0"/>
        <pt x="821" y="1513" on="0"/>
        <pt x="798" y="1457" on="0"/>
        <pt x="759" y="1415" on="0"/>
        <pt x="731" y="1399" on="1"/>
        <pt x="749" y="1359" on="0"/>
        <pt x="779" y="1255" on="0"/>
        <pt x="806" y="1151" on="0"/>
        <pt x="830" y="1061" on="0"/>
        <pt x="840" y="1036" on="1"/>
        <pt x="845" y="1022" on="0"/>
        <pt x="861" y="999" on="0"/>
        <pt x="866" y="983" on="1"/>
        <pt x="869" y="969" on="0"/>
        <pt x="867" y="939" on="0"/>
        <pt x="872" y="924" on="1"/>
        <pt x="876" y="911" on="0"/>
        <pt x="888" y="891" on="0"/>
        <pt x="893" y="879" on="1"/>
        <pt x="901" y="848" on="0"/>
        <pt x="905" y="783" on="0"/>
        <pt x="918" y="754" on="1"/>
        <pt x="944" y="695" on="0"/>
        <pt x="977" y="573" on="0"/>
        <pt x="977" y="510" on="1"/>
        <pt x="977" y="496" on="0"/>
        <pt x="985" y="481" on="1"/>
        <pt x="985" y="473" on="0"/>
        <pt x="995" y="455" on="0"/>
        <pt x="1008" y="436" on="0"/>
        <pt x="1021" y="418" on="0"/>
        <pt x="1024" y="410" on="1"/>
        <pt x="1026" y="404" on="0"/>
        <pt x="1038" y="351" on="0"/>
        <pt x="1053" y="277" on="0"/>
        <pt x="1069" y="192" on="0"/>
        <pt x="1083" y="117" on="0"/>
        <pt x="1092" y="63" on="0"/>
        <pt x="1092" y="57" on="1"/>
        <pt x="1092" y="39" on="0"/>
        <pt x="1082" y="12" on="0"/>
        <pt x="1068" y="-10" on="0"/>
        <pt x="1051" y="-32" on="0"/>
        <pt x="1044" y="-47" on="1"/>
        <pt x="1030" y="-45" on="1"/>
        <pt x="1010" y="-45" on="0"/>
        <pt x="970" y="-51" on="0"/>
        <pt x="950" y="-51" on="1"/>
        <pt x="932" y="-51" on="0"/>
        <pt x="901" y="-39" on="0"/>
        <pt x="893" y="-20" on="1"/>
        <pt x="879" y="-12" on="0"/>
        <pt x="851" y="-5" on="0"/>
        <pt x="840" y="6" on="1"/>
        <pt x="840" y="16" on="1"/>
        <pt x="840" y="30" on="0"/>
        <pt x="822" y="52" on="0"/>
        <pt x="819" y="66" on="1"/>
        <pt x="813" y="93" on="0"/>
        <pt x="815" y="152" on="0"/>
        <pt x="815" y="180" on="1"/>
        <pt x="815" y="205" on="0"/>
        <pt x="805" y="253" on="0"/>
        <pt x="793" y="300" on="0"/>
        <pt x="784" y="347" on="0"/>
        <pt x="786" y="371" on="1"/>
        <pt x="743" y="376" on="0"/>
        <pt x="660" y="383" on="0"/>
        <pt x="616" y="383" on="1"/>
        <pt x="579" y="383" on="0"/>
        <pt x="504" y="376" on="0"/>
        <pt x="469" y="362" on="1"/>
        <pt x="450" y="373" on="0"/>
        <pt x="407" y="383" on="0"/>
        <pt x="385" y="383" on="1"/>
        <pt x="362" y="383" on="0"/>
        <pt x="344" y="377" on="1"/>
        <pt x="336" y="357" on="0"/>
        <pt x="336" y="317" on="0"/>
        <pt x="330" y="297" on="1"/>
        <pt x="328" y="288" on="0"/>
        <pt x="319" y="281" on="0"/>
        <pt x="317" y="276" on="1"/>
        <pt x="315" y="271" on="0"/>
        <pt x="317" y="260" on="0"/>
        <pt x="317" y="254" on="1"/>
        <pt x="317" y="248" on="0"/>
        <pt x="300" y="222" on="0"/>
        <pt x="297" y="211" on="1"/>
        <pt x="292" y="185" on="0"/>
        <pt x="291" y="126" on="0"/>
        <pt x="291" y="98" on="1"/>
        <pt x="291" y="92" on="0"/>
        <pt x="299" y="83" on="0"/>
        <pt x="299" y="78" on="1"/>
        <pt x="299" y="73" on="0"/>
        <pt x="269" y="30" on="0"/>
        <pt x="232" y="-19" on="0"/>
        <pt x="200" y="-58" on="0"/>
        <pt x="199" y="-59" on="1"/>
        <pt x="192" y="-61" on="0"/>
        <pt x="180" y="-61" on="0"/>
        <pt x="174" y="-61" on="1"/>
        <pt x="139" y="-61" on="0"/>
        <pt x="73" y="-28" on="0"/>
        <pt x="47" y="-6" on="1"/>
        <pt x="47" y="8" on="1"/>
        <pt x="47" y="34" on="0"/>
        <pt x="39" y="87" on="0"/>
        <pt x="33" y="113" on="1"/>
        <pt x="47" y="131" on="0"/>
        <pt x="55" y="169" on="0"/>
        <pt x="53" y="190" on="1"/>
        <pt x="62" y="200" on="0"/>
        <pt x="75" y="212" on="0"/>
        <pt x="83" y="224" on="0"/>
        <pt x="86" y="240" on="0"/>
        <pt x="86" y="254" on="1"/>
        <pt x="86" y="258" on="1"/>
        <pt x="100" y="270" on="1"/>
        <pt x="102" y="281" on="0"/>
        <pt x="98" y="300" on="0"/>
        <pt x="98" y="311" on="1"/>
        <pt x="98" y="319" on="0"/>
        <pt x="100" y="324" on="1"/>
        <pt x="113" y="336" on="1"/>
        <pt x="115" y="342" on="0"/>
        <pt x="113" y="353" on="0"/>
        <pt x="113" y="358" on="1"/>
        <pt x="113" y="363" on="0"/>
        <pt x="119" y="370" on="0"/>
        <pt x="127" y="378" on="0"/>
        <pt x="133" y="386" on="0"/>
        <pt x="133" y="391" on="1"/>
        <pt x="133" y="395" on="1"/>
        <pt x="92" y="401" on="0"/>
        <pt x="53" y="395" on="1"/>
        <pt x="40" y="404" on="0"/>
        <pt x="13" y="424" on="0"/>
        <pt x="-9" y="446" on="0"/>
        <pt x="-23" y="474" on="0"/>
        <pt x="-23" y="492" on="1"/>
        <pt x="-23" y="525" on="0"/>
        <pt x="3" y="559" on="0"/>
        <pt x="40" y="582" on="0"/>
        <pt x="83" y="602" on="0"/>
        <pt x="100" y="621" on="1"/>
        <pt x="152" y="621" on="1"/>
        <pt x="170" y="639" on="0"/>
        <pt x="197" y="682" on="0"/>
        <pt x="205" y="707" on="1"/>
        <pt x="208" y="716" on="0"/>
        <pt x="208" y="736" on="0"/>
        <pt x="211" y="745" on="1"/>
        <pt x="220" y="765" on="0"/>
        <pt x="250" y="798" on="0"/>
        <pt x="258" y="819" on="1"/>
        <pt x="263" y="835" on="0"/>
        <pt x="259" y="869" on="0"/>
        <pt x="264" y="885" on="1"/>
        <pt x="273" y="912" on="0"/>
        <pt x="295" y="954" on="0"/>
        <pt x="316" y="997" on="0"/>
        <pt x="330" y="1051" on="0"/>
        <pt x="330" y="1090" on="1"/>
        <pt x="330" y="1096" on="0"/>
        <pt x="324" y="1104" on="0"/>
        <pt x="324" y="1110" on="1"/>
        <pt x="324" y="1116" on="0"/>
        <pt x="341" y="1140" on="0"/>
        <pt x="344" y="1149" on="1"/>
        <pt x="347" y="1160" on="0"/>
        <pt x="342" y="1181" on="0"/>
        <pt x="342" y="1192" on="1"/>
        <pt x="342" y="1199" on="0"/>
        <pt x="364" y="1248" on="0"/>
        <pt x="394" y="1303" on="0"/>
        <pt x="426" y="1352" on="0"/>
        <pt x="436" y="1360" on="1"/>
        <pt x="436" y="1366" on="0"/>
        <pt x="438" y="1378" on="0"/>
        <pt x="440" y="1384" on="1"/>
        <pt x="425" y="1406" on="0"/>
        <pt x="382" y="1436" on="0"/>
        <pt x="367" y="1454" on="1"/>
        <pt x="354" y="1501" on="0"/>
        <pt x="334" y="1588" on="0"/>
        <pt x="334" y="1636" on="1"/>
        <pt x="334" y="1669" on="0"/>
        <pt x="340" y="1704" on="1"/>
        <pt x="350" y="1714" on="0"/>
        <pt x="377" y="1749" on="0"/>
        <pt x="406" y="1784" on="0"/>
        <pt x="433" y="1813" on="0"/>
        <pt x="444" y="1817" on="1"/>
        <pt x="463" y="1825" on="0"/>
        <pt x="500" y="1831" on="0"/>
        <pt x="518" y="1837" on="1"/>
        <pt x="530" y="1849" on="1"/>
        <pt x="541" y="1852" on="0"/>
        <pt x="577" y="1864" on="0"/>
        <pt x="588" y="1864" on="1"/>
        <pt x="590" y="1864" on="0"/>
        <pt x="607" y="1859" on="0"/>
        <pt x="627" y="1851" on="0"/>
        <pt x="645" y="1844" on="0"/>
        <pt x="649" y="1843" on="1"/>
        <pt x="689" y="1831" on="0"/>
        <pt x="730" y="1816" on="0"/>
        <pt x="755" y="1794" on="0"/>
        <pt x="775" y="1757" on="0"/>
        <pt x="795" y="1724" on="1"/>
        <pt x="799" y="1716" on="0"/>
        <pt x="812" y="1694" on="0"/>
        <pt x="823" y="1668" on="0"/>
        <pt x="831" y="1643" on="0"/>
      </contour>
      <contour>
        <pt x="727" y="600" on="1"/>
        <pt x="726" y="620" on="0"/>
        <pt x="714" y="658" on="0"/>
        <pt x="699" y="695" on="0"/>
        <pt x="684" y="734" on="0"/>
        <pt x="680" y="754" on="1"/>
        <pt x="677" y="775" on="0"/>
        <pt x="680" y="823" on="0"/>
        <pt x="674" y="846" on="1"/>
        <pt x="671" y="858" on="0"/>
        <pt x="664" y="868" on="0"/>
        <pt x="659" y="877" on="0"/>
        <pt x="655" y="892" on="0"/>
        <pt x="655" y="909" on="1"/>
        <pt x="655" y="918" on="0"/>
        <pt x="646" y="934" on="0"/>
        <pt x="636" y="950" on="0"/>
        <pt x="627" y="972" on="0"/>
        <pt x="627" y="987" on="1"/>
        <pt x="627" y="996" on="0"/>
        <pt x="633" y="1015" on="0"/>
        <pt x="635" y="1024" on="1"/>
        <pt x="616" y="1041" on="0"/>
        <pt x="591" y="1083" on="0"/>
        <pt x="575" y="1102" on="1"/>
        <pt x="568" y="1098" on="0"/>
        <pt x="564" y="1080" on="0"/>
        <pt x="564" y="1059" on="0"/>
        <pt x="564" y="1037" on="0"/>
        <pt x="561" y="1030" on="1"/>
        <pt x="558" y="1021" on="0"/>
        <pt x="541" y="1012" on="0"/>
        <pt x="535" y="1004" on="1"/>
        <pt x="530" y="996" on="0"/>
        <pt x="525" y="976" on="0"/>
        <pt x="516" y="971" on="1"/>
        <pt x="516" y="911" on="1"/>
        <pt x="493" y="884" on="0"/>
        <pt x="464" y="812" on="0"/>
        <pt x="445" y="734" on="0"/>
        <pt x="434" y="655" on="0"/>
        <pt x="430" y="621" on="1"/>
        <pt x="433" y="619" on="0"/>
        <pt x="441" y="618" on="0"/>
        <pt x="444" y="618" on="1"/>
        <pt x="461" y="618" on="0"/>
        <pt x="493" y="627" on="0"/>
        <pt x="510" y="627" on="1"/>
        <pt x="553" y="627" on="0"/>
        <pt x="594" y="621" on="1"/>
        <pt x="605" y="619" on="0"/>
        <pt x="622" y="608" on="0"/>
        <pt x="633" y="608" on="1"/>
        <pt x="638" y="608" on="0"/>
        <pt x="645" y="614" on="0"/>
        <pt x="653" y="614" on="1"/>
        <pt x="669" y="614" on="0"/>
        <pt x="697" y="596" on="0"/>
        <pt x="713" y="596" on="1"/>
        <pt x="719" y="596" on="0"/>
      </contour>
      <contour>
        <pt x="657" y="1638" on="1"/>
        <pt x="657" y="1653" on="0"/>
        <pt x="638" y="1674" on="0"/>
        <pt x="611" y="1687" on="0"/>
        <pt x="579" y="1694" on="0"/>
        <pt x="567" y="1694" on="1"/>
        <pt x="540" y="1694" on="0"/>
        <pt x="510" y="1672" on="0"/>
        <pt x="495" y="1637" on="0"/>
        <pt x="489" y="1594" on="0"/>
        <pt x="485" y="1573" on="1"/>
        <pt x="499" y="1553" on="0"/>
        <pt x="543" y="1522" on="0"/>
        <pt x="569" y="1522" on="1"/>
        <pt x="595" y="1522" on="0"/>
        <pt x="621" y="1545" on="0"/>
        <pt x="631" y="1567" on="1"/>
        <pt x="643" y="1573" on="1"/>
        <pt x="649" y="1584" on="0"/>
        <pt x="657" y="1626" on="0"/>
      </contour>
    </TTGlyph>
    <TTGlyph name="Atilde" xMin="-23" yMin="-61" xMax="1092" yMax="1942">
      <component glyphName="A" x="0" y="0" flags="0x204"/>
      <component glyphName="tilde" x="223" y="250" flags="0x4"/>
    </TTGlyph>
    <TTGlyph name="B" xMin="109" yMin="-127" xMax="1100" yMax="1538">
      <contour>
        <pt x="1100" y="399" on="1"/>
        <pt x="1100" y="373" on="0"/>
        <pt x="1079" y="308" on="0"/>
        <pt x="1059" y="291" on="1"/>
        <pt x="1061" y="287" on="0"/>
        <pt x="1061" y="279" on="1"/>
        <pt x="1061" y="263" on="0"/>
        <pt x="1050" y="238" on="0"/>
        <pt x="1047" y="225" on="1"/>
        <pt x="1036" y="187" on="0"/>
        <pt x="996" y="115" on="0"/>
        <pt x="942" y="53" on="0"/>
        <pt x="877" y="3" on="0"/>
        <pt x="842" y="-14" on="1"/>
        <pt x="835" y="-17" on="0"/>
        <pt x="827" y="-28" on="0"/>
        <pt x="819" y="-40" on="0"/>
        <pt x="810" y="-50" on="0"/>
        <pt x="803" y="-53" on="1"/>
        <pt x="763" y="-67" on="0"/>
        <pt x="683" y="-92" on="0"/>
        <pt x="643" y="-106" on="1"/>
        <pt x="637" y="-108" on="0"/>
        <pt x="623" y="-110" on="0"/>
        <pt x="616" y="-113" on="1"/>
        <pt x="613" y="-116" on="0"/>
        <pt x="608" y="-127" on="0"/>
        <pt x="602" y="-127" on="1"/>
        <pt x="574" y="-127" on="0"/>
        <pt x="495" y="-123" on="0"/>
        <pt x="411" y="-115" on="0"/>
        <pt x="333" y="-104" on="0"/>
        <pt x="307" y="-98" on="1"/>
        <pt x="293" y="-86" on="1"/>
        <pt x="281" y="-92" on="1"/>
        <pt x="254" y="-88" on="0"/>
        <pt x="218" y="-77" on="0"/>
        <pt x="192" y="-58" on="0"/>
        <pt x="175" y="-26" on="0"/>
        <pt x="168" y="0" on="1"/>
        <pt x="165" y="9" on="0"/>
        <pt x="165" y="30" on="0"/>
        <pt x="162" y="39" on="1"/>
        <pt x="156" y="54" on="0"/>
        <pt x="151" y="71" on="0"/>
        <pt x="150" y="87" on="0"/>
        <pt x="150" y="106" on="0"/>
        <pt x="150" y="121" on="1"/>
        <pt x="150" y="143" on="0"/>
        <pt x="135" y="183" on="0"/>
        <pt x="135" y="205" on="1"/>
        <pt x="135" y="231" on="0"/>
        <pt x="150" y="281" on="0"/>
        <pt x="150" y="309" on="1"/>
        <pt x="150" y="326" on="0"/>
        <pt x="135" y="355" on="0"/>
        <pt x="135" y="371" on="1"/>
        <pt x="135" y="383" on="0"/>
        <pt x="141" y="405" on="0"/>
        <pt x="141" y="418" on="1"/>
        <pt x="141" y="438" on="0"/>
        <pt x="127" y="483" on="0"/>
        <pt x="121" y="502" on="1"/>
        <pt x="132" y="523" on="0"/>
        <pt x="139" y="571" on="0"/>
        <pt x="139" y="596" on="1"/>
        <pt x="139" y="649" on="0"/>
        <pt x="121" y="752" on="0"/>
        <pt x="121" y="805" on="1"/>
        <pt x="121" y="831" on="0"/>
        <pt x="135" y="879" on="0"/>
        <pt x="135" y="905" on="1"/>
        <pt x="135" y="953" on="0"/>
        <pt x="117" y="1037" on="0"/>
        <pt x="109" y="1083" on="1"/>
        <pt x="115" y="1100" on="0"/>
        <pt x="135" y="1135" on="0"/>
        <pt x="135" y="1155" on="1"/>
        <pt x="135" y="1160" on="0"/>
        <pt x="131" y="1171" on="0"/>
        <pt x="129" y="1176" on="1"/>
        <pt x="129" y="1182" on="0"/>
        <pt x="135" y="1192" on="0"/>
        <pt x="135" y="1198" on="1"/>
        <pt x="135" y="1221" on="0"/>
        <pt x="115" y="1264" on="0"/>
        <pt x="115" y="1290" on="1"/>
        <pt x="115" y="1303" on="0"/>
        <pt x="120" y="1340" on="0"/>
        <pt x="127" y="1378" on="0"/>
        <pt x="136" y="1413" on="0"/>
        <pt x="141" y="1425" on="1"/>
        <pt x="148" y="1439" on="0"/>
        <pt x="165" y="1451" on="0"/>
        <pt x="174" y="1460" on="1"/>
        <pt x="180" y="1473" on="1"/>
        <pt x="195" y="1480" on="0"/>
        <pt x="237" y="1490" on="0"/>
        <pt x="284" y="1496" on="0"/>
        <pt x="329" y="1501" on="0"/>
        <pt x="346" y="1505" on="1"/>
        <pt x="366" y="1510" on="0"/>
        <pt x="404" y="1529" on="0"/>
        <pt x="426" y="1532" on="1"/>
        <pt x="440" y="1534" on="0"/>
        <pt x="470" y="1532" on="0"/>
        <pt x="485" y="1532" on="1"/>
        <pt x="495" y="1532" on="0"/>
        <pt x="512" y="1532" on="0"/>
        <pt x="518" y="1538" on="1"/>
        <pt x="521" y="1538" on="0"/>
        <pt x="556" y="1533" on="0"/>
        <pt x="605" y="1524" on="0"/>
        <pt x="661" y="1513" on="0"/>
        <pt x="711" y="1503" on="0"/>
        <pt x="746" y="1494" on="0"/>
        <pt x="750" y="1493" on="1"/>
        <pt x="774" y="1481" on="0"/>
        <pt x="813" y="1441" on="0"/>
        <pt x="836" y="1425" on="1"/>
        <pt x="852" y="1414" on="0"/>
        <pt x="891" y="1393" on="0"/>
        <pt x="925" y="1366" on="0"/>
        <pt x="948" y="1331" on="0"/>
        <pt x="948" y="1307" on="1"/>
        <pt x="953" y="1294" on="0"/>
        <pt x="978" y="1283" on="0"/>
        <pt x="987" y="1274" on="1"/>
        <pt x="992" y="1266" on="0"/>
        <pt x="1000" y="1249" on="0"/>
        <pt x="1008" y="1241" on="1"/>
        <pt x="1017" y="1209" on="0"/>
        <pt x="1028" y="1148" on="0"/>
        <pt x="1028" y="1114" on="1"/>
        <pt x="1028" y="1101" on="0"/>
        <pt x="1023" y="1053" on="0"/>
        <pt x="1013" y="996" on="0"/>
        <pt x="1000" y="934" on="0"/>
        <pt x="985" y="879" on="0"/>
        <pt x="969" y="835" on="0"/>
        <pt x="961" y="825" on="1"/>
        <pt x="957" y="820" on="0"/>
        <pt x="945" y="818" on="0"/>
        <pt x="940" y="813" on="1"/>
        <pt x="921" y="792" on="0"/>
        <pt x="905" y="776" on="0"/>
        <pt x="893" y="768" on="0"/>
        <pt x="875" y="760" on="0"/>
        <pt x="854" y="745" on="1"/>
        <pt x="857" y="727" on="0"/>
        <pt x="886" y="713" on="0"/>
        <pt x="901" y="707" on="1"/>
        <pt x="902" y="697" on="0"/>
        <pt x="915" y="687" on="0"/>
        <pt x="931" y="682" on="0"/>
        <pt x="948" y="678" on="0"/>
        <pt x="954" y="674" on="1"/>
        <pt x="955" y="660" on="0"/>
        <pt x="970" y="648" on="0"/>
        <pt x="985" y="640" on="0"/>
        <pt x="995" y="631" on="0"/>
        <pt x="993" y="621" on="1"/>
        <pt x="1002" y="619" on="0"/>
        <pt x="1015" y="608" on="0"/>
        <pt x="1026" y="596" on="0"/>
        <pt x="1038" y="584" on="0"/>
        <pt x="1047" y="582" on="1"/>
        <pt x="1047" y="571" on="1"/>
        <pt x="1045" y="556" on="0"/>
        <pt x="1054" y="535" on="0"/>
        <pt x="1066" y="515" on="0"/>
        <pt x="1077" y="490" on="0"/>
        <pt x="1077" y="471" on="1"/>
        <pt x="1077" y="466" on="0"/>
        <pt x="1077" y="460" on="0"/>
        <pt x="1079" y="455" on="1"/>
        <pt x="1092" y="444" on="0"/>
        <pt x="1100" y="413" on="0"/>
      </contour>
      <contour>
        <pt x="815" y="1034" on="1"/>
        <pt x="815" y="1040" on="0"/>
        <pt x="805" y="1055" on="0"/>
        <pt x="803" y="1063" on="1"/>
        <pt x="800" y="1072" on="0"/>
        <pt x="803" y="1091" on="0"/>
        <pt x="803" y="1102" on="1"/>
        <pt x="803" y="1103" on="0"/>
        <pt x="791" y="1124" on="0"/>
        <pt x="777" y="1148" on="0"/>
        <pt x="763" y="1168" on="0"/>
        <pt x="762" y="1169" on="1"/>
        <pt x="764" y="1178" on="1"/>
        <pt x="764" y="1188" on="0"/>
        <pt x="748" y="1218" on="0"/>
        <pt x="726" y="1247" on="0"/>
        <pt x="700" y="1270" on="0"/>
        <pt x="690" y="1274" on="1"/>
        <pt x="679" y="1280" on="0"/>
        <pt x="656" y="1278" on="0"/>
        <pt x="645" y="1278" on="1"/>
        <pt x="630" y="1278" on="0"/>
        <pt x="601" y="1287" on="0"/>
        <pt x="573" y="1298" on="0"/>
        <pt x="545" y="1307" on="0"/>
        <pt x="530" y="1307" on="1"/>
        <pt x="519" y="1307" on="0"/>
        <pt x="505" y="1294" on="0"/>
        <pt x="489" y="1294" on="1"/>
        <pt x="478" y="1294" on="0"/>
        <pt x="457" y="1300" on="0"/>
        <pt x="444" y="1300" on="1"/>
        <pt x="436" y="1293" on="0"/>
        <pt x="413" y="1287" on="0"/>
        <pt x="388" y="1284" on="0"/>
        <pt x="363" y="1279" on="0"/>
        <pt x="352" y="1274" on="1"/>
        <pt x="347" y="1212" on="0"/>
        <pt x="342" y="1090" on="0"/>
        <pt x="342" y="1028" on="1"/>
        <pt x="342" y="965" on="0"/>
        <pt x="346" y="837" on="0"/>
        <pt x="346" y="772" on="1"/>
        <pt x="351" y="770" on="0"/>
        <pt x="360" y="770" on="0"/>
        <pt x="365" y="770" on="1"/>
        <pt x="390" y="770" on="0"/>
        <pt x="438" y="784" on="0"/>
        <pt x="473" y="784" on="1"/>
        <pt x="481" y="784" on="0"/>
        <pt x="485" y="786" on="1"/>
        <pt x="504" y="791" on="0"/>
        <pt x="538" y="819" on="0"/>
        <pt x="557" y="825" on="1"/>
        <pt x="576" y="832" on="0"/>
        <pt x="612" y="831" on="0"/>
        <pt x="631" y="838" on="1"/>
        <pt x="640" y="842" on="0"/>
        <pt x="655" y="854" on="0"/>
        <pt x="670" y="867" on="0"/>
        <pt x="686" y="877" on="0"/>
        <pt x="696" y="879" on="1"/>
        <pt x="710" y="893" on="0"/>
        <pt x="742" y="914" on="0"/>
        <pt x="762" y="918" on="1"/>
        <pt x="771" y="929" on="0"/>
        <pt x="770" y="954" on="0"/>
        <pt x="776" y="965" on="1"/>
        <pt x="779" y="971" on="0"/>
        <pt x="800" y="972" on="0"/>
        <pt x="803" y="977" on="1"/>
        <pt x="805" y="982" on="0"/>
        <pt x="801" y="990" on="0"/>
        <pt x="801" y="993" on="1"/>
        <pt x="801" y="1001" on="0"/>
        <pt x="815" y="1020" on="0"/>
      </contour>
      <contour>
        <pt x="881" y="377" on="1"/>
        <pt x="872" y="384" on="0"/>
        <pt x="866" y="402" on="0"/>
        <pt x="866" y="421" on="0"/>
        <pt x="866" y="437" on="0"/>
        <pt x="862" y="442" on="1"/>
        <pt x="853" y="452" on="0"/>
        <pt x="842" y="464" on="0"/>
        <pt x="836" y="475" on="1"/>
        <pt x="834" y="477" on="0"/>
        <pt x="812" y="486" on="0"/>
        <pt x="809" y="489" on="1"/>
        <pt x="804" y="492" on="0"/>
        <pt x="786" y="508" on="0"/>
        <pt x="765" y="524" on="0"/>
        <pt x="747" y="539" on="0"/>
        <pt x="743" y="541" on="1"/>
        <pt x="734" y="547" on="0"/>
        <pt x="703" y="544" on="0"/>
        <pt x="690" y="549" on="1"/>
        <pt x="681" y="559" on="0"/>
        <pt x="649" y="573" on="0"/>
        <pt x="613" y="583" on="0"/>
        <pt x="577" y="588" on="0"/>
        <pt x="563" y="588" on="1"/>
        <pt x="552" y="588" on="0"/>
        <pt x="497" y="585" on="0"/>
        <pt x="435" y="581" on="0"/>
        <pt x="381" y="576" on="0"/>
        <pt x="373" y="573" on="1"/>
        <pt x="365" y="538" on="0"/>
        <pt x="358" y="465" on="0"/>
        <pt x="358" y="430" on="1"/>
        <pt x="358" y="370" on="0"/>
        <pt x="371" y="250" on="0"/>
        <pt x="379" y="190" on="1"/>
        <pt x="374" y="182" on="0"/>
        <pt x="369" y="167" on="0"/>
        <pt x="369" y="156" on="1"/>
        <pt x="369" y="146" on="0"/>
        <pt x="371" y="128" on="0"/>
        <pt x="373" y="119" on="1"/>
        <pt x="390" y="111" on="0"/>
        <pt x="428" y="106" on="0"/>
        <pt x="446" y="106" on="1"/>
        <pt x="471" y="106" on="0"/>
        <pt x="520" y="112" on="0"/>
        <pt x="570" y="118" on="0"/>
        <pt x="619" y="121" on="0"/>
        <pt x="643" y="119" on="1"/>
        <pt x="647" y="126" on="0"/>
        <pt x="661" y="133" on="0"/>
        <pt x="675" y="137" on="0"/>
        <pt x="690" y="141" on="0"/>
        <pt x="696" y="145" on="1"/>
        <pt x="709" y="153" on="0"/>
        <pt x="726" y="175" on="0"/>
        <pt x="735" y="184" on="1"/>
        <pt x="782" y="184" on="1"/>
        <pt x="796" y="204" on="0"/>
        <pt x="831" y="241" on="0"/>
        <pt x="848" y="258" on="1"/>
        <pt x="856" y="272" on="0"/>
        <pt x="857" y="302" on="0"/>
        <pt x="862" y="317" on="1"/>
        <pt x="867" y="333" on="0"/>
        <pt x="881" y="360" on="0"/>
      </contour>
    </TTGlyph>
    <TTGlyph name="C" xMin="72" yMin="-98" xMax="1214" yMax="1538">
      <contour>
        <pt x="1214" y="315" on="1"/>
        <pt x="1214" y="293" on="0"/>
        <pt x="1199" y="244" on="0"/>
        <pt x="1172" y="199" on="0"/>
        <pt x="1137" y="162" on="0"/>
        <pt x="1116" y="152" on="1"/>
        <pt x="1105" y="124" on="0"/>
        <pt x="1064" y="78" on="0"/>
        <pt x="1049" y="53" on="1"/>
        <pt x="1027" y="44" on="0"/>
        <pt x="990" y="15" on="0"/>
        <pt x="954" y="-16" on="0"/>
        <pt x="918" y="-45" on="0"/>
        <pt x="897" y="-53" on="1"/>
        <pt x="885" y="-58" on="0"/>
        <pt x="858" y="-56" on="0"/>
        <pt x="844" y="-59" on="1"/>
        <pt x="830" y="-63" on="0"/>
        <pt x="802" y="-76" on="0"/>
        <pt x="774" y="-89" on="0"/>
        <pt x="746" y="-98" on="0"/>
        <pt x="731" y="-98" on="1"/>
        <pt x="716" y="-98" on="0"/>
        <pt x="689" y="-86" on="0"/>
        <pt x="672" y="-86" on="1"/>
        <pt x="658" y="-86" on="0"/>
        <pt x="632" y="-92" on="0"/>
        <pt x="616" y="-92" on="1"/>
        <pt x="604" y="-92" on="0"/>
        <pt x="573" y="-85" on="0"/>
        <pt x="543" y="-73" on="0"/>
        <pt x="516" y="-56" on="0"/>
        <pt x="508" y="-47" on="1"/>
        <pt x="496" y="-47" on="1"/>
        <pt x="470" y="-48" on="0"/>
        <pt x="434" y="-29" on="0"/>
        <pt x="401" y="-5" on="0"/>
        <pt x="367" y="17" on="0"/>
        <pt x="342" y="20" on="1"/>
        <pt x="336" y="45" on="0"/>
        <pt x="298" y="69" on="0"/>
        <pt x="276" y="80" on="1"/>
        <pt x="271" y="89" on="0"/>
        <pt x="264" y="108" on="0"/>
        <pt x="264" y="119" on="1"/>
        <pt x="249" y="123" on="0"/>
        <pt x="226" y="142" on="0"/>
        <pt x="207" y="165" on="0"/>
        <pt x="189" y="189" on="0"/>
        <pt x="178" y="199" on="1"/>
        <pt x="178" y="204" on="0"/>
        <pt x="180" y="213" on="0"/>
        <pt x="180" y="219" on="1"/>
        <pt x="180" y="233" on="0"/>
        <pt x="168" y="252" on="0"/>
        <pt x="152" y="268" on="0"/>
        <pt x="135" y="285" on="0"/>
        <pt x="131" y="297" on="1"/>
        <pt x="126" y="308" on="0"/>
        <pt x="123" y="337" on="0"/>
        <pt x="122" y="367" on="0"/>
        <pt x="121" y="398" on="0"/>
        <pt x="119" y="410" on="1"/>
        <pt x="114" y="425" on="0"/>
        <pt x="95" y="454" on="0"/>
        <pt x="92" y="469" on="1"/>
        <pt x="87" y="485" on="0"/>
        <pt x="85" y="525" on="0"/>
        <pt x="86" y="566" on="0"/>
        <pt x="88" y="607" on="0"/>
        <pt x="88" y="625" on="1"/>
        <pt x="88" y="654" on="0"/>
        <pt x="72" y="711" on="0"/>
        <pt x="72" y="739" on="1"/>
        <pt x="72" y="762" on="0"/>
        <pt x="84" y="824" on="0"/>
        <pt x="92" y="846" on="1"/>
        <pt x="94" y="852" on="0"/>
        <pt x="102" y="864" on="0"/>
        <pt x="104" y="872" on="1"/>
        <pt x="109" y="892" on="0"/>
        <pt x="107" y="937" on="0"/>
        <pt x="111" y="958" on="1"/>
        <pt x="114" y="977" on="0"/>
        <pt x="129" y="1012" on="0"/>
        <pt x="131" y="1030" on="1"/>
        <pt x="134" y="1056" on="0"/>
        <pt x="134" y="1111" on="0"/>
        <pt x="143" y="1137" on="1"/>
        <pt x="153" y="1158" on="0"/>
        <pt x="190" y="1193" on="0"/>
        <pt x="197" y="1208" on="1"/>
        <pt x="208" y="1234" on="0"/>
        <pt x="236" y="1286" on="0"/>
        <pt x="238" y="1315" on="1"/>
        <pt x="258" y="1333" on="0"/>
        <pt x="320" y="1373" on="0"/>
        <pt x="383" y="1414" on="0"/>
        <pt x="437" y="1457" on="0"/>
        <pt x="449" y="1479" on="1"/>
        <pt x="457" y="1479" on="1"/>
        <pt x="460" y="1479" on="0"/>
        <pt x="504" y="1494" on="0"/>
        <pt x="556" y="1513" on="0"/>
        <pt x="601" y="1530" on="0"/>
        <pt x="606" y="1532" on="1"/>
        <pt x="606" y="1535" on="0"/>
        <pt x="610" y="1538" on="0"/>
        <pt x="612" y="1538" on="1"/>
        <pt x="629" y="1538" on="0"/>
        <pt x="695" y="1536" on="0"/>
        <pt x="766" y="1533" on="0"/>
        <pt x="829" y="1528" on="0"/>
        <pt x="844" y="1526" on="1"/>
        <pt x="857" y="1524" on="0"/>
        <pt x="882" y="1512" on="0"/>
        <pt x="906" y="1501" on="0"/>
        <pt x="931" y="1492" on="0"/>
        <pt x="944" y="1493" on="1"/>
        <pt x="960" y="1473" on="0"/>
        <pt x="994" y="1458" on="0"/>
        <pt x="1016" y="1446" on="1"/>
        <pt x="1024" y="1441" on="0"/>
        <pt x="1052" y="1409" on="0"/>
        <pt x="1063" y="1401" on="1"/>
        <pt x="1074" y="1392" on="0"/>
        <pt x="1108" y="1378" on="0"/>
        <pt x="1116" y="1366" on="1"/>
        <pt x="1122" y="1357" on="0"/>
        <pt x="1135" y="1327" on="0"/>
        <pt x="1145" y="1294" on="0"/>
        <pt x="1151" y="1263" on="0"/>
        <pt x="1151" y="1251" on="1"/>
        <pt x="1151" y="1229" on="0"/>
        <pt x="1136" y="1183" on="0"/>
        <pt x="1108" y="1146" on="0"/>
        <pt x="1067" y="1122" on="0"/>
        <pt x="1042" y="1122" on="1"/>
        <pt x="1017" y="1122" on="0"/>
        <pt x="985" y="1138" on="0"/>
        <pt x="962" y="1163" on="0"/>
        <pt x="942" y="1196" on="0"/>
        <pt x="930" y="1214" on="1"/>
        <pt x="922" y="1227" on="0"/>
        <pt x="900" y="1239" on="0"/>
        <pt x="891" y="1247" on="1"/>
        <pt x="882" y="1257" on="0"/>
        <pt x="869" y="1276" on="0"/>
        <pt x="858" y="1282" on="1"/>
        <pt x="849" y="1286" on="0"/>
        <pt x="816" y="1291" on="0"/>
        <pt x="779" y="1294" on="0"/>
        <pt x="743" y="1298" on="0"/>
        <pt x="731" y="1300" on="1"/>
        <pt x="720" y="1304" on="0"/>
        <pt x="699" y="1311" on="0"/>
        <pt x="688" y="1311" on="1"/>
        <pt x="682" y="1311" on="0"/>
        <pt x="672" y="1309" on="0"/>
        <pt x="666" y="1307" on="1"/>
        <pt x="658" y="1299" on="0"/>
        <pt x="649" y="1303" on="0"/>
        <pt x="641" y="1303" on="1"/>
        <pt x="629" y="1303" on="0"/>
        <pt x="606" y="1288" on="0"/>
        <pt x="584" y="1288" on="1"/>
        <pt x="580" y="1288" on="1"/>
        <pt x="571" y="1274" on="0"/>
        <pt x="541" y="1256" on="0"/>
        <pt x="508" y="1240" on="0"/>
        <pt x="477" y="1222" on="0"/>
        <pt x="467" y="1208" on="1"/>
        <pt x="462" y="1200" on="0"/>
        <pt x="460" y="1184" on="0"/>
        <pt x="455" y="1176" on="1"/>
        <pt x="441" y="1154" on="0"/>
        <pt x="408" y="1113" on="0"/>
        <pt x="395" y="1090" on="1"/>
        <pt x="383" y="1067" on="0"/>
        <pt x="359" y="1024" on="0"/>
        <pt x="342" y="1004" on="1"/>
        <pt x="344" y="997" on="0"/>
        <pt x="344" y="985" on="0"/>
        <pt x="344" y="979" on="1"/>
        <pt x="344" y="958" on="0"/>
        <pt x="336" y="925" on="0"/>
        <pt x="325" y="891" on="0"/>
        <pt x="317" y="849" on="0"/>
        <pt x="317" y="821" on="1"/>
        <pt x="317" y="804" on="0"/>
        <pt x="303" y="782" on="0"/>
        <pt x="303" y="770" on="1"/>
        <pt x="303" y="758" on="0"/>
        <pt x="306" y="705" on="0"/>
        <pt x="312" y="648" on="0"/>
        <pt x="320" y="598" on="0"/>
        <pt x="324" y="588" on="1"/>
        <pt x="326" y="580" on="0"/>
        <pt x="334" y="569" on="0"/>
        <pt x="336" y="561" on="1"/>
        <pt x="341" y="538" on="0"/>
        <pt x="339" y="492" on="0"/>
        <pt x="348" y="469" on="1"/>
        <pt x="362" y="455" on="1"/>
        <pt x="367" y="441" on="0"/>
        <pt x="366" y="411" on="0"/>
        <pt x="369" y="395" on="1"/>
        <pt x="381" y="390" on="0"/>
        <pt x="381" y="378" on="0"/>
        <pt x="381" y="369" on="1"/>
        <pt x="381" y="360" on="0"/>
        <pt x="397" y="338" on="0"/>
        <pt x="416" y="313" on="0"/>
        <pt x="433" y="285" on="0"/>
        <pt x="434" y="270" on="1"/>
        <pt x="465" y="247" on="0"/>
        <pt x="500" y="210" on="0"/>
        <pt x="535" y="182" on="0"/>
        <pt x="582" y="163" on="0"/>
        <pt x="627" y="158" on="1"/>
        <pt x="635" y="158" on="0"/>
        <pt x="651" y="152" on="0"/>
        <pt x="659" y="152" on="1"/>
        <pt x="672" y="152" on="0"/>
        <pt x="692" y="162" on="0"/>
        <pt x="717" y="174" on="0"/>
        <pt x="753" y="184" on="0"/>
        <pt x="782" y="184" on="1"/>
        <pt x="793" y="184" on="0"/>
        <pt x="797" y="200" on="0"/>
        <pt x="805" y="205" on="1"/>
        <pt x="809" y="207" on="0"/>
        <pt x="830" y="213" on="0"/>
        <pt x="857" y="221" on="0"/>
        <pt x="886" y="232" on="0"/>
        <pt x="897" y="238" on="1"/>
        <pt x="923" y="253" on="0"/>
        <pt x="964" y="295" on="0"/>
        <pt x="989" y="309" on="1"/>
        <pt x="998" y="341" on="0"/>
        <pt x="1035" y="394" on="0"/>
        <pt x="1049" y="422" on="1"/>
        <pt x="1055" y="422" on="1"/>
        <pt x="1064" y="422" on="0"/>
        <pt x="1081" y="430" on="0"/>
        <pt x="1097" y="441" on="0"/>
        <pt x="1114" y="449" on="0"/>
        <pt x="1122" y="449" on="1"/>
        <pt x="1131" y="449" on="0"/>
        <pt x="1144" y="443" on="0"/>
        <pt x="1158" y="436" on="0"/>
        <pt x="1173" y="430" on="0"/>
        <pt x="1182" y="430" on="1"/>
        <pt x="1196" y="404" on="0"/>
        <pt x="1214" y="346" on="0"/>
      </contour>
    </TTGlyph>
    <TTGlyph name="Cacute" xMin="72" yMin="-98" xMax="1214" yMax="2036">
      <component glyphName="C" x="0" y="0" flags="0x204"/>
      <component glyphName="acute" x="621" y="299" flags="0x4"/>
    </TTGlyph>
    <TTGlyph name="Ccaron" xMin="72" yMin="-98" xMax="1214" yMax="2017">
      <component glyphName="C" x="0" y="0" flags="0x204"/>
      <component glyphName="caron" x="422" y="305" flags="0x4"/>
    </TTGlyph>
    <TTGlyph name="Ccedilla" xMin="72" yMin="-436" xMax="1214" yMax="1538">
      <contour>
        <pt x="795" y="-285" on="1"/>
        <pt x="795" y="-300" on="0"/>
        <pt x="784" y="-318" on="0"/>
        <pt x="778" y="-328" on="1"/>
        <pt x="780" y="-328" on="0"/>
        <pt x="773" y="-337" on="0"/>
        <pt x="770" y="-342" on="1"/>
        <pt x="772" y="-340" on="1"/>
        <pt x="766" y="-354" on="1"/>
        <pt x="760" y="-370" on="0"/>
        <pt x="750" y="-381" on="0"/>
        <pt x="741" y="-384" on="0"/>
        <pt x="734" y="-386" on="0"/>
        <pt x="731" y="-393" on="1"/>
        <pt x="726" y="-404" on="0"/>
        <pt x="704" y="-415" on="0"/>
        <pt x="678" y="-423" on="0"/>
        <pt x="652" y="-429" on="0"/>
        <pt x="643" y="-434" on="1"/>
        <pt x="629" y="-436" on="1"/>
        <pt x="621" y="-436" on="1"/>
        <pt x="596" y="-436" on="0"/>
        <pt x="551" y="-424" on="0"/>
        <pt x="528" y="-424" on="1"/>
        <pt x="508" y="-405" on="0"/>
        <pt x="486" y="-364" on="0"/>
        <pt x="483" y="-336" on="1"/>
        <pt x="497" y="-319" on="0"/>
        <pt x="523" y="-301" on="0"/>
        <pt x="545" y="-301" on="1"/>
        <pt x="570" y="-301" on="0"/>
        <pt x="604" y="-319" on="0"/>
        <pt x="623" y="-319" on="1"/>
        <pt x="643" y="-319" on="0"/>
        <pt x="668" y="-295" on="0"/>
        <pt x="668" y="-276" on="1"/>
        <pt x="668" y="-258" on="0"/>
        <pt x="648" y="-237" on="0"/>
        <pt x="623" y="-227" on="0"/>
        <pt x="598" y="-225" on="0"/>
        <pt x="594" y="-225" on="1"/>
        <pt x="584" y="-219" on="1"/>
        <pt x="581" y="-219" on="0"/>
        <pt x="576" y="-217" on="0"/>
        <pt x="571" y="-217" on="1"/>
        <pt x="569" y="-217" on="0"/>
        <pt x="564" y="-217" on="0"/>
        <pt x="561" y="-219" on="1"/>
        <pt x="549" y="-195" on="1"/>
        <pt x="546" y="-190" on="0"/>
        <pt x="539" y="-176" on="0"/>
        <pt x="539" y="-162" on="1"/>
        <pt x="539" y="-156" on="0"/>
        <pt x="543" y="-152" on="0"/>
        <pt x="543" y="-147" on="1"/>
        <pt x="543" y="-141" on="1"/>
        <pt x="543" y="-136" on="0"/>
        <pt x="550" y="-99" on="0"/>
        <pt x="555" y="-78" on="1"/>
        <pt x="541" y="-72" on="0"/>
        <pt x="516" y="-56" on="0"/>
        <pt x="508" y="-47" on="1"/>
        <pt x="496" y="-47" on="1"/>
        <pt x="470" y="-48" on="0"/>
        <pt x="434" y="-29" on="0"/>
        <pt x="401" y="-5" on="0"/>
        <pt x="367" y="17" on="0"/>
        <pt x="342" y="20" on="1"/>
        <pt x="336" y="45" on="0"/>
        <pt x="298" y="69" on="0"/>
        <pt x="276" y="80" on="1"/>
        <pt x="271" y="89" on="0"/>
        <pt x="264" y="108" on="0"/>
        <pt x="264" y="119" on="1"/>
        <pt x="249" y="123" on="0"/>
        <pt x="226" y="142" on="0"/>
        <pt x="207" y="165" on="0"/>
        <pt x="189" y="189" on="0"/>
        <pt x="178" y="199" on="1"/>
        <pt x="178" y="204" on="0"/>
        <pt x="180" y="213" on="0"/>
        <pt x="180" y="219" on="1"/>
        <pt x="180" y="233" on="0"/>
        <pt x="168" y="252" on="0"/>
        <pt x="152" y="268" on="0"/>
        <pt x="135" y="285" on="0"/>
        <pt x="131" y="297" on="1"/>
        <pt x="126" y="308" on="0"/>
        <pt x="123" y="337" on="0"/>
        <pt x="122" y="367" on="0"/>
        <pt x="121" y="398" on="0"/>
        <pt x="119" y="410" on="1"/>
        <pt x="114" y="425" on="0"/>
        <pt x="95" y="454" on="0"/>
        <pt x="92" y="469" on="1"/>
        <pt x="87" y="485" on="0"/>
        <pt x="85" y="525" on="0"/>
        <pt x="86" y="566" on="0"/>
        <pt x="88" y="607" on="0"/>
        <pt x="88" y="625" on="1"/>
        <pt x="88" y="654" on="0"/>
        <pt x="72" y="711" on="0"/>
        <pt x="72" y="739" on="1"/>
        <pt x="72" y="762" on="0"/>
        <pt x="84" y="824" on="0"/>
        <pt x="92" y="846" on="1"/>
        <pt x="94" y="852" on="0"/>
        <pt x="102" y="864" on="0"/>
        <pt x="104" y="872" on="1"/>
        <pt x="109" y="892" on="0"/>
        <pt x="107" y="937" on="0"/>
        <pt x="111" y="958" on="1"/>
        <pt x="114" y="977" on="0"/>
        <pt x="129" y="1012" on="0"/>
        <pt x="131" y="1030" on="1"/>
        <pt x="134" y="1056" on="0"/>
        <pt x="134" y="1111" on="0"/>
        <pt x="143" y="1137" on="1"/>
        <pt x="153" y="1158" on="0"/>
        <pt x="190" y="1193" on="0"/>
        <pt x="197" y="1208" on="1"/>
        <pt x="208" y="1234" on="0"/>
        <pt x="236" y="1286" on="0"/>
        <pt x="238" y="1315" on="1"/>
        <pt x="258" y="1333" on="0"/>
        <pt x="320" y="1373" on="0"/>
        <pt x="383" y="1414" on="0"/>
        <pt x="437" y="1457" on="0"/>
        <pt x="449" y="1479" on="1"/>
        <pt x="457" y="1479" on="1"/>
        <pt x="460" y="1479" on="0"/>
        <pt x="504" y="1494" on="0"/>
        <pt x="556" y="1513" on="0"/>
        <pt x="601" y="1530" on="0"/>
        <pt x="606" y="1532" on="1"/>
        <pt x="606" y="1535" on="0"/>
        <pt x="610" y="1538" on="0"/>
        <pt x="612" y="1538" on="1"/>
        <pt x="629" y="1538" on="0"/>
        <pt x="695" y="1536" on="0"/>
        <pt x="766" y="1533" on="0"/>
        <pt x="829" y="1528" on="0"/>
        <pt x="844" y="1526" on="1"/>
        <pt x="857" y="1524" on="0"/>
        <pt x="882" y="1512" on="0"/>
        <pt x="906" y="1501" on="0"/>
        <pt x="931" y="1492" on="0"/>
        <pt x="944" y="1493" on="1"/>
        <pt x="960" y="1473" on="0"/>
        <pt x="994" y="1458" on="0"/>
        <pt x="1016" y="1446" on="1"/>
        <pt x="1024" y="1441" on="0"/>
        <pt x="1052" y="1409" on="0"/>
        <pt x="1063" y="1401" on="1"/>
        <pt x="1074" y="1392" on="0"/>
        <pt x="1108" y="1378" on="0"/>
        <pt x="1116" y="1366" on="1"/>
        <pt x="1122" y="1357" on="0"/>
        <pt x="1135" y="1327" on="0"/>
        <pt x="1145" y="1294" on="0"/>
        <pt x="1151" y="1263" on="0"/>
        <pt x="1151" y="1251" on="1"/>
        <pt x="1151" y="1229" on="0"/>
        <pt x="1136" y="1183" on="0"/>
        <pt x="1108" y="1146" on="0"/>
        <pt x="1067" y="1122" on="0"/>
        <pt x="1042" y="1122" on="1"/>
        <pt x="1017" y="1122" on="0"/>
        <pt x="985" y="1138" on="0"/>
        <pt x="962" y="1163" on="0"/>
        <pt x="942" y="1196" on="0"/>
        <pt x="930" y="1214" on="1"/>
        <pt x="922" y="1227" on="0"/>
        <pt x="900" y="1239" on="0"/>
        <pt x="891" y="1247" on="1"/>
        <pt x="882" y="1257" on="0"/>
        <pt x="869" y="1276" on="0"/>
        <pt x="858" y="1282" on="1"/>
        <pt x="849" y="1286" on="0"/>
        <pt x="816" y="1291" on="0"/>
        <pt x="779" y="1294" on="0"/>
        <pt x="743" y="1298" on="0"/>
        <pt x="731" y="1300" on="1"/>
        <pt x="720" y="1304" on="0"/>
        <pt x="699" y="1311" on="0"/>
        <pt x="688" y="1311" on="1"/>
        <pt x="682" y="1311" on="0"/>
        <pt x="672" y="1309" on="0"/>
        <pt x="666" y="1307" on="1"/>
        <pt x="658" y="1299" on="0"/>
        <pt x="649" y="1303" on="0"/>
        <pt x="641" y="1303" on="1"/>
        <pt x="629" y="1303" on="0"/>
        <pt x="606" y="1288" on="0"/>
        <pt x="584" y="1288" on="1"/>
        <pt x="580" y="1288" on="1"/>
        <pt x="571" y="1274" on="0"/>
        <pt x="541" y="1256" on="0"/>
        <pt x="508" y="1240" on="0"/>
        <pt x="477" y="1222" on="0"/>
        <pt x="467" y="1208" on="1"/>
        <pt x="462" y="1200" on="0"/>
        <pt x="460" y="1184" on="0"/>
        <pt x="455" y="1176" on="1"/>
        <pt x="441" y="1154" on="0"/>
        <pt x="408" y="1113" on="0"/>
        <pt x="395" y="1090" on="1"/>
        <pt x="383" y="1067" on="0"/>
        <pt x="359" y="1024" on="0"/>
        <pt x="342" y="1004" on="1"/>
        <pt x="344" y="997" on="0"/>
        <pt x="344" y="985" on="0"/>
        <pt x="344" y="979" on="1"/>
        <pt x="344" y="958" on="0"/>
        <pt x="336" y="925" on="0"/>
        <pt x="325" y="891" on="0"/>
        <pt x="317" y="849" on="0"/>
        <pt x="317" y="821" on="1"/>
        <pt x="317" y="804" on="0"/>
        <pt x="303" y="782" on="0"/>
        <pt x="303" y="770" on="1"/>
        <pt x="303" y="758" on="0"/>
        <pt x="306" y="705" on="0"/>
        <pt x="312" y="648" on="0"/>
        <pt x="320" y="598" on="0"/>
        <pt x="324" y="588" on="1"/>
        <pt x="326" y="580" on="0"/>
        <pt x="334" y="569" on="0"/>
        <pt x="336" y="561" on="1"/>
        <pt x="341" y="538" on="0"/>
        <pt x="339" y="492" on="0"/>
        <pt x="348" y="469" on="1"/>
        <pt x="362" y="455" on="1"/>
        <pt x="367" y="441" on="0"/>
        <pt x="366" y="411" on="0"/>
        <pt x="369" y="395" on="1"/>
        <pt x="381" y="390" on="0"/>
        <pt x="381" y="378" on="0"/>
        <pt x="381" y="369" on="1"/>
        <pt x="381" y="360" on="0"/>
        <pt x="397" y="338" on="0"/>
        <pt x="416" y="313" on="0"/>
        <pt x="433" y="285" on="0"/>
        <pt x="434" y="270" on="1"/>
        <pt x="465" y="247" on="0"/>
        <pt x="500" y="210" on="0"/>
        <pt x="535" y="182" on="0"/>
        <pt x="582" y="163" on="0"/>
        <pt x="627" y="158" on="1"/>
        <pt x="635" y="158" on="0"/>
        <pt x="651" y="152" on="0"/>
        <pt x="659" y="152" on="1"/>
        <pt x="672" y="152" on="0"/>
        <pt x="692" y="162" on="0"/>
        <pt x="717" y="174" on="0"/>
        <pt x="753" y="184" on="0"/>
        <pt x="782" y="184" on="1"/>
        <pt x="793" y="184" on="0"/>
        <pt x="797" y="200" on="0"/>
        <pt x="805" y="205" on="1"/>
        <pt x="809" y="207" on="0"/>
        <pt x="830" y="213" on="0"/>
        <pt x="857" y="221" on="0"/>
        <pt x="886" y="232" on="0"/>
        <pt x="897" y="238" on="1"/>
        <pt x="923" y="253" on="0"/>
        <pt x="964" y="295" on="0"/>
        <pt x="989" y="309" on="1"/>
        <pt x="998" y="341" on="0"/>
        <pt x="1035" y="394" on="0"/>
        <pt x="1049" y="422" on="1"/>
        <pt x="1055" y="422" on="1"/>
        <pt x="1064" y="422" on="0"/>
        <pt x="1081" y="430" on="0"/>
        <pt x="1097" y="441" on="0"/>
        <pt x="1114" y="449" on="0"/>
        <pt x="1122" y="449" on="1"/>
        <pt x="1131" y="449" on="0"/>
        <pt x="1144" y="443" on="0"/>
        <pt x="1158" y="436" on="0"/>
        <pt x="1173" y="430" on="0"/>
        <pt x="1182" y="430" on="1"/>
        <pt x="1196" y="404" on="0"/>
        <pt x="1214" y="346" on="0"/>
        <pt x="1214" y="315" on="1"/>
        <pt x="1214" y="293" on="0"/>
        <pt x="1199" y="244" on="0"/>
        <pt x="1172" y="199" on="0"/>
        <pt x="1137" y="162" on="0"/>
        <pt x="1116" y="152" on="1"/>
        <pt x="1105" y="124" on="0"/>
        <pt x="1064" y="78" on="0"/>
        <pt x="1049" y="53" on="1"/>
        <pt x="1027" y="44" on="0"/>
        <pt x="990" y="15" on="0"/>
        <pt x="954" y="-16" on="0"/>
        <pt x="918" y="-45" on="0"/>
        <pt x="897" y="-53" on="1"/>
        <pt x="885" y="-58" on="0"/>
        <pt x="858" y="-56" on="0"/>
        <pt x="844" y="-59" on="1"/>
        <pt x="830" y="-63" on="0"/>
        <pt x="802" y="-76" on="0"/>
        <pt x="774" y="-89" on="0"/>
        <pt x="746" y="-98" on="0"/>
        <pt x="731" y="-98" on="1"/>
        <pt x="716" y="-98" on="0"/>
        <pt x="689" y="-86" on="0"/>
        <pt x="672" y="-86" on="1"/>
        <pt x="668" y="-86" on="1"/>
        <pt x="668" y="-95" on="0"/>
        <pt x="666" y="-116" on="0"/>
        <pt x="664" y="-127" on="1"/>
        <pt x="671" y="-136" on="0"/>
        <pt x="698" y="-146" on="0"/>
        <pt x="727" y="-155" on="0"/>
        <pt x="752" y="-168" on="0"/>
        <pt x="758" y="-182" on="1"/>
        <pt x="758" y="-180" on="1"/>
        <pt x="775" y="-203" on="0"/>
        <pt x="795" y="-257" on="0"/>
      </contour>
    </TTGlyph>
    <TTGlyph name="Ccircumflex" xMin="72" yMin="-98" xMax="1214" yMax="1995">
      <component glyphName="C" x="0" y="0" flags="0x204"/>
      <component glyphName="circumflex" x="365" y="283" flags="0x4"/>
    </TTGlyph>
    <TTGlyph name="Cdotaccent" xMin="72" yMin="-98" xMax="1214" yMax="1843">
      <component glyphName="C" x="0" y="0" flags="0x204"/>
      <component glyphName="dotaccent" x="561" y="274" flags="0x4"/>
    </TTGlyph>
    <TTGlyph name="D" xMin="113" yMin="-70" xMax="1083" yMax="1493">
      <contour>
        <pt x="1083" y="723" on="1"/>
        <pt x="1083" y="715" on="0"/>
        <pt x="1077" y="702" on="0"/>
        <pt x="1077" y="694" on="1"/>
        <pt x="1077" y="685" on="0"/>
        <pt x="1083" y="669" on="0"/>
        <pt x="1083" y="659" on="1"/>
        <pt x="1083" y="641" on="0"/>
        <pt x="1073" y="602" on="0"/>
        <pt x="1071" y="582" on="1"/>
        <pt x="1069" y="568" on="0"/>
        <pt x="1071" y="540" on="0"/>
        <pt x="1071" y="526" on="1"/>
        <pt x="1071" y="512" on="0"/>
        <pt x="1063" y="484" on="0"/>
        <pt x="1051" y="475" on="1"/>
        <pt x="1057" y="463" on="0"/>
        <pt x="1057" y="449" on="1"/>
        <pt x="1057" y="436" on="0"/>
        <pt x="1050" y="413" on="0"/>
        <pt x="1042" y="390" on="0"/>
        <pt x="1036" y="365" on="0"/>
        <pt x="1038" y="350" on="1"/>
        <pt x="1024" y="339" on="0"/>
        <pt x="1008" y="309" on="0"/>
        <pt x="997" y="297" on="1"/>
        <pt x="997" y="285" on="1"/>
        <pt x="985" y="285" on="1"/>
        <pt x="976" y="271" on="0"/>
        <pt x="960" y="244" on="0"/>
        <pt x="952" y="231" on="1"/>
        <pt x="949" y="218" on="0"/>
        <pt x="943" y="210" on="0"/>
        <pt x="937" y="208" on="0"/>
        <pt x="930" y="209" on="0"/>
        <pt x="926" y="205" on="1"/>
        <pt x="908" y="192" on="0"/>
        <pt x="885" y="162" on="0"/>
        <pt x="861" y="137" on="0"/>
        <pt x="827" y="123" on="0"/>
        <pt x="799" y="125" on="1"/>
        <pt x="780" y="116" on="0"/>
        <pt x="756" y="84" on="0"/>
        <pt x="748" y="66" on="1"/>
        <pt x="738" y="65" on="0"/>
        <pt x="713" y="56" on="0"/>
        <pt x="687" y="44" on="0"/>
        <pt x="664" y="31" on="0"/>
        <pt x="655" y="27" on="1"/>
        <pt x="647" y="12" on="1"/>
        <pt x="644" y="10" on="0"/>
        <pt x="636" y="14" on="0"/>
        <pt x="631" y="14" on="1"/>
        <pt x="629" y="12" on="1"/>
        <pt x="606" y="4" on="0"/>
        <pt x="564" y="-23" on="0"/>
        <pt x="543" y="-33" on="1"/>
        <pt x="523" y="-41" on="0"/>
        <pt x="483" y="-48" on="0"/>
        <pt x="463" y="-53" on="1"/>
        <pt x="447" y="-56" on="0"/>
        <pt x="419" y="-66" on="0"/>
        <pt x="403" y="-66" on="1"/>
        <pt x="389" y="-66" on="0"/>
        <pt x="364" y="-59" on="0"/>
        <pt x="350" y="-59" on="1"/>
        <pt x="336" y="-59" on="0"/>
        <pt x="311" y="-70" on="0"/>
        <pt x="297" y="-70" on="1"/>
        <pt x="292" y="-70" on="0"/>
        <pt x="282" y="-69" on="0"/>
        <pt x="279" y="-66" on="1"/>
        <pt x="270" y="-53" on="1"/>
        <pt x="244" y="-46" on="0"/>
        <pt x="215" y="-49" on="0"/>
        <pt x="194" y="-47" on="0"/>
        <pt x="175" y="-26" on="0"/>
        <pt x="160" y="6" on="1"/>
        <pt x="154" y="17" on="0"/>
        <pt x="146" y="33" on="0"/>
        <pt x="140" y="49" on="0"/>
        <pt x="137" y="67" on="0"/>
        <pt x="137" y="80" on="1"/>
        <pt x="137" y="106" on="0"/>
        <pt x="145" y="159" on="0"/>
        <pt x="145" y="186" on="1"/>
        <pt x="145" y="202" on="0"/>
        <pt x="137" y="232" on="0"/>
        <pt x="137" y="248" on="1"/>
        <pt x="137" y="256" on="0"/>
        <pt x="139" y="271" on="0"/>
        <pt x="139" y="279" on="1"/>
        <pt x="139" y="288" on="0"/>
        <pt x="133" y="301" on="0"/>
        <pt x="133" y="309" on="1"/>
        <pt x="133" y="320" on="0"/>
        <pt x="143" y="339" on="0"/>
        <pt x="145" y="350" on="1"/>
        <pt x="147" y="363" on="0"/>
        <pt x="145" y="389" on="0"/>
        <pt x="145" y="401" on="1"/>
        <pt x="145" y="415" on="0"/>
        <pt x="152" y="441" on="0"/>
        <pt x="152" y="455" on="1"/>
        <pt x="152" y="476" on="0"/>
        <pt x="133" y="517" on="0"/>
        <pt x="133" y="539" on="1"/>
        <pt x="133" y="557" on="0"/>
        <pt x="139" y="596" on="0"/>
        <pt x="139" y="616" on="1"/>
        <pt x="139" y="638" on="0"/>
        <pt x="147" y="681" on="0"/>
        <pt x="147" y="702" on="1"/>
        <pt x="147" y="736" on="0"/>
        <pt x="127" y="760" on="1"/>
        <pt x="129" y="765" on="0"/>
        <pt x="131" y="775" on="0"/>
        <pt x="131" y="780" on="1"/>
        <pt x="131" y="793" on="0"/>
        <pt x="125" y="817" on="0"/>
        <pt x="125" y="829" on="1"/>
        <pt x="125" y="846" on="0"/>
        <pt x="139" y="875" on="0"/>
        <pt x="145" y="891" on="1"/>
        <pt x="140" y="906" on="0"/>
        <pt x="142" y="936" on="0"/>
        <pt x="139" y="950" on="1"/>
        <pt x="137" y="963" on="0"/>
        <pt x="127" y="985" on="0"/>
        <pt x="127" y="997" on="1"/>
        <pt x="125" y="999" on="1"/>
        <pt x="125" y="1012" on="0"/>
        <pt x="133" y="1031" on="0"/>
        <pt x="133" y="1042" on="1"/>
        <pt x="133" y="1061" on="0"/>
        <pt x="119" y="1098" on="0"/>
        <pt x="119" y="1118" on="1"/>
        <pt x="119" y="1129" on="0"/>
        <pt x="125" y="1141" on="0"/>
        <pt x="133" y="1149" on="1"/>
        <pt x="133" y="1153" on="1"/>
        <pt x="133" y="1164" on="0"/>
        <pt x="125" y="1184" on="0"/>
        <pt x="127" y="1196" on="1"/>
        <pt x="127" y="1207" on="0"/>
        <pt x="129" y="1228" on="0"/>
        <pt x="129" y="1239" on="1"/>
        <pt x="129" y="1271" on="0"/>
        <pt x="113" y="1331" on="0"/>
        <pt x="113" y="1350" on="1"/>
        <pt x="113" y="1368" on="0"/>
        <pt x="127" y="1402" on="0"/>
        <pt x="133" y="1419" on="1"/>
        <pt x="131" y="1423" on="0"/>
        <pt x="131" y="1432" on="1"/>
        <pt x="131" y="1448" on="0"/>
        <pt x="148" y="1465" on="0"/>
        <pt x="152" y="1479" on="1"/>
        <pt x="167" y="1490" on="0"/>
        <pt x="204" y="1493" on="0"/>
        <pt x="221" y="1493" on="1"/>
        <pt x="255" y="1493" on="0"/>
        <pt x="322" y="1487" on="0"/>
        <pt x="356" y="1487" on="1"/>
        <pt x="366" y="1487" on="0"/>
        <pt x="382" y="1493" on="0"/>
        <pt x="391" y="1493" on="1"/>
        <pt x="435" y="1493" on="0"/>
        <pt x="507" y="1476" on="0"/>
        <pt x="549" y="1466" on="1"/>
        <pt x="566" y="1463" on="0"/>
        <pt x="599" y="1463" on="0"/>
        <pt x="614" y="1460" on="1"/>
        <pt x="627" y="1457" on="0"/>
        <pt x="649" y="1443" on="0"/>
        <pt x="662" y="1440" on="1"/>
        <pt x="673" y="1437" on="0"/>
        <pt x="707" y="1437" on="0"/>
        <pt x="715" y="1434" on="1"/>
        <pt x="724" y="1429" on="0"/>
        <pt x="738" y="1407" on="0"/>
        <pt x="748" y="1401" on="1"/>
        <pt x="757" y="1392" on="0"/>
        <pt x="777" y="1382" on="0"/>
        <pt x="786" y="1374" on="1"/>
        <pt x="791" y="1369" on="0"/>
        <pt x="794" y="1357" on="0"/>
        <pt x="799" y="1354" on="1"/>
        <pt x="805" y="1349" on="0"/>
        <pt x="820" y="1353" on="0"/>
        <pt x="825" y="1348" on="1"/>
        <pt x="836" y="1340" on="0"/>
        <pt x="843" y="1316" on="0"/>
        <pt x="852" y="1307" on="1"/>
        <pt x="867" y="1294" on="0"/>
        <pt x="909" y="1282" on="0"/>
        <pt x="926" y="1268" on="1"/>
        <pt x="935" y="1246" on="0"/>
        <pt x="961" y="1205" on="0"/>
        <pt x="971" y="1182" on="1"/>
        <pt x="974" y="1177" on="0"/>
        <pt x="976" y="1166" on="0"/>
        <pt x="979" y="1163" on="1"/>
        <pt x="991" y="1155" on="1"/>
        <pt x="996" y="1146" on="0"/>
        <pt x="994" y="1125" on="0"/>
        <pt x="997" y="1116" on="1"/>
        <pt x="1004" y="1101" on="0"/>
        <pt x="1029" y="1061" on="0"/>
        <pt x="1054" y="1019" on="0"/>
        <pt x="1074" y="980" on="0"/>
        <pt x="1077" y="965" on="1"/>
        <pt x="1080" y="949" on="0"/>
        <pt x="1077" y="917" on="0"/>
        <pt x="1077" y="901" on="1"/>
        <pt x="1077" y="886" on="0"/>
        <pt x="1083" y="857" on="0"/>
        <pt x="1083" y="842" on="1"/>
        <pt x="1083" y="825" on="0"/>
        <pt x="1071" y="795" on="0"/>
        <pt x="1071" y="778" on="1"/>
        <pt x="1071" y="764" on="0"/>
        <pt x="1083" y="738" on="0"/>
      </contour>
      <contour>
        <pt x="872" y="674" on="1"/>
        <pt x="872" y="699" on="0"/>
        <pt x="860" y="749" on="0"/>
        <pt x="844" y="798" on="0"/>
        <pt x="828" y="848" on="0"/>
        <pt x="825" y="872" on="1"/>
        <pt x="823" y="883" on="0"/>
        <pt x="827" y="907" on="0"/>
        <pt x="827" y="918" on="1"/>
        <pt x="827" y="921" on="0"/>
        <pt x="818" y="951" on="0"/>
        <pt x="803" y="993" on="0"/>
        <pt x="785" y="1042" on="0"/>
        <pt x="769" y="1087" on="0"/>
        <pt x="756" y="1121" on="0"/>
        <pt x="754" y="1128" on="1"/>
        <pt x="739" y="1135" on="0"/>
        <pt x="709" y="1160" on="0"/>
        <pt x="679" y="1184" on="0"/>
        <pt x="649" y="1202" on="0"/>
        <pt x="633" y="1202" on="1"/>
        <pt x="629" y="1202" on="1"/>
        <pt x="626" y="1205" on="0"/>
        <pt x="619" y="1212" on="0"/>
        <pt x="614" y="1214" on="1"/>
        <pt x="606" y="1219" on="0"/>
        <pt x="581" y="1224" on="0"/>
        <pt x="553" y="1226" on="0"/>
        <pt x="525" y="1227" on="0"/>
        <pt x="516" y="1229" on="1"/>
        <pt x="501" y="1230" on="0"/>
        <pt x="471" y="1240" on="0"/>
        <pt x="442" y="1249" on="0"/>
        <pt x="412" y="1256" on="0"/>
        <pt x="397" y="1255" on="1"/>
        <pt x="391" y="1255" on="1"/>
        <pt x="390" y="1249" on="0"/>
        <pt x="389" y="1244" on="0"/>
        <pt x="388" y="1238" on="0"/>
        <pt x="387" y="1228" on="0"/>
        <pt x="387" y="1217" on="1"/>
        <pt x="387" y="1198" on="0"/>
        <pt x="371" y="1161" on="0"/>
        <pt x="371" y="1143" on="1"/>
        <pt x="371" y="1133" on="0"/>
        <pt x="377" y="1118" on="0"/>
        <pt x="377" y="1110" on="1"/>
        <pt x="377" y="1102" on="0"/>
        <pt x="365" y="1091" on="0"/>
        <pt x="365" y="1083" on="1"/>
        <pt x="365" y="1074" on="0"/>
        <pt x="371" y="1059" on="0"/>
        <pt x="371" y="1051" on="1"/>
        <pt x="371" y="1028" on="0"/>
        <pt x="367" y="984" on="0"/>
        <pt x="367" y="963" on="1"/>
        <pt x="367" y="913" on="0"/>
        <pt x="375" y="813" on="0"/>
        <pt x="375" y="764" on="1"/>
        <pt x="375" y="753" on="0"/>
        <pt x="371" y="730" on="0"/>
        <pt x="365" y="719" on="1"/>
        <pt x="377" y="687" on="0"/>
        <pt x="383" y="618" on="0"/>
        <pt x="383" y="584" on="1"/>
        <pt x="383" y="562" on="0"/>
        <pt x="377" y="522" on="0"/>
        <pt x="377" y="502" on="1"/>
        <pt x="377" y="493" on="0"/>
        <pt x="383" y="489" on="1"/>
        <pt x="381" y="468" on="0"/>
        <pt x="371" y="435" on="0"/>
        <pt x="371" y="414" on="1"/>
        <pt x="371" y="382" on="0"/>
        <pt x="379" y="321" on="0"/>
        <pt x="379" y="289" on="1"/>
        <pt x="379" y="260" on="0"/>
        <pt x="371" y="201" on="0"/>
        <pt x="371" y="172" on="1"/>
        <pt x="376" y="170" on="0"/>
        <pt x="384" y="170" on="0"/>
        <pt x="389" y="170" on="1"/>
        <pt x="407" y="170" on="0"/>
        <pt x="437" y="180" on="0"/>
        <pt x="465" y="195" on="0"/>
        <pt x="494" y="211" on="0"/>
        <pt x="510" y="217" on="1"/>
        <pt x="514" y="219" on="0"/>
        <pt x="560" y="234" on="0"/>
        <pt x="611" y="251" on="0"/>
        <pt x="653" y="264" on="0"/>
        <pt x="655" y="264" on="1"/>
        <pt x="680" y="304" on="0"/>
        <pt x="740" y="376" on="0"/>
        <pt x="774" y="410" on="1"/>
        <pt x="786" y="410" on="1"/>
        <pt x="786" y="422" on="1"/>
        <pt x="791" y="425" on="0"/>
        <pt x="802" y="425" on="0"/>
        <pt x="807" y="430" on="1"/>
        <pt x="810" y="433" on="0"/>
        <pt x="810" y="444" on="0"/>
        <pt x="813" y="449" on="1"/>
        <pt x="816" y="454" on="0"/>
        <pt x="829" y="457" on="0"/>
        <pt x="834" y="463" on="1"/>
        <pt x="841" y="472" on="0"/>
        <pt x="848" y="514" on="0"/>
        <pt x="853" y="562" on="0"/>
        <pt x="856" y="608" on="0"/>
        <pt x="858" y="621" on="1"/>
        <pt x="861" y="635" on="0"/>
        <pt x="872" y="660" on="0"/>
      </contour>
    </TTGlyph>
    <TTGlyph name="Dcaron" xMin="113" yMin="-70" xMax="1083" yMax="1950">
      <component glyphName="D" x="0" y="0" flags="0x204"/>
      <component glyphName="caron" x="295" y="238" flags="0x4"/>
    </TTGlyph>
    <TTGlyph name="Dcroat" xMin="-10" yMin="-70" xMax="1104" yMax="1493">
      <component glyphName="Eth" x="0" y="0" flags="0x204"/>
    </TTGlyph>
    <TTGlyph name="E" xMin="44" yMin="12" xMax="1083" yMax="1485">
      <contour>
        <pt x="1077" y="217" on="1"/>
        <pt x="1083" y="196" on="0"/>
        <pt x="1083" y="176" on="1"/>
        <pt x="1083" y="151" on="0"/>
        <pt x="1066" y="107" on="0"/>
        <pt x="1057" y="84" on="1"/>
        <pt x="1046" y="75" on="0"/>
        <pt x="1018" y="65" on="0"/>
        <pt x="1006" y="57" on="1"/>
        <pt x="985" y="45" on="0"/>
        <pt x="956" y="35" on="0"/>
        <pt x="928" y="33" on="0"/>
        <pt x="896" y="35" on="0"/>
        <pt x="872" y="35" on="1"/>
        <pt x="835" y="35" on="0"/>
        <pt x="774" y="18" on="0"/>
        <pt x="748" y="18" on="1"/>
        <pt x="722" y="18" on="0"/>
        <pt x="665" y="27" on="0"/>
        <pt x="637" y="27" on="1"/>
        <pt x="620" y="27" on="0"/>
        <pt x="589" y="20" on="0"/>
        <pt x="573" y="12" on="1"/>
        <pt x="558" y="12" on="0"/>
        <pt x="533" y="31" on="0"/>
        <pt x="516" y="31" on="1"/>
        <pt x="507" y="31" on="0"/>
        <pt x="493" y="25" on="0"/>
        <pt x="483" y="25" on="1"/>
        <pt x="466" y="25" on="0"/>
        <pt x="437" y="39" on="0"/>
        <pt x="420" y="39" on="1"/>
        <pt x="395" y="39" on="0"/>
        <pt x="341" y="18" on="0"/>
        <pt x="313" y="18" on="1"/>
        <pt x="297" y="18" on="0"/>
        <pt x="272" y="32" on="0"/>
        <pt x="249" y="53" on="0"/>
        <pt x="229" y="75" on="0"/>
        <pt x="217" y="84" on="1"/>
        <pt x="215" y="96" on="0"/>
        <pt x="200" y="148" on="0"/>
        <pt x="184" y="204" on="0"/>
        <pt x="172" y="252" on="0"/>
        <pt x="172" y="260" on="1"/>
        <pt x="172" y="271" on="0"/>
        <pt x="178" y="292" on="0"/>
        <pt x="178" y="303" on="1"/>
        <pt x="178" y="317" on="0"/>
        <pt x="168" y="342" on="0"/>
        <pt x="168" y="356" on="1"/>
        <pt x="168" y="359" on="0"/>
        <pt x="169" y="391" on="0"/>
        <pt x="170" y="428" on="0"/>
        <pt x="171" y="460" on="0"/>
        <pt x="172" y="463" on="1"/>
        <pt x="170" y="477" on="0"/>
        <pt x="159" y="502" on="0"/>
        <pt x="154" y="516" on="1"/>
        <pt x="164" y="571" on="0"/>
        <pt x="166" y="670" on="0"/>
        <pt x="166" y="727" on="1"/>
        <pt x="166" y="732" on="0"/>
        <pt x="156" y="737" on="0"/>
        <pt x="143" y="739" on="0"/>
        <pt x="130" y="739" on="0"/>
        <pt x="127" y="739" on="1"/>
        <pt x="121" y="739" on="0"/>
        <pt x="107" y="741" on="0"/>
        <pt x="102" y="748" on="1"/>
        <pt x="84" y="753" on="0"/>
        <pt x="59" y="780" on="0"/>
        <pt x="45" y="793" on="1"/>
        <pt x="45" y="805" on="1"/>
        <pt x="44" y="822" on="0"/>
        <pt x="53" y="853" on="0"/>
        <pt x="64" y="884" on="0"/>
        <pt x="74" y="915" on="0"/>
        <pt x="76" y="932" on="1"/>
        <pt x="85" y="938" on="0"/>
        <pt x="105" y="943" on="0"/>
        <pt x="102" y="958" on="1"/>
        <pt x="112" y="966" on="0"/>
        <pt x="145" y="965" on="0"/>
        <pt x="156" y="965" on="1"/>
        <pt x="160" y="965" on="1"/>
        <pt x="163" y="976" on="0"/>
        <pt x="164" y="997" on="0"/>
        <pt x="164" y="1008" on="1"/>
        <pt x="164" y="1060" on="0"/>
        <pt x="145" y="1162" on="0"/>
        <pt x="145" y="1214" on="1"/>
        <pt x="145" y="1229" on="0"/>
        <pt x="155" y="1284" on="0"/>
        <pt x="169" y="1343" on="0"/>
        <pt x="185" y="1398" on="0"/>
        <pt x="190" y="1413" on="1"/>
        <pt x="218" y="1418" on="0"/>
        <pt x="267" y="1440" on="0"/>
        <pt x="293" y="1440" on="1"/>
        <pt x="308" y="1440" on="0"/>
        <pt x="340" y="1434" on="0"/>
        <pt x="354" y="1434" on="1"/>
        <pt x="368" y="1434" on="0"/>
        <pt x="390" y="1440" on="0"/>
        <pt x="414" y="1446" on="0"/>
        <pt x="444" y="1452" on="0"/>
        <pt x="465" y="1452" on="1"/>
        <pt x="545" y="1452" on="0"/>
        <pt x="710" y="1467" on="0"/>
        <pt x="791" y="1481" on="1"/>
        <pt x="796" y="1481" on="0"/>
        <pt x="805" y="1485" on="0"/>
        <pt x="811" y="1485" on="1"/>
        <pt x="814" y="1485" on="0"/>
        <pt x="821" y="1476" on="0"/>
        <pt x="823" y="1473" on="1"/>
        <pt x="829" y="1476" on="0"/>
        <pt x="846" y="1477" on="0"/>
        <pt x="854" y="1477" on="1"/>
        <pt x="883" y="1477" on="0"/>
        <pt x="941" y="1460" on="0"/>
        <pt x="969" y="1454" on="1"/>
        <pt x="974" y="1434" on="0"/>
        <pt x="983" y="1396" on="0"/>
        <pt x="983" y="1376" on="1"/>
        <pt x="983" y="1342" on="0"/>
        <pt x="963" y="1309" on="0"/>
        <pt x="933" y="1290" on="0"/>
        <pt x="899" y="1273" on="0"/>
        <pt x="885" y="1255" on="1"/>
        <pt x="870" y="1255" on="1"/>
        <pt x="833" y="1259" on="0"/>
        <pt x="759" y="1249" on="0"/>
        <pt x="721" y="1249" on="1"/>
        <pt x="706" y="1249" on="0"/>
        <pt x="683" y="1244" on="0"/>
        <pt x="664" y="1236" on="0"/>
        <pt x="644" y="1227" on="0"/>
        <pt x="631" y="1223" on="1"/>
        <pt x="615" y="1226" on="0"/>
        <pt x="587" y="1229" on="0"/>
        <pt x="571" y="1229" on="1"/>
        <pt x="519" y="1229" on="0"/>
        <pt x="421" y="1205" on="0"/>
        <pt x="371" y="1202" on="1"/>
        <pt x="362" y="1190" on="0"/>
        <pt x="362" y="1176" on="1"/>
        <pt x="362" y="1157" on="0"/>
        <pt x="375" y="1122" on="0"/>
        <pt x="377" y="1104" on="1"/>
        <pt x="378" y="1086" on="0"/>
        <pt x="377" y="1047" on="0"/>
        <pt x="378" y="1009" on="0"/>
        <pt x="385" y="973" on="0"/>
        <pt x="395" y="958" on="1"/>
        <pt x="401" y="956" on="0"/>
        <pt x="416" y="954" on="0"/>
        <pt x="424" y="954" on="1"/>
        <pt x="449" y="954" on="0"/>
        <pt x="500" y="965" on="0"/>
        <pt x="524" y="965" on="1"/>
        <pt x="564" y="965" on="0"/>
        <pt x="641" y="944" on="0"/>
        <pt x="682" y="944" on="1"/>
        <pt x="691" y="944" on="0"/>
        <pt x="710" y="952" on="0"/>
        <pt x="721" y="952" on="1"/>
        <pt x="726" y="952" on="0"/>
        <pt x="736" y="944" on="0"/>
        <pt x="745" y="944" on="1"/>
        <pt x="759" y="944" on="0"/>
        <pt x="783" y="958" on="0"/>
        <pt x="799" y="958" on="1"/>
        <pt x="812" y="958" on="0"/>
        <pt x="835" y="947" on="0"/>
        <pt x="857" y="932" on="0"/>
        <pt x="879" y="919" on="0"/>
        <pt x="891" y="918" on="1"/>
        <pt x="891" y="898" on="0"/>
        <pt x="911" y="862" on="0"/>
        <pt x="911" y="842" on="1"/>
        <pt x="911" y="826" on="0"/>
        <pt x="887" y="791" on="0"/>
        <pt x="853" y="761" on="0"/>
        <pt x="816" y="737" on="0"/>
        <pt x="803" y="733" on="1"/>
        <pt x="795" y="731" on="0"/>
        <pt x="780" y="733" on="0"/>
        <pt x="774" y="733" on="1"/>
        <pt x="761" y="733" on="0"/>
        <pt x="735" y="725" on="0"/>
        <pt x="710" y="715" on="0"/>
        <pt x="683" y="707" on="0"/>
        <pt x="668" y="707" on="1"/>
        <pt x="646" y="707" on="0"/>
        <pt x="603" y="713" on="0"/>
        <pt x="580" y="713" on="1"/>
        <pt x="567" y="713" on="0"/>
        <pt x="545" y="707" on="0"/>
        <pt x="532" y="707" on="1"/>
        <pt x="521" y="707" on="0"/>
        <pt x="491" y="717" on="0"/>
        <pt x="461" y="729" on="0"/>
        <pt x="435" y="739" on="0"/>
        <pt x="428" y="739" on="1"/>
        <pt x="424" y="739" on="0"/>
        <pt x="419" y="734" on="0"/>
        <pt x="414" y="729" on="0"/>
        <pt x="407" y="725" on="0"/>
        <pt x="401" y="727" on="1"/>
        <pt x="396" y="718" on="0"/>
        <pt x="393" y="699" on="0"/>
        <pt x="393" y="690" on="1"/>
        <pt x="393" y="670" on="0"/>
        <pt x="401" y="633" on="0"/>
        <pt x="401" y="614" on="1"/>
        <pt x="401" y="600" on="0"/>
        <pt x="393" y="571" on="0"/>
        <pt x="393" y="557" on="1"/>
        <pt x="393" y="544" on="0"/>
        <pt x="401" y="497" on="0"/>
        <pt x="412" y="445" on="0"/>
        <pt x="420" y="392" on="0"/>
        <pt x="420" y="373" on="1"/>
        <pt x="420" y="342" on="0"/>
        <pt x="414" y="281" on="0"/>
        <pt x="414" y="250" on="1"/>
        <pt x="442" y="242" on="0"/>
        <pt x="496" y="238" on="0"/>
        <pt x="524" y="238" on="1"/>
        <pt x="590" y="238" on="0"/>
        <pt x="724" y="254" on="0"/>
        <pt x="791" y="256" on="1"/>
        <pt x="812" y="256" on="0"/>
        <pt x="853" y="254" on="0"/>
        <pt x="874" y="254" on="1"/>
        <pt x="899" y="254" on="0"/>
        <pt x="943" y="276" on="0"/>
        <pt x="965" y="276" on="1"/>
        <pt x="1003" y="276" on="0"/>
        <pt x="1020" y="242" on="1"/>
        <pt x="1028" y="244" on="1"/>
        <pt x="1037" y="245" on="0"/>
        <pt x="1049" y="239" on="0"/>
        <pt x="1060" y="231" on="0"/>
        <pt x="1070" y="221" on="0"/>
      </contour>
    </TTGlyph>
    <TTGlyph name="Eacute" xMin="44" yMin="12" xMax="1083" yMax="1948">
      <component glyphName="E" x="0" y="0" flags="0x204"/>
      <component glyphName="acute" x="434" y="211" flags="0x4"/>
    </TTGlyph>
    <TTGlyph name="Ebreve" xMin="44" yMin="12" xMax="1083" yMax="1917">
      <component glyphName="E" x="0" y="0" flags="0x204"/>
      <component glyphName="breve" x="266" y="229" flags="0x4"/>
    </TTGlyph>
    <TTGlyph name="Ecaron" xMin="44" yMin="12" xMax="1083" yMax="1941">
      <component glyphName="E" x="0" y="0" flags="0x204"/>
      <component glyphName="caron" x="281" y="229" flags="0x4"/>
    </TTGlyph>
    <TTGlyph name="Ecircumflex" xMin="44" yMin="12" xMax="1083" yMax="1937">
      <component glyphName="E" x="0" y="0" flags="0x204"/>
      <component glyphName="circumflex" x="260" y="225" flags="0x4"/>
    </TTGlyph>
    <TTGlyph name="Edieresis" xMin="44" yMin="12" xMax="1083" yMax="1804">
      <component glyphName="E" x="0" y="0" flags="0x204"/>
      <component glyphName="dieresis" x="246" y="229" flags="0x4"/>
    </TTGlyph>
    <TTGlyph name="Edotaccent" xMin="44" yMin="12" xMax="1083" yMax="1776">
      <component glyphName="E" x="0" y="0" flags="0x204"/>
      <component glyphName="dotaccent" x="432" y="207" flags="0x4"/>
    </TTGlyph>
    <TTGlyph name="Egrave" xMin="44" yMin="12" xMax="1083" yMax="1962">
      <component glyphName="E" x="0" y="0" flags="0x204"/>
      <component glyphName="grave" x="215" y="225" flags="0x4"/>
    </TTGlyph>
    <TTGlyph name="Emacron" xMin="44" yMin="12" xMax="1083" yMax="1747">
      <component glyphName="E" x="0" y="0" flags="0x204"/>
      <component glyphName="macron" x="209" y="219" flags="0x4"/>
    </TTGlyph>
    <TTGlyph name="Eng" xMin="109" yMin="-633" xMax="1153" yMax="1478">
      <contour>
        <pt x="1153" y="131" on="1"/>
        <pt x="1153" y="60" on="0"/>
        <pt x="1147" y="-83" on="0"/>
        <pt x="1147" y="-156" on="1"/>
        <pt x="1147" y="-184" on="0"/>
        <pt x="1131" y="-222" on="0"/>
        <pt x="1126" y="-248" on="1"/>
        <pt x="1121" y="-267" on="0"/>
        <pt x="1120" y="-298" on="0"/>
        <pt x="1117" y="-327" on="0"/>
        <pt x="1110" y="-357" on="0"/>
        <pt x="1100" y="-375" on="1"/>
        <pt x="1097" y="-378" on="0"/>
        <pt x="1096" y="-386" on="0"/>
        <pt x="1096" y="-389" on="1"/>
        <pt x="1096" y="-397" on="0"/>
        <pt x="1100" y="-412" on="0"/>
        <pt x="1100" y="-420" on="1"/>
        <pt x="1100" y="-426" on="1"/>
        <pt x="1057" y="-490" on="0"/>
        <pt x="1020" y="-559" on="1"/>
        <pt x="1006" y="-564" on="0"/>
        <pt x="975" y="-565" on="0"/>
        <pt x="961" y="-571" on="1"/>
        <pt x="946" y="-578" on="0"/>
        <pt x="925" y="-599" on="0"/>
        <pt x="903" y="-619" on="0"/>
        <pt x="876" y="-633" on="0"/>
        <pt x="856" y="-633" on="1"/>
        <pt x="842" y="-633" on="0"/>
        <pt x="815" y="-626" on="0"/>
        <pt x="787" y="-617" on="0"/>
        <pt x="758" y="-610" on="0"/>
        <pt x="743" y="-610" on="1"/>
        <pt x="720" y="-610" on="0"/>
        <pt x="676" y="-614" on="0"/>
        <pt x="653" y="-614" on="1"/>
        <pt x="647" y="-614" on="0"/>
        <pt x="631" y="-614" on="0"/>
        <pt x="625" y="-612" on="1"/>
        <pt x="616" y="-609" on="0"/>
        <pt x="569" y="-579" on="0"/>
        <pt x="519" y="-542" on="0"/>
        <pt x="480" y="-508" on="0"/>
        <pt x="479" y="-500" on="1"/>
        <pt x="468" y="-497" on="0"/>
        <pt x="450" y="-483" on="0"/>
        <pt x="435" y="-465" on="0"/>
        <pt x="420" y="-447" on="0"/>
        <pt x="412" y="-440" on="1"/>
        <pt x="386" y="-416" on="0"/>
        <pt x="354" y="-390" on="0"/>
        <pt x="338" y="-363" on="0"/>
        <pt x="333" y="-322" on="0"/>
        <pt x="334" y="-283" on="1"/>
        <pt x="334" y="-236" on="1"/>
        <pt x="354" y="-229" on="0"/>
        <pt x="390" y="-203" on="0"/>
        <pt x="412" y="-203" on="1"/>
        <pt x="415" y="-203" on="0"/>
        <pt x="439" y="-210" on="0"/>
        <pt x="467" y="-219" on="0"/>
        <pt x="490" y="-228" on="0"/>
        <pt x="492" y="-229" on="1"/>
        <pt x="499" y="-234" on="0"/>
        <pt x="517" y="-258" on="0"/>
        <pt x="539" y="-284" on="0"/>
        <pt x="567" y="-306" on="0"/>
        <pt x="584" y="-307" on="1"/>
        <pt x="589" y="-326" on="0"/>
        <pt x="615" y="-351" on="0"/>
        <pt x="625" y="-367" on="1"/>
        <pt x="640" y="-373" on="0"/>
        <pt x="669" y="-387" on="0"/>
        <pt x="684" y="-393" on="1"/>
        <pt x="690" y="-412" on="0"/>
        <pt x="721" y="-426" on="0"/>
        <pt x="739" y="-426" on="1"/>
        <pt x="772" y="-426" on="0"/>
        <pt x="816" y="-398" on="0"/>
        <pt x="847" y="-355" on="0"/>
        <pt x="869" y="-304" on="0"/>
        <pt x="881" y="-281" on="1"/>
        <pt x="884" y="-274" on="0"/>
        <pt x="892" y="-262" on="0"/>
        <pt x="895" y="-256" on="1"/>
        <pt x="901" y="-233" on="0"/>
        <pt x="896" y="-185" on="0"/>
        <pt x="901" y="-162" on="1"/>
        <pt x="904" y="-147" on="0"/>
        <pt x="915" y="-121" on="0"/>
        <pt x="926" y="-97" on="0"/>
        <pt x="934" y="-70" on="0"/>
        <pt x="934" y="-53" on="1"/>
        <pt x="934" y="-32" on="0"/>
        <pt x="933" y="31" on="0"/>
        <pt x="928" y="97" on="0"/>
        <pt x="920" y="156" on="0"/>
        <pt x="913" y="174" on="1"/>
        <pt x="906" y="194" on="0"/>
        <pt x="883" y="225" on="0"/>
        <pt x="856" y="253" on="0"/>
        <pt x="830" y="281" on="0"/>
        <pt x="821" y="299" on="1"/>
        <pt x="816" y="311" on="0"/>
        <pt x="805" y="337" on="0"/>
        <pt x="790" y="360" on="0"/>
        <pt x="770" y="377" on="0"/>
        <pt x="756" y="379" on="1"/>
        <pt x="754" y="390" on="0"/>
        <pt x="743" y="417" on="0"/>
        <pt x="735" y="426" on="1"/>
        <pt x="707" y="457" on="0"/>
        <pt x="654" y="516" on="0"/>
        <pt x="631" y="551" on="1"/>
        <pt x="625" y="560" on="0"/>
        <pt x="616" y="581" on="0"/>
        <pt x="610" y="590" on="1"/>
        <pt x="605" y="598" on="0"/>
        <pt x="590" y="608" on="0"/>
        <pt x="584" y="616" on="1"/>
        <pt x="539" y="678" on="0"/>
        <pt x="452" y="800" on="0"/>
        <pt x="406" y="860" on="1"/>
        <pt x="390" y="880" on="0"/>
        <pt x="371" y="928" on="0"/>
        <pt x="352" y="946" on="1"/>
        <pt x="349" y="931" on="0"/>
        <pt x="346" y="896" on="0"/>
        <pt x="346" y="879" on="1"/>
        <pt x="346" y="845" on="0"/>
        <pt x="352" y="780" on="0"/>
        <pt x="352" y="745" on="1"/>
        <pt x="352" y="702" on="0"/>
        <pt x="340" y="620" on="0"/>
        <pt x="340" y="578" on="1"/>
        <pt x="340" y="568" on="0"/>
        <pt x="346" y="553" on="0"/>
        <pt x="346" y="545" on="1"/>
        <pt x="346" y="530" on="0"/>
        <pt x="340" y="518" on="1"/>
        <pt x="340" y="509" on="0"/>
        <pt x="346" y="493" on="0"/>
        <pt x="346" y="485" on="1"/>
        <pt x="346" y="477" on="0"/>
        <pt x="340" y="467" on="0"/>
        <pt x="340" y="459" on="1"/>
        <pt x="340" y="449" on="0"/>
        <pt x="350" y="429" on="0"/>
        <pt x="352" y="418" on="1"/>
        <pt x="358" y="389" on="0"/>
        <pt x="360" y="326" on="0"/>
        <pt x="360" y="295" on="1"/>
        <pt x="360" y="266" on="0"/>
        <pt x="363" y="182" on="0"/>
        <pt x="360" y="95" on="0"/>
        <pt x="344" y="17" on="0"/>
        <pt x="326" y="-4" on="1"/>
        <pt x="307" y="-12" on="0"/>
        <pt x="264" y="-25" on="0"/>
        <pt x="244" y="-25" on="1"/>
        <pt x="231" y="-25" on="0"/>
        <pt x="195" y="8" on="0"/>
        <pt x="163" y="53" on="0"/>
        <pt x="141" y="99" on="0"/>
        <pt x="141" y="111" on="1"/>
        <pt x="141" y="122" on="0"/>
        <pt x="147" y="143" on="0"/>
        <pt x="147" y="154" on="1"/>
        <pt x="147" y="173" on="0"/>
        <pt x="141" y="221" on="0"/>
        <pt x="135" y="270" on="0"/>
        <pt x="129" y="315" on="0"/>
        <pt x="129" y="332" on="1"/>
        <pt x="129" y="344" on="0"/>
        <pt x="141" y="366" on="0"/>
        <pt x="141" y="379" on="1"/>
        <pt x="138" y="385" on="0"/>
        <pt x="136" y="403" on="0"/>
        <pt x="133" y="420" on="0"/>
        <pt x="128" y="435" on="0"/>
        <pt x="121" y="438" on="1"/>
        <pt x="127" y="444" on="0"/>
        <pt x="133" y="462" on="0"/>
        <pt x="133" y="471" on="1"/>
        <pt x="133" y="483" on="0"/>
        <pt x="129" y="508" on="0"/>
        <pt x="129" y="520" on="1"/>
        <pt x="129" y="526" on="0"/>
        <pt x="135" y="537" on="0"/>
        <pt x="135" y="545" on="1"/>
        <pt x="135" y="548" on="0"/>
        <pt x="129" y="555" on="0"/>
        <pt x="129" y="563" on="1"/>
        <pt x="129" y="572" on="0"/>
        <pt x="141" y="588" on="0"/>
        <pt x="141" y="596" on="1"/>
        <pt x="141" y="605" on="0"/>
        <pt x="135" y="616" on="0"/>
        <pt x="135" y="623" on="1"/>
        <pt x="135" y="632" on="0"/>
        <pt x="141" y="643" on="0"/>
        <pt x="141" y="649" on="1"/>
        <pt x="141" y="743" on="0"/>
        <pt x="121" y="932" on="0"/>
        <pt x="121" y="1026" on="1"/>
        <pt x="121" y="1040" on="0"/>
        <pt x="135" y="1061" on="0"/>
        <pt x="135" y="1073" on="1"/>
        <pt x="135" y="1091" on="0"/>
        <pt x="127" y="1125" on="0"/>
        <pt x="117" y="1159" on="0"/>
        <pt x="109" y="1193" on="0"/>
        <pt x="109" y="1210" on="1"/>
        <pt x="109" y="1230" on="0"/>
        <pt x="123" y="1268" on="0"/>
        <pt x="123" y="1288" on="1"/>
        <pt x="123" y="1305" on="0"/>
        <pt x="113" y="1339" on="0"/>
        <pt x="115" y="1356" on="1"/>
        <pt x="115" y="1370" on="1"/>
        <pt x="130" y="1386" on="0"/>
        <pt x="168" y="1410" on="0"/>
        <pt x="180" y="1430" on="1"/>
        <pt x="202" y="1436" on="0"/>
        <pt x="223" y="1436" on="1"/>
        <pt x="240" y="1436" on="0"/>
        <pt x="276" y="1428" on="0"/>
        <pt x="293" y="1423" on="1"/>
        <pt x="315" y="1386" on="0"/>
        <pt x="353" y="1312" on="0"/>
        <pt x="373" y="1278" on="1"/>
        <pt x="378" y="1269" on="0"/>
        <pt x="394" y="1259" on="0"/>
        <pt x="399" y="1251" on="1"/>
        <pt x="404" y="1243" on="0"/>
        <pt x="407" y="1225" on="0"/>
        <pt x="412" y="1219" on="1"/>
        <pt x="423" y="1203" on="0"/>
        <pt x="456" y="1181" on="0"/>
        <pt x="465" y="1165" on="1"/>
        <pt x="474" y="1150" on="0"/>
        <pt x="485" y="1115" on="0"/>
        <pt x="498" y="1100" on="1"/>
        <pt x="513" y="1080" on="0"/>
        <pt x="554" y="1052" on="0"/>
        <pt x="571" y="1032" on="1"/>
        <pt x="579" y="1023" on="0"/>
        <pt x="590" y="998" on="0"/>
        <pt x="598" y="987" on="1"/>
        <pt x="620" y="956" on="0"/>
        <pt x="651" y="899" on="0"/>
        <pt x="670" y="868" on="1"/>
        <pt x="688" y="836" on="0"/>
        <pt x="737" y="781" on="0"/>
        <pt x="756" y="750" on="1"/>
        <pt x="759" y="745" on="0"/>
        <pt x="759" y="734" on="0"/>
        <pt x="762" y="729" on="1"/>
        <pt x="776" y="723" on="1"/>
        <pt x="781" y="717" on="0"/>
        <pt x="783" y="703" on="0"/>
        <pt x="788" y="696" on="1"/>
        <pt x="793" y="690" on="0"/>
        <pt x="829" y="649" on="0"/>
        <pt x="870" y="606" on="0"/>
        <pt x="904" y="571" on="0"/>
        <pt x="907" y="571" on="1"/>
        <pt x="910" y="578" on="0"/>
        <pt x="911" y="590" on="0"/>
        <pt x="911" y="598" on="1"/>
        <pt x="911" y="620" on="0"/>
        <pt x="901" y="660" on="0"/>
        <pt x="901" y="682" on="1"/>
        <pt x="901" y="717" on="0"/>
        <pt x="909" y="786" on="0"/>
        <pt x="909" y="821" on="1"/>
        <pt x="909" y="863" on="0"/>
        <pt x="889" y="944" on="0"/>
        <pt x="889" y="987" on="1"/>
        <pt x="889" y="1013" on="0"/>
        <pt x="901" y="1066" on="0"/>
        <pt x="901" y="1092" on="1"/>
        <pt x="901" y="1101" on="0"/>
        <pt x="895" y="1116" on="0"/>
        <pt x="895" y="1124" on="1"/>
        <pt x="895" y="1159" on="0"/>
        <pt x="913" y="1228" on="0"/>
        <pt x="913" y="1262" on="1"/>
        <pt x="913" y="1294" on="0"/>
        <pt x="906" y="1365" on="0"/>
        <pt x="901" y="1397" on="1"/>
        <pt x="915" y="1406" on="0"/>
        <pt x="925" y="1442" on="0"/>
        <pt x="934" y="1456" on="1"/>
        <pt x="943" y="1458" on="0"/>
        <pt x="961" y="1466" on="0"/>
        <pt x="979" y="1473" on="0"/>
        <pt x="997" y="1478" on="0"/>
        <pt x="1006" y="1477" on="1"/>
        <pt x="1020" y="1475" on="1"/>
        <pt x="1027" y="1475" on="0"/>
        <pt x="1049" y="1464" on="0"/>
        <pt x="1070" y="1447" on="0"/>
        <pt x="1089" y="1429" on="0"/>
        <pt x="1094" y="1423" on="1"/>
        <pt x="1112" y="1392" on="0"/>
        <pt x="1112" y="1318" on="0"/>
        <pt x="1112" y="1284" on="1"/>
        <pt x="1112" y="1273" on="0"/>
        <pt x="1118" y="1264" on="1"/>
        <pt x="1116" y="1251" on="0"/>
        <pt x="1108" y="1231" on="0"/>
        <pt x="1106" y="1219" on="1"/>
        <pt x="1101" y="1171" on="0"/>
        <pt x="1108" y="1077" on="0"/>
        <pt x="1108" y="1030" on="1"/>
        <pt x="1108" y="1001" on="0"/>
        <pt x="1100" y="942" on="0"/>
        <pt x="1100" y="913" on="1"/>
        <pt x="1100" y="901" on="0"/>
        <pt x="1112" y="878" on="0"/>
        <pt x="1112" y="868" on="1"/>
        <pt x="1112" y="860" on="0"/>
        <pt x="1106" y="850" on="0"/>
        <pt x="1106" y="842" on="1"/>
        <pt x="1106" y="804" on="0"/>
        <pt x="1107" y="727" on="0"/>
        <pt x="1112" y="690" on="1"/>
        <pt x="1115" y="672" on="0"/>
        <pt x="1126" y="637" on="0"/>
        <pt x="1126" y="618" on="1"/>
        <pt x="1126" y="592" on="0"/>
        <pt x="1112" y="540" on="0"/>
        <pt x="1112" y="514" on="1"/>
        <pt x="1112" y="499" on="0"/>
        <pt x="1120" y="469" on="0"/>
        <pt x="1131" y="440" on="0"/>
        <pt x="1139" y="410" on="0"/>
        <pt x="1139" y="395" on="1"/>
        <pt x="1139" y="380" on="0"/>
        <pt x="1133" y="354" on="0"/>
        <pt x="1133" y="340" on="1"/>
        <pt x="1133" y="287" on="0"/>
        <pt x="1153" y="185" on="0"/>
      </contour>
    </TTGlyph>
    <TTGlyph name="Eogonek" xMin="44" yMin="-260" xMax="1083" yMax="1485">
      <contour>
        <pt x="1051" y="-156" on="1"/>
        <pt x="1051" y="-191" on="0"/>
        <pt x="1025" y="-229" on="0"/>
        <pt x="1008" y="-236" on="1"/>
        <pt x="975" y="-248" on="1"/>
        <pt x="967" y="-253" on="0"/>
        <pt x="953" y="-260" on="0"/>
        <pt x="936" y="-260" on="1"/>
        <pt x="930" y="-260" on="0"/>
        <pt x="923" y="-259" on="0"/>
        <pt x="918" y="-256" on="1"/>
        <pt x="913" y="-256" on="0"/>
        <pt x="904" y="-258" on="0"/>
        <pt x="901" y="-258" on="1"/>
        <pt x="887" y="-258" on="1"/>
        <pt x="873" y="-258" on="0"/>
        <pt x="862" y="-253" on="0"/>
        <pt x="860" y="-248" on="1"/>
        <pt x="858" y="-246" on="1"/>
        <pt x="856" y="-242" on="0"/>
        <pt x="840" y="-237" on="0"/>
        <pt x="819" y="-227" on="0"/>
        <pt x="797" y="-210" on="0"/>
        <pt x="788" y="-195" on="1"/>
        <pt x="782" y="-179" on="0"/>
        <pt x="770" y="-170" on="1"/>
        <pt x="770" y="-143" on="1"/>
        <pt x="770" y="-138" on="0"/>
        <pt x="762" y="-126" on="0"/>
        <pt x="762" y="-117" on="1"/>
        <pt x="762" y="-107" on="0"/>
        <pt x="766" y="-91" on="0"/>
        <pt x="766" y="-80" on="1"/>
        <pt x="766" y="-77" on="0"/>
        <pt x="765" y="-68" on="0"/>
        <pt x="760" y="-61" on="1"/>
        <pt x="771" y="-50" on="0"/>
        <pt x="803" y="3" on="0"/>
        <pt x="817" y="29" on="1"/>
        <pt x="797" y="26" on="0"/>
        <pt x="763" y="18" on="0"/>
        <pt x="748" y="18" on="1"/>
        <pt x="722" y="18" on="0"/>
        <pt x="665" y="27" on="0"/>
        <pt x="637" y="27" on="1"/>
        <pt x="620" y="27" on="0"/>
        <pt x="589" y="20" on="0"/>
        <pt x="573" y="12" on="1"/>
        <pt x="558" y="12" on="0"/>
        <pt x="533" y="31" on="0"/>
        <pt x="516" y="31" on="1"/>
        <pt x="507" y="31" on="0"/>
        <pt x="493" y="25" on="0"/>
        <pt x="483" y="25" on="1"/>
        <pt x="466" y="25" on="0"/>
        <pt x="437" y="39" on="0"/>
        <pt x="420" y="39" on="1"/>
        <pt x="395" y="39" on="0"/>
        <pt x="341" y="18" on="0"/>
        <pt x="313" y="18" on="1"/>
        <pt x="297" y="18" on="0"/>
        <pt x="272" y="32" on="0"/>
        <pt x="249" y="53" on="0"/>
        <pt x="229" y="75" on="0"/>
        <pt x="217" y="84" on="1"/>
        <pt x="215" y="96" on="0"/>
        <pt x="200" y="148" on="0"/>
        <pt x="184" y="204" on="0"/>
        <pt x="172" y="252" on="0"/>
        <pt x="172" y="260" on="1"/>
        <pt x="172" y="271" on="0"/>
        <pt x="178" y="292" on="0"/>
        <pt x="178" y="303" on="1"/>
        <pt x="178" y="317" on="0"/>
        <pt x="168" y="342" on="0"/>
        <pt x="168" y="356" on="1"/>
        <pt x="168" y="359" on="0"/>
        <pt x="169" y="391" on="0"/>
        <pt x="170" y="428" on="0"/>
        <pt x="171" y="460" on="0"/>
        <pt x="172" y="463" on="1"/>
        <pt x="170" y="477" on="0"/>
        <pt x="159" y="502" on="0"/>
        <pt x="154" y="516" on="1"/>
        <pt x="164" y="571" on="0"/>
        <pt x="166" y="670" on="0"/>
        <pt x="166" y="727" on="1"/>
        <pt x="166" y="732" on="0"/>
        <pt x="156" y="737" on="0"/>
        <pt x="143" y="739" on="0"/>
        <pt x="130" y="739" on="0"/>
        <pt x="127" y="739" on="1"/>
        <pt x="121" y="739" on="0"/>
        <pt x="107" y="741" on="0"/>
        <pt x="102" y="748" on="1"/>
        <pt x="84" y="753" on="0"/>
        <pt x="59" y="780" on="0"/>
        <pt x="45" y="793" on="1"/>
        <pt x="45" y="805" on="1"/>
        <pt x="44" y="822" on="0"/>
        <pt x="53" y="853" on="0"/>
        <pt x="64" y="884" on="0"/>
        <pt x="74" y="915" on="0"/>
        <pt x="76" y="932" on="1"/>
        <pt x="85" y="938" on="0"/>
        <pt x="105" y="943" on="0"/>
        <pt x="102" y="958" on="1"/>
        <pt x="112" y="966" on="0"/>
        <pt x="145" y="965" on="0"/>
        <pt x="156" y="965" on="1"/>
        <pt x="160" y="965" on="1"/>
        <pt x="163" y="976" on="0"/>
        <pt x="164" y="997" on="0"/>
        <pt x="164" y="1008" on="1"/>
        <pt x="164" y="1060" on="0"/>
        <pt x="145" y="1162" on="0"/>
        <pt x="145" y="1214" on="1"/>
        <pt x="145" y="1229" on="0"/>
        <pt x="155" y="1284" on="0"/>
        <pt x="169" y="1343" on="0"/>
        <pt x="185" y="1398" on="0"/>
        <pt x="190" y="1413" on="1"/>
        <pt x="218" y="1418" on="0"/>
        <pt x="267" y="1440" on="0"/>
        <pt x="293" y="1440" on="1"/>
        <pt x="308" y="1440" on="0"/>
        <pt x="340" y="1434" on="0"/>
        <pt x="354" y="1434" on="1"/>
        <pt x="368" y="1434" on="0"/>
        <pt x="390" y="1440" on="0"/>
        <pt x="414" y="1446" on="0"/>
        <pt x="444" y="1452" on="0"/>
        <pt x="465" y="1452" on="1"/>
        <pt x="545" y="1452" on="0"/>
        <pt x="710" y="1467" on="0"/>
        <pt x="791" y="1481" on="1"/>
        <pt x="796" y="1481" on="0"/>
        <pt x="805" y="1485" on="0"/>
        <pt x="811" y="1485" on="1"/>
        <pt x="814" y="1485" on="0"/>
        <pt x="821" y="1476" on="0"/>
        <pt x="823" y="1473" on="1"/>
        <pt x="829" y="1476" on="0"/>
        <pt x="846" y="1477" on="0"/>
        <pt x="854" y="1477" on="1"/>
        <pt x="883" y="1477" on="0"/>
        <pt x="941" y="1460" on="0"/>
        <pt x="969" y="1454" on="1"/>
        <pt x="974" y="1434" on="0"/>
        <pt x="983" y="1396" on="0"/>
        <pt x="983" y="1376" on="1"/>
        <pt x="983" y="1342" on="0"/>
        <pt x="963" y="1309" on="0"/>
        <pt x="933" y="1290" on="0"/>
        <pt x="899" y="1273" on="0"/>
        <pt x="885" y="1255" on="1"/>
        <pt x="870" y="1255" on="1"/>
        <pt x="833" y="1259" on="0"/>
        <pt x="759" y="1249" on="0"/>
        <pt x="721" y="1249" on="1"/>
        <pt x="706" y="1249" on="0"/>
        <pt x="683" y="1244" on="0"/>
        <pt x="664" y="1236" on="0"/>
        <pt x="644" y="1227" on="0"/>
        <pt x="631" y="1223" on="1"/>
        <pt x="615" y="1226" on="0"/>
        <pt x="587" y="1229" on="0"/>
        <pt x="571" y="1229" on="1"/>
        <pt x="519" y="1229" on="0"/>
        <pt x="421" y="1205" on="0"/>
        <pt x="371" y="1202" on="1"/>
        <pt x="362" y="1190" on="0"/>
        <pt x="362" y="1176" on="1"/>
        <pt x="362" y="1157" on="0"/>
        <pt x="375" y="1122" on="0"/>
        <pt x="377" y="1104" on="1"/>
        <pt x="378" y="1086" on="0"/>
        <pt x="377" y="1047" on="0"/>
        <pt x="378" y="1009" on="0"/>
        <pt x="385" y="973" on="0"/>
        <pt x="395" y="958" on="1"/>
        <pt x="401" y="956" on="0"/>
        <pt x="416" y="954" on="0"/>
        <pt x="424" y="954" on="1"/>
        <pt x="449" y="954" on="0"/>
        <pt x="500" y="965" on="0"/>
        <pt x="524" y="965" on="1"/>
        <pt x="564" y="965" on="0"/>
        <pt x="641" y="944" on="0"/>
        <pt x="682" y="944" on="1"/>
        <pt x="691" y="944" on="0"/>
        <pt x="710" y="952" on="0"/>
        <pt x="721" y="952" on="1"/>
        <pt x="726" y="952" on="0"/>
        <pt x="736" y="944" on="0"/>
        <pt x="745" y="944" on="1"/>
        <pt x="759" y="944" on="0"/>
        <pt x="783" y="958" on="0"/>
        <pt x="799" y="958" on="1"/>
        <pt x="812" y="958" on="0"/>
        <pt x="835" y="947" on="0"/>
        <pt x="857" y="932" on="0"/>
        <pt x="879" y="919" on="0"/>
        <pt x="891" y="918" on="1"/>
        <pt x="891" y="898" on="0"/>
        <pt x="911" y="862" on="0"/>
        <pt x="911" y="842" on="1"/>
        <pt x="911" y="826" on="0"/>
        <pt x="887" y="791" on="0"/>
        <pt x="853" y="761" on="0"/>
        <pt x="816" y="737" on="0"/>
        <pt x="803" y="733" on="1"/>
        <pt x="795" y="731" on="0"/>
        <pt x="780" y="733" on="0"/>
        <pt x="774" y="733" on="1"/>
        <pt x="761" y="733" on="0"/>
        <pt x="735" y="725" on="0"/>
        <pt x="710" y="715" on="0"/>
        <pt x="683" y="707" on="0"/>
        <pt x="668" y="707" on="1"/>
        <pt x="646" y="707" on="0"/>
        <pt x="603" y="713" on="0"/>
        <pt x="580" y="713" on="1"/>
        <pt x="567" y="713" on="0"/>
        <pt x="545" y="707" on="0"/>
        <pt x="532" y="707" on="1"/>
        <pt x="521" y="707" on="0"/>
        <pt x="491" y="717" on="0"/>
        <pt x="461" y="729" on="0"/>
        <pt x="435" y="739" on="0"/>
        <pt x="428" y="739" on="1"/>
        <pt x="424" y="739" on="0"/>
        <pt x="419" y="734" on="0"/>
        <pt x="414" y="729" on="0"/>
        <pt x="407" y="725" on="0"/>
        <pt x="401" y="727" on="1"/>
        <pt x="396" y="718" on="0"/>
        <pt x="393" y="699" on="0"/>
        <pt x="393" y="690" on="1"/>
        <pt x="393" y="670" on="0"/>
        <pt x="401" y="633" on="0"/>
        <pt x="401" y="614" on="1"/>
        <pt x="401" y="600" on="0"/>
        <pt x="393" y="571" on="0"/>
        <pt x="393" y="557" on="1"/>
        <pt x="393" y="544" on="0"/>
        <pt x="401" y="497" on="0"/>
        <pt x="412" y="445" on="0"/>
        <pt x="420" y="392" on="0"/>
        <pt x="420" y="373" on="1"/>
        <pt x="420" y="342" on="0"/>
        <pt x="414" y="281" on="0"/>
        <pt x="414" y="250" on="1"/>
        <pt x="442" y="242" on="0"/>
        <pt x="496" y="238" on="0"/>
        <pt x="524" y="238" on="1"/>
        <pt x="590" y="238" on="0"/>
        <pt x="724" y="254" on="0"/>
        <pt x="791" y="256" on="1"/>
        <pt x="812" y="256" on="0"/>
        <pt x="853" y="254" on="0"/>
        <pt x="874" y="254" on="1"/>
        <pt x="899" y="254" on="0"/>
        <pt x="943" y="276" on="0"/>
        <pt x="965" y="276" on="1"/>
        <pt x="1003" y="276" on="0"/>
        <pt x="1020" y="242" on="1"/>
        <pt x="1028" y="244" on="1"/>
        <pt x="1037" y="245" on="0"/>
        <pt x="1049" y="239" on="0"/>
        <pt x="1060" y="231" on="0"/>
        <pt x="1070" y="221" on="0"/>
        <pt x="1077" y="217" on="1"/>
        <pt x="1083" y="196" on="0"/>
        <pt x="1083" y="176" on="1"/>
        <pt x="1083" y="151" on="0"/>
        <pt x="1066" y="107" on="0"/>
        <pt x="1057" y="84" on="1"/>
        <pt x="1046" y="75" on="0"/>
        <pt x="1018" y="65" on="0"/>
        <pt x="1006" y="57" on="1"/>
        <pt x="995" y="49" on="0"/>
        <pt x="977" y="42" on="0"/>
        <pt x="969" y="39" on="1"/>
        <pt x="967" y="34" on="0"/>
        <pt x="967" y="28" on="0"/>
        <pt x="967" y="23" on="1"/>
        <pt x="955" y="17" on="0"/>
        <pt x="930" y="-16" on="0"/>
        <pt x="911" y="-54" on="0"/>
        <pt x="899" y="-92" on="0"/>
        <pt x="899" y="-104" on="1"/>
        <pt x="899" y="-117" on="0"/>
        <pt x="912" y="-135" on="0"/>
        <pt x="926" y="-135" on="1"/>
        <pt x="934" y="-135" on="0"/>
        <pt x="952" y="-124" on="0"/>
        <pt x="958" y="-119" on="1"/>
        <pt x="965" y="-113" on="1"/>
        <pt x="982" y="-113" on="0"/>
        <pt x="985" y="-106" on="1"/>
        <pt x="999" y="-102" on="1"/>
        <pt x="1010" y="-102" on="0"/>
        <pt x="1029" y="-112" on="0"/>
        <pt x="1043" y="-128" on="0"/>
        <pt x="1051" y="-147" on="0"/>
      </contour>
    </TTGlyph>
    <TTGlyph name="Eth" xMin="-10" yMin="-70" xMax="1104" yMax="1493">
      <contour>
        <pt x="1104" y="723" on="1"/>
        <pt x="1104" y="715" on="0"/>
        <pt x="1098" y="702" on="0"/>
        <pt x="1098" y="694" on="1"/>
        <pt x="1098" y="685" on="0"/>
        <pt x="1104" y="669" on="0"/>
        <pt x="1104" y="659" on="1"/>
        <pt x="1104" y="636" on="0"/>
        <pt x="1090" y="588" on="0"/>
        <pt x="1090" y="563" on="1"/>
        <pt x="1090" y="554" on="0"/>
        <pt x="1092" y="536" on="0"/>
        <pt x="1092" y="526" on="1"/>
        <pt x="1092" y="512" on="0"/>
        <pt x="1083" y="484" on="0"/>
        <pt x="1071" y="475" on="1"/>
        <pt x="1077" y="463" on="0"/>
        <pt x="1077" y="449" on="1"/>
        <pt x="1077" y="437" on="0"/>
        <pt x="1071" y="416" on="0"/>
        <pt x="1065" y="395" on="0"/>
        <pt x="1059" y="373" on="0"/>
        <pt x="1059" y="360" on="1"/>
        <pt x="1059" y="350" on="1"/>
        <pt x="1045" y="339" on="0"/>
        <pt x="1029" y="309" on="0"/>
        <pt x="1018" y="297" on="1"/>
        <pt x="1018" y="285" on="1"/>
        <pt x="1006" y="285" on="1"/>
        <pt x="973" y="231" on="1"/>
        <pt x="970" y="218" on="0"/>
        <pt x="964" y="210" on="0"/>
        <pt x="958" y="208" on="0"/>
        <pt x="950" y="209" on="0"/>
        <pt x="946" y="205" on="1"/>
        <pt x="929" y="193" on="0"/>
        <pt x="907" y="165" on="0"/>
        <pt x="884" y="141" on="0"/>
        <pt x="855" y="125" on="0"/>
        <pt x="831" y="125" on="1"/>
        <pt x="819" y="125" on="1"/>
        <pt x="801" y="116" on="0"/>
        <pt x="776" y="84" on="0"/>
        <pt x="768" y="66" on="1"/>
        <pt x="758" y="65" on="0"/>
        <pt x="733" y="56" on="0"/>
        <pt x="707" y="44" on="0"/>
        <pt x="684" y="31" on="0"/>
        <pt x="676" y="27" on="1"/>
        <pt x="668" y="12" on="1"/>
        <pt x="666" y="12" on="1"/>
        <pt x="663" y="12" on="0"/>
        <pt x="654" y="14" on="0"/>
        <pt x="651" y="14" on="1"/>
        <pt x="649" y="12" on="1"/>
        <pt x="626" y="4" on="0"/>
        <pt x="585" y="-23" on="0"/>
        <pt x="563" y="-33" on="1"/>
        <pt x="547" y="-39" on="0"/>
        <pt x="509" y="-51" on="0"/>
        <pt x="472" y="-60" on="0"/>
        <pt x="437" y="-66" on="0"/>
        <pt x="424" y="-66" on="1"/>
        <pt x="410" y="-66" on="0"/>
        <pt x="385" y="-59" on="0"/>
        <pt x="371" y="-59" on="1"/>
        <pt x="357" y="-59" on="0"/>
        <pt x="331" y="-70" on="0"/>
        <pt x="317" y="-70" on="1"/>
        <pt x="312" y="-70" on="0"/>
        <pt x="302" y="-69" on="0"/>
        <pt x="299" y="-66" on="1"/>
        <pt x="291" y="-53" on="1"/>
        <pt x="265" y="-47" on="0"/>
        <pt x="252" y="-47" on="1"/>
        <pt x="246" y="-47" on="0"/>
        <pt x="234" y="-49" on="0"/>
        <pt x="229" y="-49" on="1"/>
        <pt x="227" y="-49" on="0"/>
        <pt x="205" y="-35" on="0"/>
        <pt x="179" y="-3" on="0"/>
        <pt x="158" y="45" on="0"/>
        <pt x="158" y="80" on="1"/>
        <pt x="158" y="106" on="0"/>
        <pt x="166" y="159" on="0"/>
        <pt x="166" y="186" on="1"/>
        <pt x="166" y="202" on="0"/>
        <pt x="158" y="232" on="0"/>
        <pt x="158" y="248" on="1"/>
        <pt x="158" y="256" on="0"/>
        <pt x="160" y="271" on="0"/>
        <pt x="160" y="279" on="1"/>
        <pt x="160" y="288" on="0"/>
        <pt x="154" y="301" on="0"/>
        <pt x="154" y="309" on="1"/>
        <pt x="154" y="323" on="0"/>
        <pt x="166" y="350" on="0"/>
        <pt x="166" y="367" on="1"/>
        <pt x="166" y="401" on="1"/>
        <pt x="166" y="415" on="0"/>
        <pt x="172" y="441" on="0"/>
        <pt x="172" y="455" on="1"/>
        <pt x="172" y="476" on="0"/>
        <pt x="154" y="517" on="0"/>
        <pt x="154" y="539" on="1"/>
        <pt x="154" y="575" on="0"/>
        <pt x="160" y="614" on="1"/>
        <pt x="143" y="616" on="0"/>
        <pt x="113" y="618" on="0"/>
        <pt x="96" y="618" on="1"/>
        <pt x="85" y="618" on="0"/>
        <pt x="66" y="616" on="0"/>
        <pt x="55" y="616" on="1"/>
        <pt x="28" y="616" on="0"/>
        <pt x="1" y="639" on="0"/>
        <pt x="-10" y="674" on="0"/>
        <pt x="-10" y="716" on="0"/>
        <pt x="-10" y="735" on="1"/>
        <pt x="-10" y="764" on="1"/>
        <pt x="18" y="804" on="0"/>
        <pt x="89" y="829" on="0"/>
        <pt x="131" y="829" on="1"/>
        <pt x="137" y="829" on="0"/>
        <pt x="145" y="825" on="1"/>
        <pt x="145" y="829" on="1"/>
        <pt x="145" y="846" on="0"/>
        <pt x="160" y="875" on="0"/>
        <pt x="166" y="891" on="1"/>
        <pt x="161" y="906" on="0"/>
        <pt x="163" y="936" on="0"/>
        <pt x="160" y="950" on="1"/>
        <pt x="158" y="963" on="0"/>
        <pt x="147" y="985" on="0"/>
        <pt x="147" y="997" on="1"/>
        <pt x="145" y="999" on="1"/>
        <pt x="145" y="1012" on="0"/>
        <pt x="154" y="1031" on="0"/>
        <pt x="154" y="1042" on="1"/>
        <pt x="154" y="1061" on="0"/>
        <pt x="139" y="1098" on="0"/>
        <pt x="139" y="1118" on="1"/>
        <pt x="139" y="1129" on="0"/>
        <pt x="146" y="1141" on="0"/>
        <pt x="154" y="1149" on="1"/>
        <pt x="154" y="1153" on="1"/>
        <pt x="154" y="1162" on="0"/>
        <pt x="147" y="1181" on="0"/>
        <pt x="147" y="1190" on="1"/>
        <pt x="147" y="1202" on="0"/>
        <pt x="150" y="1227" on="0"/>
        <pt x="150" y="1239" on="1"/>
        <pt x="150" y="1271" on="0"/>
        <pt x="133" y="1331" on="0"/>
        <pt x="133" y="1350" on="1"/>
        <pt x="133" y="1368" on="0"/>
        <pt x="147" y="1402" on="0"/>
        <pt x="154" y="1419" on="1"/>
        <pt x="152" y="1423" on="0"/>
        <pt x="152" y="1432" on="1"/>
        <pt x="152" y="1452" on="0"/>
        <pt x="170" y="1476" on="0"/>
        <pt x="197" y="1489" on="0"/>
        <pt x="228" y="1493" on="0"/>
        <pt x="242" y="1493" on="1"/>
        <pt x="276" y="1493" on="0"/>
        <pt x="343" y="1487" on="0"/>
        <pt x="377" y="1487" on="1"/>
        <pt x="386" y="1487" on="0"/>
        <pt x="402" y="1493" on="0"/>
        <pt x="412" y="1493" on="1"/>
        <pt x="455" y="1493" on="0"/>
        <pt x="527" y="1476" on="0"/>
        <pt x="569" y="1466" on="1"/>
        <pt x="586" y="1463" on="0"/>
        <pt x="619" y="1463" on="0"/>
        <pt x="635" y="1460" on="1"/>
        <pt x="647" y="1457" on="0"/>
        <pt x="670" y="1443" on="0"/>
        <pt x="682" y="1440" on="1"/>
        <pt x="693" y="1437" on="0"/>
        <pt x="727" y="1437" on="0"/>
        <pt x="735" y="1434" on="1"/>
        <pt x="745" y="1429" on="0"/>
        <pt x="759" y="1407" on="0"/>
        <pt x="768" y="1401" on="1"/>
        <pt x="777" y="1392" on="0"/>
        <pt x="798" y="1382" on="0"/>
        <pt x="807" y="1374" on="1"/>
        <pt x="811" y="1370" on="0"/>
        <pt x="814" y="1362" on="0"/>
        <pt x="818" y="1355" on="0"/>
        <pt x="825" y="1350" on="0"/>
        <pt x="834" y="1350" on="1"/>
        <pt x="843" y="1350" on="0"/>
        <pt x="853" y="1340" on="0"/>
        <pt x="860" y="1327" on="0"/>
        <pt x="867" y="1312" on="0"/>
        <pt x="872" y="1307" on="1"/>
        <pt x="888" y="1294" on="0"/>
        <pt x="929" y="1282" on="0"/>
        <pt x="946" y="1268" on="1"/>
        <pt x="950" y="1256" on="0"/>
        <pt x="967" y="1222" on="0"/>
        <pt x="984" y="1189" on="0"/>
        <pt x="997" y="1164" on="0"/>
        <pt x="999" y="1163" on="1"/>
        <pt x="1012" y="1155" on="1"/>
        <pt x="1017" y="1146" on="0"/>
        <pt x="1015" y="1125" on="0"/>
        <pt x="1018" y="1116" on="1"/>
        <pt x="1027" y="1095" on="0"/>
        <pt x="1055" y="1048" on="0"/>
        <pt x="1081" y="1001" on="0"/>
        <pt x="1100" y="959" on="0"/>
        <pt x="1100" y="944" on="1"/>
        <pt x="1100" y="933" on="0"/>
        <pt x="1098" y="912" on="0"/>
        <pt x="1098" y="901" on="1"/>
        <pt x="1098" y="886" on="0"/>
        <pt x="1104" y="857" on="0"/>
        <pt x="1104" y="842" on="1"/>
        <pt x="1104" y="825" on="0"/>
        <pt x="1092" y="795" on="0"/>
        <pt x="1092" y="778" on="1"/>
        <pt x="1092" y="764" on="0"/>
        <pt x="1104" y="738" on="0"/>
      </contour>
      <contour>
        <pt x="696" y="727" on="1"/>
        <pt x="696" y="708" on="0"/>
        <pt x="673" y="667" on="0"/>
        <pt x="640" y="632" on="0"/>
        <pt x="603" y="610" on="0"/>
        <pt x="588" y="610" on="1"/>
        <pt x="571" y="610" on="0"/>
        <pt x="539" y="618" on="0"/>
        <pt x="522" y="618" on="1"/>
        <pt x="505" y="618" on="0"/>
        <pt x="474" y="612" on="0"/>
        <pt x="457" y="612" on="1"/>
        <pt x="451" y="612" on="0"/>
        <pt x="438" y="618" on="0"/>
        <pt x="432" y="618" on="1"/>
        <pt x="423" y="618" on="0"/>
        <pt x="417" y="604" on="0"/>
        <pt x="412" y="604" on="1"/>
        <pt x="409" y="604" on="0"/>
        <pt x="405" y="602" on="0"/>
        <pt x="403" y="604" on="1"/>
        <pt x="403" y="584" on="1"/>
        <pt x="403" y="562" on="0"/>
        <pt x="397" y="522" on="0"/>
        <pt x="397" y="502" on="1"/>
        <pt x="397" y="493" on="0"/>
        <pt x="403" y="489" on="1"/>
        <pt x="401" y="468" on="0"/>
        <pt x="391" y="435" on="0"/>
        <pt x="391" y="414" on="1"/>
        <pt x="391" y="382" on="0"/>
        <pt x="399" y="321" on="0"/>
        <pt x="399" y="289" on="1"/>
        <pt x="399" y="260" on="0"/>
        <pt x="391" y="201" on="0"/>
        <pt x="391" y="172" on="1"/>
        <pt x="396" y="170" on="0"/>
        <pt x="405" y="170" on="0"/>
        <pt x="410" y="170" on="1"/>
        <pt x="428" y="170" on="0"/>
        <pt x="457" y="180" on="0"/>
        <pt x="486" y="195" on="0"/>
        <pt x="514" y="211" on="0"/>
        <pt x="530" y="217" on="1"/>
        <pt x="535" y="219" on="0"/>
        <pt x="581" y="234" on="0"/>
        <pt x="632" y="251" on="0"/>
        <pt x="674" y="264" on="0"/>
        <pt x="676" y="264" on="1"/>
        <pt x="701" y="304" on="0"/>
        <pt x="761" y="376" on="0"/>
        <pt x="795" y="410" on="1"/>
        <pt x="807" y="410" on="1"/>
        <pt x="807" y="422" on="1"/>
        <pt x="813" y="426" on="0"/>
        <pt x="817" y="426" on="0"/>
        <pt x="820" y="429" on="0"/>
        <pt x="826" y="437" on="0"/>
        <pt x="834" y="449" on="1"/>
        <pt x="837" y="454" on="0"/>
        <pt x="849" y="457" on="0"/>
        <pt x="854" y="463" on="1"/>
        <pt x="861" y="472" on="0"/>
        <pt x="868" y="514" on="0"/>
        <pt x="873" y="562" on="0"/>
        <pt x="876" y="608" on="0"/>
        <pt x="879" y="621" on="1"/>
        <pt x="882" y="635" on="0"/>
        <pt x="893" y="660" on="0"/>
        <pt x="893" y="674" on="1"/>
        <pt x="893" y="700" on="0"/>
        <pt x="878" y="752" on="0"/>
        <pt x="861" y="804" on="0"/>
        <pt x="846" y="855" on="0"/>
        <pt x="846" y="881" on="1"/>
        <pt x="846" y="890" on="0"/>
        <pt x="848" y="908" on="0"/>
        <pt x="848" y="918" on="1"/>
        <pt x="848" y="921" on="0"/>
        <pt x="838" y="951" on="0"/>
        <pt x="824" y="993" on="0"/>
        <pt x="806" y="1042" on="0"/>
        <pt x="789" y="1087" on="0"/>
        <pt x="777" y="1121" on="0"/>
        <pt x="774" y="1128" on="1"/>
        <pt x="759" y="1135" on="0"/>
        <pt x="729" y="1160" on="0"/>
        <pt x="699" y="1184" on="0"/>
        <pt x="669" y="1202" on="0"/>
        <pt x="653" y="1202" on="1"/>
        <pt x="649" y="1202" on="1"/>
        <pt x="640" y="1211" on="0"/>
        <pt x="613" y="1221" on="0"/>
        <pt x="582" y="1226" on="0"/>
        <pt x="550" y="1227" on="0"/>
        <pt x="537" y="1229" on="1"/>
        <pt x="506" y="1232" on="0"/>
        <pt x="449" y="1253" on="0"/>
        <pt x="418" y="1255" on="1"/>
        <pt x="412" y="1255" on="1"/>
        <pt x="411" y="1249" on="0"/>
        <pt x="410" y="1244" on="0"/>
        <pt x="409" y="1238" on="0"/>
        <pt x="408" y="1228" on="0"/>
        <pt x="408" y="1217" on="1"/>
        <pt x="408" y="1198" on="0"/>
        <pt x="391" y="1161" on="0"/>
        <pt x="391" y="1143" on="1"/>
        <pt x="391" y="1133" on="0"/>
        <pt x="397" y="1118" on="0"/>
        <pt x="397" y="1110" on="1"/>
        <pt x="397" y="1102" on="0"/>
        <pt x="385" y="1091" on="0"/>
        <pt x="385" y="1083" on="1"/>
        <pt x="385" y="1074" on="0"/>
        <pt x="391" y="1059" on="0"/>
        <pt x="391" y="1051" on="1"/>
        <pt x="391" y="1028" on="0"/>
        <pt x="387" y="984" on="0"/>
        <pt x="387" y="963" on="1"/>
        <pt x="387" y="922" on="0"/>
        <pt x="393" y="841" on="0"/>
        <pt x="395" y="801" on="1"/>
        <pt x="417" y="795" on="0"/>
        <pt x="438" y="795" on="1"/>
        <pt x="452" y="795" on="0"/>
        <pt x="466" y="799" on="0"/>
        <pt x="475" y="811" on="1"/>
        <pt x="480" y="811" on="0"/>
        <pt x="487" y="803" on="0"/>
        <pt x="492" y="803" on="1"/>
        <pt x="509" y="803" on="0"/>
        <pt x="542" y="811" on="0"/>
        <pt x="559" y="811" on="1"/>
        <pt x="579" y="811" on="0"/>
        <pt x="613" y="799" on="0"/>
        <pt x="633" y="799" on="1"/>
        <pt x="639" y="797" on="1"/>
        <pt x="649" y="784" on="1"/>
        <pt x="658" y="779" on="0"/>
        <pt x="674" y="771" on="0"/>
        <pt x="688" y="759" on="0"/>
        <pt x="696" y="741" on="0"/>
      </contour>
    </TTGlyph>
    <TTGlyph name="Euro" xMin="55" yMin="117" xMax="1169" yMax="1309">
      <contour>
        <pt x="1169" y="498" on="1"/>
        <pt x="1169" y="484" on="0"/>
        <pt x="1160" y="451" on="0"/>
        <pt x="1148" y="418" on="0"/>
        <pt x="1134" y="386" on="0"/>
        <pt x="1128" y="373" on="1"/>
        <pt x="1114" y="360" on="1"/>
        <pt x="1114" y="354" on="0"/>
        <pt x="1116" y="344" on="0"/>
        <pt x="1116" y="338" on="1"/>
        <pt x="1116" y="336" on="0"/>
        <pt x="1109" y="326" on="0"/>
        <pt x="1100" y="315" on="0"/>
        <pt x="1091" y="304" on="0"/>
        <pt x="1090" y="301" on="1"/>
        <pt x="1084" y="293" on="0"/>
        <pt x="1066" y="264" on="0"/>
        <pt x="1047" y="233" on="0"/>
        <pt x="1028" y="207" on="0"/>
        <pt x="1022" y="203" on="1"/>
        <pt x="1016" y="198" on="0"/>
        <pt x="1003" y="198" on="0"/>
        <pt x="995" y="195" on="1"/>
        <pt x="985" y="191" on="0"/>
        <pt x="969" y="182" on="0"/>
        <pt x="953" y="176" on="0"/>
        <pt x="935" y="174" on="0"/>
        <pt x="924" y="176" on="1"/>
        <pt x="912" y="173" on="0"/>
        <pt x="892" y="160" on="0"/>
        <pt x="871" y="145" on="0"/>
        <pt x="850" y="132" on="0"/>
        <pt x="838" y="129" on="1"/>
        <pt x="813" y="123" on="0"/>
        <pt x="751" y="117" on="0"/>
        <pt x="725" y="117" on="1"/>
        <pt x="720" y="117" on="0"/>
        <pt x="710" y="118" on="0"/>
        <pt x="707" y="123" on="1"/>
        <pt x="696" y="123" on="0"/>
        <pt x="677" y="117" on="0"/>
        <pt x="668" y="117" on="1"/>
        <pt x="654" y="117" on="0"/>
        <pt x="627" y="128" on="0"/>
        <pt x="600" y="142" on="0"/>
        <pt x="570" y="151" on="0"/>
        <pt x="553" y="150" on="1"/>
        <pt x="553" y="151" on="0"/>
        <pt x="529" y="176" on="0"/>
        <pt x="494" y="213" on="0"/>
        <pt x="451" y="256" on="0"/>
        <pt x="414" y="293" on="0"/>
        <pt x="386" y="320" on="0"/>
        <pt x="383" y="322" on="1"/>
        <pt x="383" y="326" on="1"/>
        <pt x="384" y="339" on="0"/>
        <pt x="370" y="368" on="0"/>
        <pt x="353" y="395" on="0"/>
        <pt x="337" y="415" on="0"/>
        <pt x="336" y="420" on="1"/>
        <pt x="330" y="438" on="0"/>
        <pt x="308" y="490" on="0"/>
        <pt x="297" y="506" on="1"/>
        <pt x="271" y="509" on="0"/>
        <pt x="219" y="506" on="0"/>
        <pt x="195" y="506" on="1"/>
        <pt x="166" y="506" on="0"/>
        <pt x="116" y="513" on="0"/>
        <pt x="77" y="536" on="0"/>
        <pt x="55" y="577" on="0"/>
        <pt x="55" y="612" on="1"/>
        <pt x="55" y="646" on="0"/>
        <pt x="97" y="694" on="0"/>
        <pt x="131" y="694" on="1"/>
        <pt x="154" y="694" on="0"/>
        <pt x="200" y="684" on="0"/>
        <pt x="223" y="684" on="1"/>
        <pt x="249" y="684" on="0"/>
        <pt x="270" y="696" on="1"/>
        <pt x="270" y="702" on="1"/>
        <pt x="271" y="721" on="0"/>
        <pt x="250" y="737" on="0"/>
        <pt x="220" y="744" on="0"/>
        <pt x="188" y="749" on="0"/>
        <pt x="178" y="756" on="1"/>
        <pt x="172" y="774" on="0"/>
        <pt x="150" y="816" on="0"/>
        <pt x="150" y="836" on="1"/>
        <pt x="150" y="851" on="0"/>
        <pt x="165" y="869" on="0"/>
        <pt x="170" y="883" on="1"/>
        <pt x="184" y="883" on="1"/>
        <pt x="199" y="897" on="0"/>
        <pt x="212" y="912" on="0"/>
        <pt x="224" y="919" on="0"/>
        <pt x="244" y="920" on="0"/>
        <pt x="268" y="920" on="1"/>
        <pt x="293" y="920" on="0"/>
        <pt x="308" y="931" on="0"/>
        <pt x="308" y="947" on="0"/>
        <pt x="306" y="963" on="0"/>
        <pt x="315" y="969" on="1"/>
        <pt x="315" y="971" on="0"/>
        <pt x="313" y="973" on="0"/>
        <pt x="313" y="975" on="1"/>
        <pt x="313" y="979" on="0"/>
        <pt x="319" y="982" on="0"/>
        <pt x="327" y="983" on="0"/>
        <pt x="334" y="985" on="0"/>
        <pt x="336" y="987" on="1"/>
        <pt x="337" y="988" on="0"/>
        <pt x="343" y="1007" on="0"/>
        <pt x="351" y="1032" on="0"/>
        <pt x="359" y="1056" on="0"/>
        <pt x="362" y="1061" on="1"/>
        <pt x="375" y="1067" on="1"/>
        <pt x="375" y="1079" on="0"/>
        <pt x="378" y="1084" on="0"/>
        <pt x="383" y="1083" on="0"/>
        <pt x="390" y="1082" on="0"/>
        <pt x="395" y="1087" on="1"/>
        <pt x="398" y="1091" on="0"/>
        <pt x="398" y="1103" on="0"/>
        <pt x="401" y="1106" on="1"/>
        <pt x="415" y="1128" on="0"/>
        <pt x="452" y="1161" on="0"/>
        <pt x="461" y="1186" on="1"/>
        <pt x="465" y="1186" on="1"/>
        <pt x="472" y="1185" on="0"/>
        <pt x="491" y="1197" on="0"/>
        <pt x="511" y="1214" on="0"/>
        <pt x="529" y="1230" on="0"/>
        <pt x="535" y="1233" on="1"/>
        <pt x="541" y="1236" on="0"/>
        <pt x="555" y="1236" on="0"/>
        <pt x="561" y="1239" on="1"/>
        <pt x="589" y="1255" on="0"/>
        <pt x="637" y="1291" on="0"/>
        <pt x="666" y="1305" on="1"/>
        <pt x="668" y="1305" on="0"/>
        <pt x="672" y="1309" on="0"/>
        <pt x="674" y="1309" on="1"/>
        <pt x="680" y="1309" on="0"/>
        <pt x="680" y="1305" on="1"/>
        <pt x="688" y="1303" on="0"/>
        <pt x="703" y="1303" on="0"/>
        <pt x="711" y="1303" on="1"/>
        <pt x="726" y="1303" on="0"/>
        <pt x="759" y="1307" on="0"/>
        <pt x="776" y="1307" on="1"/>
        <pt x="797" y="1307" on="0"/>
        <pt x="833" y="1295" on="0"/>
        <pt x="868" y="1278" on="0"/>
        <pt x="904" y="1263" on="0"/>
        <pt x="924" y="1260" on="1"/>
        <pt x="924" y="1254" on="0"/>
        <pt x="952" y="1230" on="0"/>
        <pt x="988" y="1206" on="0"/>
        <pt x="1023" y="1187" on="0"/>
        <pt x="1030" y="1186" on="1"/>
        <pt x="1036" y="1173" on="0"/>
        <pt x="1055" y="1153" on="0"/>
        <pt x="1073" y="1133" on="0"/>
        <pt x="1087" y="1110" on="0"/>
        <pt x="1090" y="1094" on="1"/>
        <pt x="1102" y="1087" on="0"/>
        <pt x="1117" y="1064" on="0"/>
        <pt x="1128" y="1055" on="1"/>
        <pt x="1126" y="1051" on="0"/>
        <pt x="1126" y="1042" on="1"/>
        <pt x="1126" y="1032" on="0"/>
        <pt x="1137" y="1013" on="0"/>
        <pt x="1150" y="989" on="0"/>
        <pt x="1161" y="957" on="0"/>
        <pt x="1161" y="936" on="1"/>
        <pt x="1161" y="904" on="0"/>
        <pt x="1141" y="844" on="0"/>
        <pt x="1128" y="815" on="1"/>
        <pt x="1107" y="810" on="0"/>
        <pt x="1065" y="788" on="0"/>
        <pt x="1042" y="788" on="1"/>
        <pt x="1025" y="788" on="0"/>
        <pt x="1010" y="797" on="1"/>
        <pt x="1004" y="809" on="1"/>
        <pt x="989" y="816" on="0"/>
        <pt x="958" y="859" on="0"/>
        <pt x="933" y="911" on="0"/>
        <pt x="918" y="962" on="0"/>
        <pt x="918" y="977" on="1"/>
        <pt x="918" y="983" on="0"/>
        <pt x="898" y="1008" on="0"/>
        <pt x="873" y="1036" on="0"/>
        <pt x="848" y="1064" on="0"/>
        <pt x="844" y="1073" on="1"/>
        <pt x="832" y="1073" on="0"/>
        <pt x="808" y="1081" on="0"/>
        <pt x="785" y="1092" on="0"/>
        <pt x="765" y="1100" on="0"/>
        <pt x="756" y="1100" on="1"/>
        <pt x="748" y="1100" on="0"/>
        <pt x="733" y="1094" on="0"/>
        <pt x="725" y="1094" on="1"/>
        <pt x="717" y="1094" on="0"/>
        <pt x="704" y="1100" on="0"/>
        <pt x="696" y="1100" on="1"/>
        <pt x="676" y="1100" on="0"/>
        <pt x="613" y="1060" on="0"/>
        <pt x="553" y="1003" on="0"/>
        <pt x="509" y="943" on="0"/>
        <pt x="508" y="922" on="1"/>
        <pt x="512" y="909" on="0"/>
        <pt x="522" y="909" on="1"/>
        <pt x="530" y="909" on="0"/>
        <pt x="545" y="915" on="0"/>
        <pt x="553" y="915" on="1"/>
        <pt x="567" y="915" on="0"/>
        <pt x="592" y="909" on="0"/>
        <pt x="606" y="909" on="1"/>
        <pt x="617" y="909" on="0"/>
        <pt x="638" y="915" on="0"/>
        <pt x="649" y="915" on="1"/>
        <pt x="683" y="915" on="0"/>
        <pt x="760" y="887" on="0"/>
        <pt x="784" y="862" on="1"/>
        <pt x="786" y="857" on="0"/>
        <pt x="786" y="849" on="0"/>
        <pt x="786" y="846" on="1"/>
        <pt x="786" y="823" on="0"/>
        <pt x="759" y="779" on="0"/>
        <pt x="718" y="745" on="0"/>
        <pt x="670" y="723" on="0"/>
        <pt x="649" y="723" on="1"/>
        <pt x="634" y="723" on="0"/>
        <pt x="605" y="737" on="0"/>
        <pt x="590" y="737" on="1"/>
        <pt x="581" y="737" on="0"/>
        <pt x="562" y="731" on="0"/>
        <pt x="553" y="731" on="1"/>
        <pt x="536" y="731" on="0"/>
        <pt x="502" y="739" on="0"/>
        <pt x="483" y="739" on="1"/>
        <pt x="480" y="739" on="0"/>
        <pt x="472" y="737" on="0"/>
        <pt x="467" y="737" on="1"/>
        <pt x="467" y="723" on="1"/>
        <pt x="467" y="701" on="0"/>
        <pt x="495" y="687" on="0"/>
        <pt x="537" y="680" on="0"/>
        <pt x="588" y="669" on="0"/>
        <pt x="612" y="651" on="1"/>
        <pt x="625" y="642" on="0"/>
        <pt x="645" y="622" on="0"/>
        <pt x="645" y="606" on="1"/>
        <pt x="645" y="583" on="0"/>
        <pt x="612" y="552" on="0"/>
        <pt x="566" y="530" on="0"/>
        <pt x="517" y="514" on="0"/>
        <pt x="502" y="506" on="1"/>
        <pt x="505" y="486" on="0"/>
        <pt x="525" y="451" on="0"/>
        <pt x="535" y="432" on="1"/>
        <pt x="548" y="405" on="0"/>
        <pt x="595" y="363" on="0"/>
        <pt x="653" y="334" on="0"/>
        <pt x="716" y="319" on="0"/>
        <pt x="745" y="319" on="1"/>
        <pt x="779" y="319" on="0"/>
        <pt x="823" y="326" on="0"/>
        <pt x="858" y="344" on="0"/>
        <pt x="890" y="375" on="0"/>
        <pt x="911" y="399" on="1"/>
        <pt x="924" y="415" on="0"/>
        <pt x="948" y="440" on="0"/>
        <pt x="956" y="459" on="1"/>
        <pt x="963" y="474" on="0"/>
        <pt x="965" y="504" on="0"/>
        <pt x="971" y="518" on="1"/>
        <pt x="974" y="531" on="0"/>
        <pt x="987" y="553" on="0"/>
        <pt x="989" y="565" on="1"/>
        <pt x="999" y="566" on="0"/>
        <pt x="1012" y="577" on="0"/>
        <pt x="1025" y="590" on="0"/>
        <pt x="1045" y="600" on="0"/>
        <pt x="1063" y="600" on="1"/>
        <pt x="1088" y="600" on="0"/>
        <pt x="1132" y="581" on="0"/>
        <pt x="1155" y="571" on="1"/>
        <pt x="1158" y="553" on="0"/>
        <pt x="1169" y="516" on="0"/>
      </contour>
    </TTGlyph>
    <TTGlyph name="F" xMin="63" yMin="-41" xMax="1145" yMax="1466">
      <contour>
        <pt x="1145" y="1341" on="1"/>
        <pt x="1145" y="1317" on="0"/>
        <pt x="1130" y="1269" on="0"/>
        <pt x="1100" y="1231" on="0"/>
        <pt x="1056" y="1208" on="0"/>
        <pt x="1028" y="1208" on="1"/>
        <pt x="1014" y="1208" on="0"/>
        <pt x="987" y="1214" on="0"/>
        <pt x="973" y="1214" on="1"/>
        <pt x="922" y="1214" on="0"/>
        <pt x="821" y="1202" on="0"/>
        <pt x="770" y="1202" on="1"/>
        <pt x="750" y="1202" on="0"/>
        <pt x="712" y="1208" on="0"/>
        <pt x="692" y="1208" on="1"/>
        <pt x="672" y="1208" on="0"/>
        <pt x="634" y="1202" on="0"/>
        <pt x="614" y="1202" on="1"/>
        <pt x="593" y="1202" on="0"/>
        <pt x="552" y="1214" on="0"/>
        <pt x="530" y="1214" on="1"/>
        <pt x="501" y="1214" on="0"/>
        <pt x="444" y="1200" on="0"/>
        <pt x="416" y="1202" on="1"/>
        <pt x="411" y="1176" on="0"/>
        <pt x="401" y="1121" on="0"/>
        <pt x="401" y="1094" on="1"/>
        <pt x="401" y="1065" on="0"/>
        <pt x="408" y="1006" on="0"/>
        <pt x="408" y="977" on="1"/>
        <pt x="408" y="952" on="0"/>
        <pt x="401" y="903" on="0"/>
        <pt x="401" y="877" on="1"/>
        <pt x="401" y="866" on="0"/>
        <pt x="408" y="844" on="0"/>
        <pt x="408" y="831" on="1"/>
        <pt x="408" y="814" on="0"/>
        <pt x="395" y="783" on="0"/>
        <pt x="395" y="766" on="1"/>
        <pt x="395" y="755" on="0"/>
        <pt x="403" y="733" on="0"/>
        <pt x="416" y="733" on="1"/>
        <pt x="422" y="733" on="0"/>
        <pt x="432" y="740" on="0"/>
        <pt x="443" y="747" on="0"/>
        <pt x="454" y="754" on="0"/>
        <pt x="461" y="754" on="1"/>
        <pt x="490" y="733" on="0"/>
        <pt x="520" y="727" on="1"/>
        <pt x="537" y="729" on="0"/>
        <pt x="566" y="739" on="0"/>
        <pt x="580" y="745" on="1"/>
        <pt x="589" y="743" on="0"/>
        <pt x="605" y="741" on="0"/>
        <pt x="614" y="741" on="1"/>
        <pt x="648" y="741" on="0"/>
        <pt x="713" y="760" on="0"/>
        <pt x="748" y="760" on="1"/>
        <pt x="786" y="760" on="0"/>
        <pt x="857" y="736" on="0"/>
        <pt x="891" y="719" on="1"/>
        <pt x="891" y="694" on="0"/>
        <pt x="909" y="647" on="0"/>
        <pt x="909" y="621" on="1"/>
        <pt x="898" y="599" on="0"/>
        <pt x="859" y="569" on="0"/>
        <pt x="844" y="549" on="1"/>
        <pt x="836" y="549" on="1"/>
        <pt x="822" y="549" on="0"/>
        <pt x="798" y="537" on="0"/>
        <pt x="784" y="535" on="1"/>
        <pt x="763" y="531" on="0"/>
        <pt x="719" y="537" on="0"/>
        <pt x="696" y="537" on="1"/>
        <pt x="672" y="537" on="0"/>
        <pt x="624" y="528" on="0"/>
        <pt x="577" y="517" on="0"/>
        <pt x="530" y="508" on="0"/>
        <pt x="506" y="508" on="1"/>
        <pt x="490" y="508" on="0"/>
        <pt x="462" y="514" on="0"/>
        <pt x="446" y="514" on="1"/>
        <pt x="423" y="514" on="0"/>
        <pt x="399" y="494" on="0"/>
        <pt x="399" y="471" on="1"/>
        <pt x="399" y="440" on="0"/>
        <pt x="398" y="373" on="0"/>
        <pt x="401" y="344" on="1"/>
        <pt x="402" y="336" on="0"/>
        <pt x="408" y="315" on="0"/>
        <pt x="416" y="295" on="0"/>
        <pt x="422" y="276" on="0"/>
        <pt x="422" y="270" on="1"/>
        <pt x="422" y="262" on="0"/>
        <pt x="416" y="247" on="0"/>
        <pt x="416" y="238" on="1"/>
        <pt x="416" y="230" on="0"/>
        <pt x="428" y="219" on="0"/>
        <pt x="428" y="211" on="1"/>
        <pt x="428" y="203" on="0"/>
        <pt x="422" y="187" on="0"/>
        <pt x="422" y="178" on="1"/>
        <pt x="422" y="164" on="0"/>
        <pt x="424" y="135" on="0"/>
        <pt x="424" y="121" on="1"/>
        <pt x="424" y="95" on="0"/>
        <pt x="411" y="38" on="0"/>
        <pt x="383" y="-10" on="0"/>
        <pt x="338" y="-41" on="0"/>
        <pt x="307" y="-41" on="1"/>
        <pt x="282" y="-41" on="0"/>
        <pt x="240" y="-21" on="0"/>
        <pt x="217" y="-14" on="1"/>
        <pt x="212" y="4" on="0"/>
        <pt x="199" y="36" on="0"/>
        <pt x="185" y="66" on="0"/>
        <pt x="176" y="99" on="0"/>
        <pt x="176" y="119" on="1"/>
        <pt x="176" y="133" on="0"/>
        <pt x="184" y="160" on="0"/>
        <pt x="184" y="174" on="1"/>
        <pt x="184" y="190" on="0"/>
        <pt x="170" y="219" on="0"/>
        <pt x="170" y="236" on="1"/>
        <pt x="170" y="248" on="0"/>
        <pt x="174" y="275" on="0"/>
        <pt x="174" y="289" on="1"/>
        <pt x="174" y="309" on="0"/>
        <pt x="158" y="340" on="0"/>
        <pt x="158" y="358" on="1"/>
        <pt x="158" y="378" on="0"/>
        <pt x="168" y="418" on="0"/>
        <pt x="168" y="438" on="1"/>
        <pt x="168" y="456" on="0"/>
        <pt x="156" y="478" on="0"/>
        <pt x="138" y="493" on="0"/>
        <pt x="116" y="505" on="0"/>
        <pt x="98" y="522" on="0"/>
        <pt x="86" y="547" on="0"/>
        <pt x="86" y="569" on="1"/>
        <pt x="86" y="583" on="0"/>
        <pt x="95" y="619" on="0"/>
        <pt x="109" y="654" on="0"/>
        <pt x="127" y="685" on="0"/>
        <pt x="137" y="694" on="1"/>
        <pt x="141" y="697" on="0"/>
        <pt x="153" y="703" on="0"/>
        <pt x="164" y="710" on="0"/>
        <pt x="171" y="720" on="0"/>
        <pt x="170" y="727" on="1"/>
        <pt x="185" y="793" on="0"/>
        <pt x="181" y="929" on="0"/>
        <pt x="184" y="997" on="1"/>
        <pt x="176" y="1002" on="0"/>
        <pt x="176" y="1010" on="1"/>
        <pt x="176" y="1012" on="0"/>
        <pt x="184" y="1028" on="0"/>
        <pt x="184" y="1036" on="1"/>
        <pt x="184" y="1058" on="0"/>
        <pt x="170" y="1097" on="0"/>
        <pt x="170" y="1120" on="1"/>
        <pt x="170" y="1140" on="0"/>
        <pt x="176" y="1182" on="0"/>
        <pt x="184" y="1202" on="1"/>
        <pt x="182" y="1214" on="0"/>
        <pt x="143" y="1231" on="0"/>
        <pt x="99" y="1255" on="0"/>
        <pt x="63" y="1296" on="0"/>
        <pt x="63" y="1333" on="1"/>
        <pt x="63" y="1358" on="0"/>
        <pt x="73" y="1409" on="0"/>
        <pt x="78" y="1434" on="1"/>
        <pt x="95" y="1447" on="0"/>
        <pt x="138" y="1459" on="0"/>
        <pt x="184" y="1462" on="0"/>
        <pt x="230" y="1460" on="0"/>
        <pt x="250" y="1460" on="1"/>
        <pt x="259" y="1460" on="0"/>
        <pt x="273" y="1466" on="0"/>
        <pt x="283" y="1466" on="1"/>
        <pt x="292" y="1466" on="0"/>
        <pt x="307" y="1460" on="0"/>
        <pt x="315" y="1460" on="1"/>
        <pt x="323" y="1460" on="0"/>
        <pt x="340" y="1462" on="0"/>
        <pt x="348" y="1462" on="1"/>
        <pt x="370" y="1462" on="0"/>
        <pt x="389" y="1446" on="1"/>
        <pt x="412" y="1454" on="0"/>
        <pt x="444" y="1454" on="1"/>
        <pt x="466" y="1454" on="0"/>
        <pt x="506" y="1440" on="0"/>
        <pt x="526" y="1440" on="1"/>
        <pt x="548" y="1440" on="0"/>
        <pt x="589" y="1455" on="0"/>
        <pt x="612" y="1454" on="1"/>
        <pt x="627" y="1452" on="1"/>
        <pt x="629" y="1446" on="1"/>
        <pt x="634" y="1446" on="0"/>
        <pt x="642" y="1454" on="0"/>
        <pt x="653" y="1454" on="1"/>
        <pt x="675" y="1454" on="0"/>
        <pt x="716" y="1440" on="0"/>
        <pt x="737" y="1440" on="1"/>
        <pt x="758" y="1440" on="0"/>
        <pt x="797" y="1448" on="0"/>
        <pt x="833" y="1458" on="0"/>
        <pt x="864" y="1466" on="0"/>
        <pt x="877" y="1466" on="1"/>
        <pt x="892" y="1466" on="0"/>
        <pt x="922" y="1455" on="0"/>
        <pt x="936" y="1452" on="1"/>
        <pt x="944" y="1460" on="1"/>
        <pt x="952" y="1450" on="0"/>
        <pt x="997" y="1442" on="0"/>
        <pt x="1049" y="1438" on="0"/>
        <pt x="1097" y="1432" on="0"/>
        <pt x="1108" y="1425" on="1"/>
        <pt x="1112" y="1423" on="0"/>
        <pt x="1119" y="1413" on="0"/>
        <pt x="1126" y="1403" on="0"/>
        <pt x="1135" y="1394" on="0"/>
        <pt x="1141" y="1393" on="1"/>
        <pt x="1143" y="1380" on="0"/>
        <pt x="1145" y="1355" on="0"/>
      </contour>
    </TTGlyph>
    <TTGlyph name="G" xMin="57" yMin="0" xMax="1372" yMax="1432">
      <contour>
        <pt x="1372" y="672" on="1"/>
        <pt x="1372" y="645" on="1"/>
        <pt x="1372" y="633" on="0"/>
        <pt x="1369" y="606" on="0"/>
        <pt x="1358" y="600" on="1"/>
        <pt x="1353" y="585" on="0"/>
        <pt x="1344" y="552" on="0"/>
        <pt x="1331" y="541" on="1"/>
        <pt x="1314" y="536" on="0"/>
        <pt x="1278" y="526" on="0"/>
        <pt x="1260" y="526" on="1"/>
        <pt x="1257" y="508" on="0"/>
        <pt x="1243" y="448" on="0"/>
        <pt x="1225" y="385" on="0"/>
        <pt x="1204" y="330" on="0"/>
        <pt x="1194" y="315" on="1"/>
        <pt x="1188" y="307" on="0"/>
        <pt x="1172" y="297" on="0"/>
        <pt x="1167" y="289" on="1"/>
        <pt x="1161" y="278" on="0"/>
        <pt x="1159" y="254" on="0"/>
        <pt x="1153" y="242" on="1"/>
        <pt x="1141" y="236" on="1"/>
        <pt x="1138" y="228" on="0"/>
        <pt x="1138" y="211" on="0"/>
        <pt x="1135" y="203" on="1"/>
        <pt x="1094" y="187" on="0"/>
        <pt x="1031" y="132" on="0"/>
        <pt x="1016" y="90" on="1"/>
        <pt x="985" y="75" on="0"/>
        <pt x="921" y="68" on="0"/>
        <pt x="889" y="57" on="1"/>
        <pt x="875" y="52" on="0"/>
        <pt x="852" y="37" on="0"/>
        <pt x="838" y="31" on="1"/>
        <pt x="829" y="28" on="0"/>
        <pt x="795" y="18" on="0"/>
        <pt x="758" y="7" on="0"/>
        <pt x="726" y="0" on="0"/>
        <pt x="719" y="0" on="1"/>
        <pt x="702" y="0" on="0"/>
        <pt x="693" y="5" on="0"/>
        <pt x="686" y="11" on="0"/>
        <pt x="667" y="16" on="0"/>
        <pt x="641" y="16" on="1"/>
        <pt x="633" y="16" on="0"/>
        <pt x="619" y="23" on="0"/>
        <pt x="602" y="32" on="0"/>
        <pt x="579" y="39" on="0"/>
        <pt x="563" y="39" on="1"/>
        <pt x="549" y="39" on="0"/>
        <pt x="522" y="31" on="0"/>
        <pt x="514" y="18" on="1"/>
        <pt x="505" y="29" on="0"/>
        <pt x="475" y="29" on="0"/>
        <pt x="463" y="29" on="1"/>
        <pt x="451" y="29" on="0"/>
        <pt x="442" y="34" on="0"/>
        <pt x="439" y="40" on="0"/>
        <pt x="438" y="48" on="0"/>
        <pt x="434" y="51" on="1"/>
        <pt x="428" y="55" on="0"/>
        <pt x="418" y="54" on="0"/>
        <pt x="406" y="58" on="0"/>
        <pt x="391" y="78" on="0"/>
        <pt x="381" y="104" on="1"/>
        <pt x="343" y="118" on="0"/>
        <pt x="285" y="169" on="0"/>
        <pt x="274" y="209" on="1"/>
        <pt x="245" y="238" on="0"/>
        <pt x="180" y="288" on="0"/>
        <pt x="150" y="315" on="1"/>
        <pt x="146" y="334" on="0"/>
        <pt x="134" y="376" on="0"/>
        <pt x="117" y="387" on="1"/>
        <pt x="119" y="392" on="0"/>
        <pt x="119" y="398" on="0"/>
        <pt x="119" y="403" on="1"/>
        <pt x="119" y="417" on="0"/>
        <pt x="110" y="443" on="0"/>
        <pt x="99" y="468" on="0"/>
        <pt x="87" y="493" on="0"/>
        <pt x="84" y="506" on="1"/>
        <pt x="79" y="531" on="0"/>
        <pt x="81" y="581" on="0"/>
        <pt x="78" y="606" on="1"/>
        <pt x="75" y="623" on="0"/>
        <pt x="57" y="662" on="0"/>
        <pt x="57" y="678" on="1"/>
        <pt x="57" y="691" on="0"/>
        <pt x="64" y="716" on="0"/>
        <pt x="72" y="740" on="0"/>
        <pt x="74" y="765" on="0"/>
        <pt x="70" y="778" on="1"/>
        <pt x="77" y="784" on="0"/>
        <pt x="97" y="824" on="0"/>
        <pt x="114" y="870" on="0"/>
        <pt x="127" y="914" on="0"/>
        <pt x="129" y="924" on="1"/>
        <pt x="132" y="939" on="0"/>
        <pt x="132" y="972" on="0"/>
        <pt x="137" y="989" on="1"/>
        <pt x="141" y="1005" on="0"/>
        <pt x="159" y="1036" on="0"/>
        <pt x="178" y="1066" on="0"/>
        <pt x="191" y="1097" on="0"/>
        <pt x="190" y="1114" on="1"/>
        <pt x="210" y="1131" on="0"/>
        <pt x="234" y="1177" on="0"/>
        <pt x="242" y="1200" on="1"/>
        <pt x="268" y="1211" on="0"/>
        <pt x="311" y="1246" on="0"/>
        <pt x="322" y="1274" on="1"/>
        <pt x="338" y="1273" on="0"/>
        <pt x="362" y="1286" on="0"/>
        <pt x="382" y="1306" on="0"/>
        <pt x="402" y="1326" on="0"/>
        <pt x="414" y="1333" on="1"/>
        <pt x="448" y="1352" on="0"/>
        <pt x="510" y="1362" on="0"/>
        <pt x="572" y="1371" on="0"/>
        <pt x="636" y="1393" on="0"/>
        <pt x="672" y="1425" on="1"/>
        <pt x="684" y="1425" on="1"/>
        <pt x="703" y="1425" on="0"/>
        <pt x="717" y="1411" on="1"/>
        <pt x="726" y="1419" on="0"/>
        <pt x="747" y="1427" on="0"/>
        <pt x="758" y="1432" on="1"/>
        <pt x="821" y="1424" on="0"/>
        <pt x="946" y="1410" on="0"/>
        <pt x="1008" y="1399" on="1"/>
        <pt x="1026" y="1380" on="0"/>
        <pt x="1066" y="1347" on="0"/>
        <pt x="1081" y="1325" on="1"/>
        <pt x="1097" y="1323" on="0"/>
        <pt x="1128" y="1316" on="0"/>
        <pt x="1141" y="1307" on="1"/>
        <pt x="1147" y="1293" on="0"/>
        <pt x="1151" y="1263" on="0"/>
        <pt x="1151" y="1247" on="1"/>
        <pt x="1151" y="1229" on="0"/>
        <pt x="1146" y="1192" on="0"/>
        <pt x="1141" y="1174" on="1"/>
        <pt x="1110" y="1145" on="0"/>
        <pt x="1027" y="1118" on="0"/>
        <pt x="985" y="1118" on="1"/>
        <pt x="970" y="1118" on="0"/>
        <pt x="950" y="1123" on="0"/>
        <pt x="930" y="1128" on="0"/>
        <pt x="910" y="1133" on="0"/>
        <pt x="895" y="1133" on="1"/>
        <pt x="886" y="1133" on="0"/>
        <pt x="883" y="1150" on="0"/>
        <pt x="877" y="1155" on="1"/>
        <pt x="872" y="1158" on="0"/>
        <pt x="861" y="1158" on="0"/>
        <pt x="856" y="1161" on="1"/>
        <pt x="848" y="1166" on="0"/>
        <pt x="840" y="1186" on="0"/>
        <pt x="829" y="1188" on="1"/>
        <pt x="805" y="1175" on="0"/>
        <pt x="751" y="1171" on="0"/>
        <pt x="725" y="1161" on="1"/>
        <pt x="705" y="1153" on="0"/>
        <pt x="671" y="1128" on="0"/>
        <pt x="651" y="1120" on="1"/>
        <pt x="636" y="1115" on="0"/>
        <pt x="601" y="1116" on="0"/>
        <pt x="586" y="1108" on="1"/>
        <pt x="570" y="1099" on="0"/>
        <pt x="545" y="1073" on="0"/>
        <pt x="520" y="1050" on="0"/>
        <pt x="489" y="1037" on="0"/>
        <pt x="467" y="1042" on="1"/>
        <pt x="460" y="1039" on="0"/>
        <pt x="451" y="1031" on="0"/>
        <pt x="441" y="1025" on="0"/>
        <pt x="429" y="1021" on="0"/>
        <pt x="420" y="1022" on="1"/>
        <pt x="409" y="1000" on="0"/>
        <pt x="391" y="950" on="0"/>
        <pt x="369" y="902" on="0"/>
        <pt x="342" y="859" on="0"/>
        <pt x="322" y="844" on="1"/>
        <pt x="324" y="839" on="0"/>
        <pt x="324" y="829" on="0"/>
        <pt x="324" y="823" on="1"/>
        <pt x="324" y="809" on="0"/>
        <pt x="315" y="784" on="0"/>
        <pt x="304" y="759" on="0"/>
        <pt x="295" y="734" on="0"/>
        <pt x="295" y="719" on="1"/>
        <pt x="295" y="698" on="0"/>
        <pt x="312" y="659" on="0"/>
        <pt x="331" y="621" on="0"/>
        <pt x="348" y="582" on="0"/>
        <pt x="348" y="561" on="1"/>
        <pt x="348" y="542" on="0"/>
        <pt x="342" y="526" on="1"/>
        <pt x="353" y="517" on="0"/>
        <pt x="356" y="483" on="0"/>
        <pt x="362" y="442" on="0"/>
        <pt x="384" y="399" on="0"/>
        <pt x="414" y="381" on="1"/>
        <pt x="420" y="369" on="0"/>
        <pt x="420" y="340" on="0"/>
        <pt x="428" y="328" on="1"/>
        <pt x="436" y="315" on="0"/>
        <pt x="459" y="297" on="0"/>
        <pt x="484" y="282" on="0"/>
        <pt x="509" y="267" on="0"/>
        <pt x="520" y="256" on="1"/>
        <pt x="524" y="256" on="1"/>
        <pt x="540" y="256" on="0"/>
        <pt x="563" y="247" on="0"/>
        <pt x="580" y="250" on="1"/>
        <pt x="603" y="236" on="0"/>
        <pt x="652" y="219" on="0"/>
        <pt x="680" y="219" on="1"/>
        <pt x="724" y="219" on="0"/>
        <pt x="785" y="238" on="0"/>
        <pt x="830" y="262" on="0"/>
        <pt x="865" y="282" on="0"/>
        <pt x="883" y="283" on="1"/>
        <pt x="903" y="318" on="0"/>
        <pt x="938" y="390" on="0"/>
        <pt x="963" y="422" on="1"/>
        <pt x="978" y="428" on="0"/>
        <pt x="1010" y="442" on="0"/>
        <pt x="1022" y="455" on="1"/>
        <pt x="1020" y="468" on="0"/>
        <pt x="1011" y="485" on="0"/>
        <pt x="1002" y="502" on="0"/>
        <pt x="997" y="523" on="0"/>
        <pt x="1001" y="541" on="1"/>
        <pt x="902" y="550" on="0"/>
        <pt x="705" y="551" on="0"/>
        <pt x="606" y="559" on="1"/>
        <pt x="595" y="567" on="0"/>
        <pt x="586" y="601" on="0"/>
        <pt x="580" y="612" on="1"/>
        <pt x="575" y="619" on="0"/>
        <pt x="565" y="629" on="0"/>
        <pt x="556" y="639" on="0"/>
        <pt x="548" y="651" on="0"/>
        <pt x="547" y="659" on="1"/>
        <pt x="545" y="663" on="0"/>
        <pt x="545" y="671" on="0"/>
        <pt x="545" y="676" on="1"/>
        <pt x="545" y="691" on="0"/>
        <pt x="550" y="722" on="0"/>
        <pt x="553" y="737" on="1"/>
        <pt x="563" y="746" on="0"/>
        <pt x="585" y="755" on="0"/>
        <pt x="608" y="759" on="0"/>
        <pt x="633" y="762" on="0"/>
        <pt x="645" y="764" on="1"/>
        <pt x="651" y="766" on="0"/>
        <pt x="667" y="778" on="0"/>
        <pt x="672" y="778" on="1"/>
        <pt x="692" y="778" on="0"/>
        <pt x="734" y="772" on="0"/>
        <pt x="756" y="772" on="1"/>
        <pt x="771" y="772" on="0"/>
        <pt x="802" y="760" on="0"/>
        <pt x="817" y="758" on="1"/>
        <pt x="839" y="755" on="0"/>
        <pt x="879" y="756" on="0"/>
        <pt x="901" y="756" on="1"/>
        <pt x="924" y="756" on="0"/>
        <pt x="955" y="750" on="0"/>
        <pt x="982" y="741" on="0"/>
        <pt x="1009" y="730" on="0"/>
        <pt x="1028" y="725" on="1"/>
        <pt x="1063" y="733" on="0"/>
        <pt x="1136" y="741" on="0"/>
        <pt x="1174" y="741" on="1"/>
        <pt x="1199" y="741" on="0"/>
        <pt x="1255" y="735" on="0"/>
        <pt x="1308" y="720" on="0"/>
        <pt x="1355" y="693" on="0"/>
      </contour>
    </TTGlyph>
    <TTGlyph name="Gbreve" xMin="57" yMin="0" xMax="1372" yMax="1885">
      <component glyphName="G" x="0" y="0" flags="0x204"/>
      <component glyphName="breve" x="408" y="197" flags="0x4"/>
    </TTGlyph>
    <TTGlyph name="Gcircumflex" xMin="57" yMin="0" xMax="1372" yMax="1907">
      <component glyphName="G" x="0" y="0" flags="0x204"/>
      <component glyphName="circumflex" x="412" y="195" flags="0x4"/>
    </TTGlyph>
    <TTGlyph name="Gcommaaccent" xMin="57" yMin="-471" xMax="1372" yMax="1432">
      <component glyphName="G" x="0" y="0" flags="0x204"/>
      <component glyphName="uni0326" x="424" y="43" flags="0x4"/>
    </TTGlyph>
    <TTGlyph name="Gdotaccent" xMin="57" yMin="0" xMax="1372" yMax="1764">
      <component glyphName="G" x="0" y="0" flags="0x204"/>
      <component glyphName="dotaccent" x="573" y="195" flags="0x4"/>
    </TTGlyph>
    <TTGlyph name="H" xMin="-12" yMin="-74" xMax="1180" yMax="1495">
      <contour>
        <pt x="1180" y="117" on="1"/>
        <pt x="1180" y="93" on="0"/>
        <pt x="1176" y="38" on="0"/>
        <pt x="1162" y="-14" on="0"/>
        <pt x="1135" y="-58" on="0"/>
        <pt x="1112" y="-72" on="1"/>
        <pt x="1090" y="-72" on="1"/>
        <pt x="1055" y="-74" on="0"/>
        <pt x="991" y="-57" on="0"/>
        <pt x="961" y="-45" on="1"/>
        <pt x="942" y="-22" on="0"/>
        <pt x="928" y="34" on="0"/>
        <pt x="928" y="61" on="1"/>
        <pt x="928" y="74" on="0"/>
        <pt x="934" y="98" on="0"/>
        <pt x="934" y="111" on="1"/>
        <pt x="934" y="126" on="0"/>
        <pt x="922" y="157" on="0"/>
        <pt x="922" y="174" on="1"/>
        <pt x="922" y="193" on="0"/>
        <pt x="936" y="230" on="0"/>
        <pt x="936" y="252" on="1"/>
        <pt x="936" y="284" on="0"/>
        <pt x="922" y="351" on="0"/>
        <pt x="928" y="385" on="1"/>
        <pt x="887" y="385" on="0"/>
        <pt x="808" y="397" on="0"/>
        <pt x="768" y="397" on="1"/>
        <pt x="740" y="397" on="0"/>
        <pt x="690" y="385" on="0"/>
        <pt x="664" y="385" on="1"/>
        <pt x="633" y="385" on="0"/>
        <pt x="576" y="397" on="0"/>
        <pt x="545" y="397" on="1"/>
        <pt x="544" y="393" on="0"/>
        <pt x="531" y="392" on="0"/>
        <pt x="514" y="393" on="0"/>
        <pt x="499" y="395" on="0"/>
        <pt x="496" y="395" on="1"/>
        <pt x="479" y="395" on="0"/>
        <pt x="443" y="391" on="0"/>
        <pt x="426" y="385" on="1"/>
        <pt x="426" y="379" on="1"/>
        <pt x="425" y="368" on="0"/>
        <pt x="431" y="348" on="0"/>
        <pt x="439" y="328" on="0"/>
        <pt x="446" y="308" on="0"/>
        <pt x="446" y="297" on="1"/>
        <pt x="446" y="280" on="0"/>
        <pt x="428" y="261" on="0"/>
        <pt x="426" y="246" on="1"/>
        <pt x="428" y="241" on="0"/>
        <pt x="434" y="202" on="0"/>
        <pt x="440" y="158" on="0"/>
        <pt x="444" y="119" on="0"/>
        <pt x="444" y="115" on="1"/>
        <pt x="444" y="105" on="0"/>
        <pt x="434" y="83" on="0"/>
        <pt x="432" y="74" on="1"/>
        <pt x="430" y="64" on="0"/>
        <pt x="429" y="37" on="0"/>
        <pt x="426" y="29" on="1"/>
        <pt x="421" y="20" on="0"/>
        <pt x="402" y="4" on="0"/>
        <pt x="379" y="-10" on="0"/>
        <pt x="355" y="-18" on="0"/>
        <pt x="346" y="-18" on="1"/>
        <pt x="310" y="-18" on="0"/>
        <pt x="256" y="17" on="0"/>
        <pt x="219" y="71" on="0"/>
        <pt x="201" y="137" on="0"/>
        <pt x="201" y="168" on="1"/>
        <pt x="201" y="210" on="0"/>
        <pt x="221" y="287" on="0"/>
        <pt x="221" y="328" on="1"/>
        <pt x="221" y="351" on="0"/>
        <pt x="215" y="371" on="1"/>
        <pt x="204" y="377" on="0"/>
        <pt x="181" y="381" on="0"/>
        <pt x="157" y="382" on="0"/>
        <pt x="133" y="383" on="0"/>
        <pt x="121" y="385" on="1"/>
        <pt x="109" y="387" on="0"/>
        <pt x="87" y="398" on="0"/>
        <pt x="65" y="409" on="0"/>
        <pt x="42" y="418" on="0"/>
        <pt x="29" y="418" on="1"/>
        <pt x="25" y="432" on="0"/>
        <pt x="11" y="446" on="0"/>
        <pt x="-2" y="460" on="0"/>
        <pt x="-12" y="478" on="0"/>
        <pt x="-12" y="496" on="1"/>
        <pt x="-12" y="517" on="0"/>
        <pt x="8" y="561" on="0"/>
        <pt x="41" y="597" on="0"/>
        <pt x="81" y="624" on="0"/>
        <pt x="102" y="629" on="1"/>
        <pt x="115" y="632" on="0"/>
        <pt x="139" y="629" on="0"/>
        <pt x="152" y="629" on="1"/>
        <pt x="162" y="629" on="0"/>
        <pt x="174" y="636" on="0"/>
        <pt x="183" y="643" on="0"/>
        <pt x="192" y="647" on="0"/>
        <pt x="201" y="643" on="1"/>
        <pt x="199" y="648" on="0"/>
        <pt x="199" y="659" on="0"/>
        <pt x="199" y="664" on="1"/>
        <pt x="199" y="688" on="0"/>
        <pt x="215" y="737" on="0"/>
        <pt x="215" y="762" on="1"/>
        <pt x="215" y="776" on="0"/>
        <pt x="201" y="799" on="0"/>
        <pt x="201" y="813" on="1"/>
        <pt x="201" y="819" on="0"/>
        <pt x="207" y="830" on="0"/>
        <pt x="207" y="838" on="1"/>
        <pt x="207" y="864" on="0"/>
        <pt x="203" y="913" on="0"/>
        <pt x="203" y="938" on="1"/>
        <pt x="203" y="957" on="0"/>
        <pt x="215" y="994" on="0"/>
        <pt x="215" y="1010" on="1"/>
        <pt x="215" y="1022" on="0"/>
        <pt x="198" y="1045" on="0"/>
        <pt x="195" y="1059" on="1"/>
        <pt x="191" y="1070" on="0"/>
        <pt x="195" y="1091" on="0"/>
        <pt x="195" y="1102" on="1"/>
        <pt x="195" y="1114" on="0"/>
        <pt x="188" y="1136" on="0"/>
        <pt x="188" y="1147" on="1"/>
        <pt x="188" y="1162" on="0"/>
        <pt x="207" y="1189" on="0"/>
        <pt x="207" y="1198" on="1"/>
        <pt x="207" y="1220" on="0"/>
        <pt x="203" y="1262" on="0"/>
        <pt x="203" y="1284" on="1"/>
        <pt x="203" y="1313" on="0"/>
        <pt x="212" y="1356" on="0"/>
        <pt x="235" y="1384" on="0"/>
        <pt x="274" y="1397" on="0"/>
        <pt x="305" y="1397" on="1"/>
        <pt x="330" y="1397" on="0"/>
        <pt x="352" y="1389" on="0"/>
        <pt x="366" y="1376" on="0"/>
        <pt x="381" y="1362" on="0"/>
        <pt x="399" y="1356" on="1"/>
        <pt x="409" y="1342" on="0"/>
        <pt x="416" y="1308" on="0"/>
        <pt x="420" y="1272" on="0"/>
        <pt x="424" y="1238" on="0"/>
        <pt x="432" y="1223" on="1"/>
        <pt x="423" y="1206" on="0"/>
        <pt x="416" y="1169" on="0"/>
        <pt x="416" y="1149" on="1"/>
        <pt x="416" y="1121" on="0"/>
        <pt x="426" y="1064" on="0"/>
        <pt x="426" y="1038" on="1"/>
        <pt x="426" y="1032" on="0"/>
        <pt x="420" y="1017" on="0"/>
        <pt x="420" y="1008" on="1"/>
        <pt x="420" y="974" on="0"/>
        <pt x="406" y="906" on="0"/>
        <pt x="406" y="870" on="1"/>
        <pt x="406" y="844" on="0"/>
        <pt x="420" y="796" on="0"/>
        <pt x="420" y="768" on="1"/>
        <pt x="420" y="734" on="0"/>
        <pt x="411" y="669" on="0"/>
        <pt x="406" y="635" on="1"/>
        <pt x="412" y="628" on="0"/>
        <pt x="456" y="622" on="0"/>
        <pt x="508" y="620" on="0"/>
        <pt x="558" y="621" on="0"/>
        <pt x="569" y="621" on="1"/>
        <pt x="634" y="621" on="0"/>
        <pt x="765" y="631" on="0"/>
        <pt x="831" y="631" on="1"/>
        <pt x="857" y="631" on="0"/>
        <pt x="908" y="628" on="0"/>
        <pt x="934" y="623" on="1"/>
        <pt x="940" y="632" on="0"/>
        <pt x="940" y="645" on="1"/>
        <pt x="940" y="657" on="0"/>
        <pt x="934" y="680" on="0"/>
        <pt x="926" y="703" on="0"/>
        <pt x="920" y="726" on="0"/>
        <pt x="920" y="739" on="1"/>
        <pt x="920" y="764" on="0"/>
        <pt x="929" y="811" on="0"/>
        <pt x="939" y="856" on="0"/>
        <pt x="948" y="900" on="0"/>
        <pt x="948" y="922" on="1"/>
        <pt x="948" y="945" on="0"/>
        <pt x="933" y="973" on="0"/>
        <pt x="928" y="993" on="1"/>
        <pt x="922" y="1015" on="0"/>
        <pt x="920" y="1069" on="0"/>
        <pt x="920" y="1092" on="1"/>
        <pt x="920" y="1101" on="0"/>
        <pt x="924" y="1109" on="0"/>
        <pt x="929" y="1113" on="0"/>
        <pt x="933" y="1118" on="0"/>
        <pt x="934" y="1124" on="1"/>
        <pt x="928" y="1137" on="0"/>
        <pt x="928" y="1151" on="1"/>
        <pt x="928" y="1168" on="0"/>
        <pt x="934" y="1202" on="0"/>
        <pt x="934" y="1219" on="1"/>
        <pt x="934" y="1227" on="0"/>
        <pt x="928" y="1238" on="0"/>
        <pt x="928" y="1243" on="1"/>
        <pt x="934" y="1249" on="0"/>
        <pt x="934" y="1257" on="1"/>
        <pt x="934" y="1274" on="0"/>
        <pt x="922" y="1311" on="0"/>
        <pt x="922" y="1329" on="1"/>
        <pt x="922" y="1367" on="0"/>
        <pt x="942" y="1439" on="0"/>
        <pt x="954" y="1475" on="1"/>
        <pt x="958" y="1475" on="1"/>
        <pt x="966" y="1474" on="0"/>
        <pt x="980" y="1480" on="0"/>
        <pt x="994" y="1488" on="0"/>
        <pt x="1009" y="1495" on="0"/>
        <pt x="1018" y="1495" on="1"/>
        <pt x="1032" y="1495" on="0"/>
        <pt x="1059" y="1481" on="0"/>
        <pt x="1073" y="1475" on="1"/>
        <pt x="1108" y="1458" on="0"/>
        <pt x="1143" y="1423" on="0"/>
        <pt x="1157" y="1379" on="0"/>
        <pt x="1157" y="1325" on="0"/>
        <pt x="1159" y="1290" on="1"/>
        <pt x="1159" y="1276" on="0"/>
        <pt x="1165" y="1249" on="0"/>
        <pt x="1165" y="1235" on="1"/>
        <pt x="1165" y="1203" on="0"/>
        <pt x="1145" y="1143" on="0"/>
        <pt x="1145" y="1112" on="1"/>
        <pt x="1145" y="1086" on="0"/>
        <pt x="1161" y="1030" on="0"/>
        <pt x="1161" y="999" on="1"/>
        <pt x="1161" y="962" on="0"/>
        <pt x="1151" y="891" on="0"/>
        <pt x="1151" y="854" on="1"/>
        <pt x="1151" y="843" on="0"/>
        <pt x="1159" y="824" on="0"/>
        <pt x="1159" y="815" on="1"/>
        <pt x="1159" y="804" on="0"/>
        <pt x="1151" y="785" on="0"/>
        <pt x="1151" y="774" on="1"/>
        <pt x="1151" y="751" on="0"/>
        <pt x="1163" y="705" on="0"/>
        <pt x="1165" y="682" on="1"/>
        <pt x="1167" y="659" on="0"/>
        <pt x="1165" y="613" on="0"/>
        <pt x="1165" y="590" on="1"/>
        <pt x="1165" y="550" on="0"/>
        <pt x="1178" y="472" on="0"/>
        <pt x="1178" y="430" on="1"/>
        <pt x="1178" y="352" on="0"/>
        <pt x="1180" y="195" on="0"/>
      </contour>
    </TTGlyph>
    <TTGlyph name="Hbar" xMin="-12" yMin="-74" xMax="1274" yMax="1495">
      <contour>
        <pt x="1274" y="913" on="1"/>
        <pt x="1274" y="889" on="0"/>
        <pt x="1254" y="853" on="0"/>
        <pt x="1222" y="827" on="0"/>
        <pt x="1179" y="809" on="0"/>
        <pt x="1157" y="805" on="1"/>
        <pt x="1155" y="797" on="0"/>
        <pt x="1151" y="782" on="0"/>
        <pt x="1151" y="774" on="1"/>
        <pt x="1151" y="751" on="0"/>
        <pt x="1163" y="705" on="0"/>
        <pt x="1165" y="682" on="1"/>
        <pt x="1167" y="659" on="0"/>
        <pt x="1165" y="613" on="0"/>
        <pt x="1165" y="590" on="1"/>
        <pt x="1165" y="550" on="0"/>
        <pt x="1178" y="472" on="0"/>
        <pt x="1178" y="430" on="1"/>
        <pt x="1178" y="352" on="0"/>
        <pt x="1180" y="195" on="0"/>
        <pt x="1180" y="117" on="1"/>
        <pt x="1180" y="93" on="0"/>
        <pt x="1176" y="38" on="0"/>
        <pt x="1162" y="-14" on="0"/>
        <pt x="1135" y="-58" on="0"/>
        <pt x="1112" y="-72" on="1"/>
        <pt x="1090" y="-72" on="1"/>
        <pt x="1055" y="-74" on="0"/>
        <pt x="991" y="-57" on="0"/>
        <pt x="961" y="-45" on="1"/>
        <pt x="942" y="-22" on="0"/>
        <pt x="928" y="34" on="0"/>
        <pt x="928" y="61" on="1"/>
        <pt x="928" y="74" on="0"/>
        <pt x="934" y="98" on="0"/>
        <pt x="934" y="111" on="1"/>
        <pt x="934" y="126" on="0"/>
        <pt x="922" y="157" on="0"/>
        <pt x="922" y="174" on="1"/>
        <pt x="922" y="193" on="0"/>
        <pt x="936" y="230" on="0"/>
        <pt x="936" y="252" on="1"/>
        <pt x="936" y="284" on="0"/>
        <pt x="922" y="351" on="0"/>
        <pt x="928" y="385" on="1"/>
        <pt x="887" y="385" on="0"/>
        <pt x="808" y="397" on="0"/>
        <pt x="768" y="397" on="1"/>
        <pt x="740" y="397" on="0"/>
        <pt x="690" y="385" on="0"/>
        <pt x="664" y="385" on="1"/>
        <pt x="633" y="385" on="0"/>
        <pt x="576" y="397" on="0"/>
        <pt x="545" y="397" on="1"/>
        <pt x="544" y="393" on="0"/>
        <pt x="531" y="392" on="0"/>
        <pt x="514" y="393" on="0"/>
        <pt x="499" y="395" on="0"/>
        <pt x="496" y="395" on="1"/>
        <pt x="479" y="395" on="0"/>
        <pt x="443" y="391" on="0"/>
        <pt x="426" y="385" on="1"/>
        <pt x="426" y="379" on="1"/>
        <pt x="425" y="368" on="0"/>
        <pt x="431" y="348" on="0"/>
        <pt x="439" y="328" on="0"/>
        <pt x="446" y="308" on="0"/>
        <pt x="446" y="297" on="1"/>
        <pt x="446" y="280" on="0"/>
        <pt x="428" y="261" on="0"/>
        <pt x="426" y="246" on="1"/>
        <pt x="428" y="241" on="0"/>
        <pt x="434" y="202" on="0"/>
        <pt x="440" y="158" on="0"/>
        <pt x="444" y="119" on="0"/>
        <pt x="444" y="115" on="1"/>
        <pt x="444" y="105" on="0"/>
        <pt x="434" y="83" on="0"/>
        <pt x="432" y="74" on="1"/>
        <pt x="430" y="64" on="0"/>
        <pt x="429" y="37" on="0"/>
        <pt x="426" y="29" on="1"/>
        <pt x="421" y="20" on="0"/>
        <pt x="402" y="4" on="0"/>
        <pt x="379" y="-10" on="0"/>
        <pt x="355" y="-18" on="0"/>
        <pt x="346" y="-18" on="1"/>
        <pt x="310" y="-18" on="0"/>
        <pt x="256" y="17" on="0"/>
        <pt x="219" y="71" on="0"/>
        <pt x="201" y="137" on="0"/>
        <pt x="201" y="168" on="1"/>
        <pt x="201" y="210" on="0"/>
        <pt x="221" y="287" on="0"/>
        <pt x="221" y="328" on="1"/>
        <pt x="221" y="351" on="0"/>
        <pt x="215" y="371" on="1"/>
        <pt x="204" y="377" on="0"/>
        <pt x="181" y="381" on="0"/>
        <pt x="157" y="382" on="0"/>
        <pt x="133" y="383" on="0"/>
        <pt x="121" y="385" on="1"/>
        <pt x="109" y="387" on="0"/>
        <pt x="87" y="398" on="0"/>
        <pt x="65" y="409" on="0"/>
        <pt x="42" y="418" on="0"/>
        <pt x="29" y="418" on="1"/>
        <pt x="25" y="432" on="0"/>
        <pt x="11" y="446" on="0"/>
        <pt x="-2" y="460" on="0"/>
        <pt x="-12" y="478" on="0"/>
        <pt x="-12" y="496" on="1"/>
        <pt x="-12" y="517" on="0"/>
        <pt x="8" y="561" on="0"/>
        <pt x="41" y="597" on="0"/>
        <pt x="81" y="624" on="0"/>
        <pt x="102" y="629" on="1"/>
        <pt x="115" y="632" on="0"/>
        <pt x="139" y="629" on="0"/>
        <pt x="152" y="629" on="1"/>
        <pt x="162" y="629" on="0"/>
        <pt x="174" y="636" on="0"/>
        <pt x="183" y="643" on="0"/>
        <pt x="192" y="647" on="0"/>
        <pt x="201" y="643" on="1"/>
        <pt x="199" y="648" on="0"/>
        <pt x="199" y="659" on="0"/>
        <pt x="199" y="664" on="1"/>
        <pt x="199" y="688" on="0"/>
        <pt x="215" y="737" on="0"/>
        <pt x="215" y="762" on="1"/>
        <pt x="215" y="773" on="0"/>
        <pt x="204" y="794" on="0"/>
        <pt x="201" y="805" on="1"/>
        <pt x="191" y="803" on="0"/>
        <pt x="171" y="803" on="0"/>
        <pt x="162" y="803" on="1"/>
        <pt x="130" y="803" on="0"/>
        <pt x="79" y="820" on="0"/>
        <pt x="53" y="831" on="1"/>
        <pt x="50" y="854" on="0"/>
        <pt x="45" y="899" on="0"/>
        <pt x="45" y="922" on="1"/>
        <pt x="45" y="950" on="1"/>
        <pt x="80" y="979" on="0"/>
        <pt x="166" y="1007" on="0"/>
        <pt x="215" y="1012" on="1"/>
        <pt x="213" y="1024" on="0"/>
        <pt x="198" y="1045" on="0"/>
        <pt x="195" y="1059" on="1"/>
        <pt x="191" y="1070" on="0"/>
        <pt x="195" y="1091" on="0"/>
        <pt x="195" y="1102" on="1"/>
        <pt x="195" y="1114" on="0"/>
        <pt x="188" y="1136" on="0"/>
        <pt x="188" y="1147" on="1"/>
        <pt x="188" y="1162" on="0"/>
        <pt x="207" y="1189" on="0"/>
        <pt x="207" y="1198" on="1"/>
        <pt x="207" y="1220" on="0"/>
        <pt x="203" y="1262" on="0"/>
        <pt x="203" y="1284" on="1"/>
        <pt x="203" y="1313" on="0"/>
        <pt x="212" y="1356" on="0"/>
        <pt x="235" y="1384" on="0"/>
        <pt x="274" y="1397" on="0"/>
        <pt x="305" y="1397" on="1"/>
        <pt x="330" y="1397" on="0"/>
        <pt x="352" y="1389" on="0"/>
        <pt x="366" y="1376" on="0"/>
        <pt x="381" y="1362" on="0"/>
        <pt x="399" y="1356" on="1"/>
        <pt x="409" y="1342" on="0"/>
        <pt x="416" y="1308" on="0"/>
        <pt x="420" y="1272" on="0"/>
        <pt x="424" y="1238" on="0"/>
        <pt x="432" y="1223" on="1"/>
        <pt x="423" y="1206" on="0"/>
        <pt x="416" y="1169" on="0"/>
        <pt x="416" y="1149" on="1"/>
        <pt x="416" y="1121" on="0"/>
        <pt x="426" y="1064" on="0"/>
        <pt x="426" y="1038" on="1"/>
        <pt x="426" y="1032" on="0"/>
        <pt x="420" y="1017" on="0"/>
        <pt x="420" y="1008" on="1"/>
        <pt x="420" y="1006" on="1"/>
        <pt x="437" y="1001" on="0"/>
        <pt x="473" y="989" on="0"/>
        <pt x="492" y="989" on="1"/>
        <pt x="503" y="989" on="0"/>
        <pt x="521" y="997" on="0"/>
        <pt x="532" y="997" on="1"/>
        <pt x="545" y="997" on="0"/>
        <pt x="567" y="991" on="0"/>
        <pt x="578" y="991" on="1"/>
        <pt x="595" y="991" on="0"/>
        <pt x="622" y="999" on="0"/>
        <pt x="639" y="999" on="1"/>
        <pt x="688" y="999" on="0"/>
        <pt x="778" y="981" on="0"/>
        <pt x="825" y="981" on="1"/>
        <pt x="848" y="981" on="0"/>
        <pt x="872" y="985" on="0"/>
        <pt x="889" y="997" on="1"/>
        <pt x="898" y="997" on="0"/>
        <pt x="910" y="989" on="0"/>
        <pt x="918" y="989" on="1"/>
        <pt x="928" y="989" on="1"/>
        <pt x="928" y="993" on="1"/>
        <pt x="922" y="1015" on="0"/>
        <pt x="920" y="1069" on="0"/>
        <pt x="920" y="1092" on="1"/>
        <pt x="920" y="1101" on="0"/>
        <pt x="924" y="1109" on="0"/>
        <pt x="929" y="1113" on="0"/>
        <pt x="933" y="1118" on="0"/>
        <pt x="934" y="1124" on="1"/>
        <pt x="928" y="1137" on="0"/>
        <pt x="928" y="1151" on="1"/>
        <pt x="928" y="1168" on="0"/>
        <pt x="934" y="1202" on="0"/>
        <pt x="934" y="1219" on="1"/>
        <pt x="934" y="1227" on="0"/>
        <pt x="928" y="1238" on="0"/>
        <pt x="928" y="1243" on="1"/>
        <pt x="934" y="1249" on="0"/>
        <pt x="934" y="1257" on="1"/>
        <pt x="934" y="1274" on="0"/>
        <pt x="922" y="1311" on="0"/>
        <pt x="922" y="1329" on="1"/>
        <pt x="922" y="1367" on="0"/>
        <pt x="942" y="1439" on="0"/>
        <pt x="954" y="1475" on="1"/>
        <pt x="958" y="1475" on="1"/>
        <pt x="966" y="1474" on="0"/>
        <pt x="980" y="1480" on="0"/>
        <pt x="994" y="1488" on="0"/>
        <pt x="1009" y="1495" on="0"/>
        <pt x="1018" y="1495" on="1"/>
        <pt x="1032" y="1495" on="0"/>
        <pt x="1059" y="1481" on="0"/>
        <pt x="1073" y="1475" on="1"/>
        <pt x="1108" y="1458" on="0"/>
        <pt x="1143" y="1423" on="0"/>
        <pt x="1157" y="1379" on="0"/>
        <pt x="1157" y="1325" on="0"/>
        <pt x="1159" y="1290" on="1"/>
        <pt x="1159" y="1276" on="0"/>
        <pt x="1165" y="1249" on="0"/>
        <pt x="1165" y="1235" on="1"/>
        <pt x="1165" y="1203" on="0"/>
        <pt x="1145" y="1143" on="0"/>
        <pt x="1145" y="1112" on="1"/>
        <pt x="1145" y="1086" on="0"/>
        <pt x="1161" y="1030" on="0"/>
        <pt x="1161" y="999" on="1"/>
        <pt x="1161" y="985" on="1"/>
        <pt x="1163" y="985" on="1"/>
        <pt x="1174" y="983" on="1"/>
        <pt x="1192" y="971" on="1"/>
        <pt x="1207" y="966" on="0"/>
        <pt x="1236" y="965" on="0"/>
        <pt x="1259" y="957" on="0"/>
        <pt x="1274" y="937" on="0"/>
      </contour>
      <contour>
        <pt x="420" y="768" on="1"/>
        <pt x="420" y="734" on="0"/>
        <pt x="411" y="669" on="0"/>
        <pt x="406" y="635" on="1"/>
        <pt x="412" y="628" on="0"/>
        <pt x="456" y="622" on="0"/>
        <pt x="508" y="620" on="0"/>
        <pt x="558" y="621" on="0"/>
        <pt x="569" y="621" on="1"/>
        <pt x="634" y="621" on="0"/>
        <pt x="765" y="631" on="0"/>
        <pt x="831" y="631" on="1"/>
        <pt x="857" y="631" on="0"/>
        <pt x="908" y="628" on="0"/>
        <pt x="934" y="623" on="1"/>
        <pt x="940" y="632" on="0"/>
        <pt x="940" y="645" on="1"/>
        <pt x="940" y="657" on="0"/>
        <pt x="934" y="680" on="0"/>
        <pt x="926" y="703" on="0"/>
        <pt x="920" y="726" on="0"/>
        <pt x="920" y="739" on="1"/>
        <pt x="920" y="771" on="0"/>
        <pt x="926" y="803" on="1"/>
        <pt x="909" y="801" on="0"/>
        <pt x="873" y="799" on="0"/>
        <pt x="856" y="799" on="1"/>
        <pt x="845" y="799" on="0"/>
        <pt x="824" y="805" on="0"/>
        <pt x="813" y="805" on="1"/>
        <pt x="798" y="805" on="0"/>
        <pt x="788" y="791" on="0"/>
        <pt x="778" y="791" on="1"/>
        <pt x="755" y="791" on="0"/>
        <pt x="688" y="807" on="0"/>
        <pt x="657" y="807" on="1"/>
        <pt x="619" y="807" on="0"/>
        <pt x="546" y="793" on="0"/>
        <pt x="508" y="793" on="1"/>
        <pt x="485" y="793" on="0"/>
        <pt x="441" y="793" on="0"/>
        <pt x="418" y="795" on="1"/>
        <pt x="418" y="788" on="0"/>
        <pt x="420" y="774" on="0"/>
      </contour>
    </TTGlyph>
    <TTGlyph name="Hcircumflex" xMin="-12" yMin="-74" xMax="1180" yMax="1868">
      <component glyphName="H" x="0" y="0" flags="0x204"/>
      <component glyphName="circumflex" x="369" y="156" flags="0x4"/>
    </TTGlyph>
</ttFont>
